<?xml version="1.0" encoding="utf-8"?>
<!-- Generator: Adobe Illustrator 15.1.0, SVG Export Plug-In . SVG Version: 6.00 Build 0)  -->
<!DOCTYPE svg PUBLIC "-//W3C//DTD SVG 1.1//EN" "http://www.w3.org/Graphics/SVG/1.1/DTD/svg11.dtd">
<svg version="1.1" id="レイヤー_1" xmlns="http://www.w3.org/2000/svg" xmlns:xlink="http://www.w3.org/1999/xlink" x="0px"
	 y="0px" width="220px" height="125px" viewBox="0 0 220 125" enable-background="new 0 0 220 125" xml:space="preserve">
<g>
	<g>
		<g>
			<path fill="#FFFFFF" d="M42.141,81.925V63.514h2.44v7.365h6.047v-7.365h2.439v18.411h-2.439v-4.626v-4.627h-6.047v9.253H42.141z"
				/>
			<path fill="#FFFFFF" d="M58.477,71.256h7.213v1.794h-7.213v7.081h8.381v1.794h-10.82V63.514h10.29v1.794h-7.851V71.256z"/>
			<path fill="#FFFFFF" d="M69.298,63.514h2.439v13.502c0,1.007,0.247,1.73,0.743,2.171c0.494,0.441,1.236,0.662,2.228,0.662h0.105
				c0.918,0,1.626-0.221,2.123-0.662c0.564-0.503,0.848-1.227,0.848-2.171V63.514h2.439v13.502c0,1.637-0.53,2.927-1.591,3.871
				c-0.778,0.692-2.052,1.038-3.819,1.038h-0.105c-1.769,0-3.042-0.346-3.819-1.038c-1.061-0.944-1.591-2.234-1.591-3.871V63.514z"
				/>
			<path fill="#FFFFFF" d="M92.529,65.023c0.918,0.818,1.379,1.983,1.379,3.494c0,1.386-0.461,2.518-1.379,3.399
				c-0.637,0.63-1.272,1.039-1.909,1.228l3.819,8.78h-2.546l-3.606-8.497h-2.971v8.497h-2.44V63.514h5.304
				C89.947,63.514,91.396,64.018,92.529,65.023z M90.62,70.784c0.565-0.503,0.849-1.259,0.849-2.267
				c0-0.943-0.318-1.699-0.955-2.266c-0.708-0.628-1.664-0.944-2.865-0.944h-2.334v6.326h3.077
				C89.241,71.634,89.983,71.351,90.62,70.784z"/>
			<path fill="#FFFFFF" d="M103.137,79.849h1.167v2.076h-4.773v-2.076h1.167V65.591h-1.167v-2.077h4.773v2.077h-1.167V79.849z"/>
			<path fill="#FFFFFF" d="M118.73,73.238c1.627,0.819,2.439,2.016,2.439,3.589s-0.528,2.833-1.591,3.775
				c-0.991,0.883-2.369,1.322-4.138,1.322c-1.696,0-3.005-0.408-3.925-1.228c-1.131-1.006-1.696-2.201-1.696-3.587v-0.945h2.439
				v0.851c0,1.007,0.281,1.763,0.85,2.266c0.565,0.505,1.271,0.756,2.121,0.756c1.131,0,1.979-0.251,2.547-0.756
				c0.636-0.566,0.953-1.289,0.953-2.171c0-0.945-0.495-1.7-1.485-2.266c-1.769-1.007-3.43-2.078-4.985-3.211
				c-1.131-0.818-1.733-1.92-1.804-3.305c-0.07-1.384,0.46-2.55,1.593-3.493c1.061-0.881,2.227-1.322,3.5-1.322
				c1.555,0,2.757,0.378,3.606,1.134c1.062,0.943,1.557,2.265,1.486,3.965H118.2c0.141-1.069-0.142-1.919-0.848-2.55
				c-0.495-0.438-1.098-0.66-1.804-0.66c-0.709,0-1.31,0.222-1.804,0.66c-0.636,0.566-0.954,1.228-0.954,1.983
				c0,0.818,0.493,1.605,1.484,2.36C115.76,71.539,117.245,72.483,118.73,73.238z"/>
			<path fill="#FFFFFF" d="M146.418,64.647c1.061,0.943,1.591,2.077,1.591,3.398c0,1.196-0.389,2.14-1.166,2.833
				c-0.636,0.565-1.166,0.912-1.591,1.038c0.777,0.377,1.415,0.787,1.91,1.228c0.917,0.818,1.378,1.951,1.378,3.397
				c0,1.576-0.461,2.772-1.378,3.589c-1.345,1.197-2.902,1.794-4.669,1.794h-5.304V63.514h5.516
				C144.331,63.514,145.569,63.892,146.418,64.647z M144.828,70.123c0.636-0.566,0.955-1.259,0.955-2.077s-0.25-1.447-0.744-1.889
				c-0.636-0.566-1.273-0.85-1.91-0.85h-3.5v5.571h3.184C143.589,70.879,144.26,70.628,144.828,70.123z M139.629,72.672v7.459h2.44
				c1.201,0,2.226-0.378,3.075-1.133c0.706-0.629,1.063-1.447,1.063-2.456c0-1.132-0.39-2.044-1.168-2.736
				c-0.849-0.756-1.698-1.134-2.546-1.134H139.629z"/>
			<path fill="#FFFFFF" d="M152.466,81.925h-2.547l5.304-18.411h2.122l5.303,18.411h-2.546l-1.482-5.383h-4.668L152.466,81.925z
				 M156.391,68.518h-0.214l-1.696,6.231h3.606L156.391,68.518z"/>
			<path fill="#FFFFFF" d="M164.346,81.925V63.514h2.44v7.742l6.047-7.742h2.864l-5.623,7.271l6.047,11.141h-2.759l-4.879-9.347
				l-1.697,2.077v7.27H164.346z"/>
			<path fill="#FFFFFF" d="M180.683,71.256h7.213v1.794h-7.213v7.081h8.381v1.794h-10.821V63.514h10.29v1.794h-7.85V71.256z"/>
			<path fill="#FFFFFF" d="M201.157,65.023c0.917,0.818,1.379,1.983,1.379,3.494c0,1.386-0.462,2.518-1.379,3.399
				c-0.636,0.63-1.274,1.039-1.912,1.228l3.821,8.78h-2.545l-3.61-8.497h-2.968v8.497h-2.441V63.514h5.306
				C198.573,63.514,200.023,64.018,201.157,65.023z M199.245,70.784c0.565-0.503,0.85-1.259,0.85-2.267
				c0-0.943-0.319-1.699-0.953-2.266c-0.709-0.628-1.663-0.944-2.866-0.944h-2.332v6.326h3.075
				C197.867,71.634,198.609,71.351,199.245,70.784z"/>
			<path fill="#FFFFFF" d="M206.778,63.514l3.712,7.459h0.106l3.714-7.459h2.439l-4.985,10.008v8.403h-2.441v-8.403l-4.984-10.008
				H206.778z"/>
		</g>
		<g>
			<path fill="#FFFFFF" d="M45,50.744c2.453-2.275,4.038-3.993,4.755-5.151l1.019,0.784c0.34,0.374,0.246,0.524-0.283,0.447
				c-0.566,0.821-2.057,2.352-4.472,4.591c-0.15,0.15-0.226,0.28-0.226,0.392c0,0.224,0.076,0.393,0.226,0.504
				c2.114,1.643,3.812,3.191,5.095,4.646l-1.019,1.008c-1.321-1.53-2.944-3.115-4.868-4.758c-0.566-0.484-0.85-0.914-0.85-1.288
				C44.377,51.51,44.584,51.117,45,50.744z"/>
			<path fill="#FFFFFF" d="M61.027,55.391c2.831-0.036,4.698-0.504,5.604-1.399c0.566-0.56,0.849-1.251,0.849-2.071
				c0-0.858-0.302-1.586-0.906-2.184c-0.453-0.447-1.246-0.671-2.377-0.671c-0.944,0-2.057,0.224-3.34,0.671
				c-0.981,0.337-2.057,0.767-3.227,1.288l-0.622-1.454l3.169-0.896c1.849-0.522,3.245-0.784,4.189-0.784
				c1.509,0,2.623,0.355,3.34,1.063c0.717,0.709,1.075,1.662,1.075,2.855c0,1.27-0.339,2.24-1.019,2.911
				c-1.284,1.27-3.416,1.923-6.397,1.959L61.027,55.391z"/>
			<path fill="#FFFFFF" d="M81.186,55.558c0.414-0.41,0.623-0.932,0.623-1.567c0-0.708-0.189-1.251-0.566-1.624
				c-0.415-0.411-1.114-0.616-2.094-0.616c-2.303,0-4.132,0.988-5.492,2.966l-0.962-0.951c2.453-2.388,4.227-4.478,5.321-6.269
				c-1.246,0.186-2.491,0.354-3.736,0.503l-0.396-1.289c1.358,0,3-0.13,4.925-0.392l0.396-0.168l0.679,0.616
				c0.339,0.335,0.283,0.542-0.17,0.615c-1.019,1.308-2.019,2.575-3,3.808c1.094-0.299,1.981-0.448,2.66-0.448
				c1.208,0,2.132,0.317,2.775,0.952c0.566,0.56,0.849,1.325,0.849,2.295s-0.303,1.754-0.907,2.352
				c-0.905,0.895-2.792,1.362-5.661,1.399l-0.566-1.176C78.695,56.604,80.469,56.268,81.186,55.558z"/>
			<path fill="#FFFFFF" d="M95.911,54.383c-1.359-0.298-2.435-0.448-3.228-0.448c-1.509,0-2.49,0.224-2.943,0.671
				c-0.265,0.262-0.396,0.542-0.396,0.84c0,0.373,0.113,0.671,0.339,0.896c0.302,0.299,1.151,0.448,2.547,0.448h3.454l-0.227,1.232
				h-3.453c-1.51,0-2.567-0.3-3.17-0.896c-0.452-0.448-0.68-1.027-0.68-1.735c0-0.56,0.208-1.044,0.624-1.456
				c0.641-0.634,1.961-0.952,3.963-0.952c0.679,0,1.358,0.056,2.037,0.168c-0.529-0.56-1-1.101-1.415-1.624
				c-1.774,0.224-3.718,0.336-5.831,0.336l-0.169-1.175c1.925,0.037,3.735-0.036,5.434-0.225c-0.265-0.484-0.473-0.952-0.623-1.399
				c-1.397,0.111-2.85,0.167-4.359,0.167l-0.113-1.12c1.547,0.038,2.943,0,4.189-0.111c-0.19-0.672-0.34-1.436-0.454-2.295h1.245
				c0.377,0.075,0.397,0.224,0.058,0.447c0.075,0.56,0.168,1.12,0.283,1.68c0.981-0.112,1.98-0.298,3-0.56l0.396,1.12
				c-1.283,0.224-2.302,0.392-3.057,0.504c0.15,0.447,0.376,0.915,0.68,1.399c1.207-0.187,2.396-0.447,3.566-0.784l0.509,1.177
				c-0.982,0.224-2.132,0.429-3.452,0.615c0.565,0.747,1.302,1.456,2.207,2.128L95.911,54.383z M98.628,47.833l-0.566,0.784
				c-0.83-0.634-1.623-1.175-2.377-1.623l0.623-0.728C97.061,46.751,97.835,47.273,98.628,47.833z M98.854,47.385
				c-0.831-0.672-1.604-1.212-2.321-1.623l0.565-0.728c0.83,0.485,1.603,1.028,2.322,1.624L98.854,47.385z"/>
			<path fill="#FFFFFF" d="M105.484,56.118c-0.492,0.485-1,0.728-1.529,0.728c-0.604,0-1.075-0.168-1.416-0.503
				c-0.904-0.896-1.357-2.016-1.357-3.359c0-1.642,0.584-3.042,1.754-4.199c1.283-1.268,2.849-1.904,4.699-1.904
				c1.659,0,2.961,0.468,3.904,1.4c1.057,1.044,1.586,2.276,1.586,3.694c0,1.531-0.491,2.781-1.471,3.751
				c-0.643,0.636-1.624,1.251-2.945,1.848l-1.188-1.176c1.32-0.41,2.359-0.988,3.114-1.735c0.717-0.709,1.075-1.568,1.075-2.576
				c0-1.194-0.396-2.183-1.189-2.966c-0.792-0.784-2.037-1.138-3.735-1.063l1.019,0.504c0.453,0.187,0.453,0.391,0,0.615
				C107.163,52.908,106.391,55.223,105.484,56.118z M103.956,49.512c-0.981,0.972-1.472,2.166-1.472,3.583
				c0,0.859,0.283,1.568,0.85,2.128c0.113,0.112,0.283,0.168,0.509,0.168c0.226,0,0.471-0.131,0.736-0.392
				c0.868-0.858,1.509-3.153,1.924-6.886C105.522,48.337,104.672,48.804,103.956,49.512z"/>
			<path fill="#FFFFFF" d="M125.246,50.016l-3.227,0.113c-0.227,3.172-1.717,5.674-4.472,7.5l-0.962-0.952
				c2.604-1.716,3.979-3.898,4.132-6.549l-4.019,0.111l-0.113-1.119l4.188-0.112v-3.135h1.189c0.414,0.076,0.452,0.224,0.113,0.448
				v2.688l4.471-0.168v3.471c0,1.829-0.168,3.117-0.509,3.862c-0.339,0.748-1.058,1.12-2.15,1.12h-1.358l-0.172-1.399
				c0.568,0.076,1.057,0.112,1.473,0.112c0.565,0,0.925-0.187,1.076-0.56c0.227-0.596,0.339-1.642,0.339-3.135V50.016z"/>
			<path fill="#FFFFFF" d="M133.066,56.174c4.717-1.082,7.189-3.563,7.416-7.445h-8.492v-1.23h8.604l0.793-0.169l0.623,0.56
				c-0.151,4.964-2.794,8.137-7.926,9.518L133.066,56.174z"/>
			<path fill="#FFFFFF" d="M152.093,51.023v4.423h4.132v1.063h-9.227v-1.063h3.961v-4.423h-3.169V49.96h7.472v1.063H152.093z"/>
		</g>
	</g>
	<path fill="#FFFFFF" d="M35.021,64.35c-2.124-0.709-4.246,0.604-5.547,1.697c-0.08-1.199-0.182-1.924-0.182-1.924
		c0-2.512-4.111-4.625-9.674-5.222c-0.368-0.739-1.842-4.224,2.197-5.597c4.53-1.54,10.333-4.341,7.927-11.48
		c-2.407-7.139-11.608-4.76-12.881-1.681c-1.275,3.082,0.847,6.162,4.245,5.882c0,0-2.548-4.9,0-4.479
		c2.549,0.419,5.569,4.338,2.29,7.138c-3.223,2.753-9.844,6.994-4.018,10.195c-0.953-0.093-1.947-0.145-2.969-0.145
		c-0.474,0-0.942,0.011-1.403,0.033c-0.418-0.169-2.417-1.164-0.632-4.313c1.98-3.501-2.69-7.118-4.532-6.219
		c0,0,4.105,3.139,2.619,4.679c-1.452,1.505,1.085,5.417,2.521,5.852C8.542,59.064,3.53,61.349,3.53,64.123
		c0,0-1.751,12.529,3.51,19.81c0,2.165,4.195,3.92,9.369,3.92c5.175,0,9.368-1.754,9.371-3.918l0.001-0.003
		c0.016-0.024,0.033-0.046,0.048-0.066c0.885-1.239,1.567-2.625,2.093-4.073C39.317,80.853,38.354,65.46,35.021,64.35z
		 M16.563,68.942c-6.002,0-10.868-1.94-10.868-4.334c0-2.395,4.866-4.335,10.868-4.335c6,0,10.866,1.94,10.866,4.335
		C27.429,67.002,22.563,68.942,16.563,68.942z"/>
</g>
</svg>
