<?xml version="1.0" encoding="utf-8"?>
<!-- Generator: Adobe Illustrator 15.1.0, SVG Export Plug-In . SVG Version: 6.00 Build 0)  -->
<!DOCTYPE svg PUBLIC "-//W3C//DTD SVG 1.1//EN" "http://www.w3.org/Graphics/SVG/1.1/DTD/svg11.dtd">
<svg version="1.1" id="レイヤー_1" xmlns="http://www.w3.org/2000/svg" xmlns:xlink="http://www.w3.org/1999/xlink" x="0px"
	 y="0px" width="190px" height="190px" viewBox="0 0 190 190" enable-background="new 0 0 190 190" xml:space="preserve">
<rect fill="none" width="190" height="190"/>
<g>
	<path fill="#FF8839" d="M118.885,178.673c-5.195-1.592-14.377-15.909-9.12-21.418c5.376-5.634-9.481-17.12-9.481-17.12
		c6.661-3.295,23.571,9.947,16.401,22.753c-6.458,11.521,0.777,15.166,2.293,15.785H118.885z"/>
	<path fill="#FF8839" d="M134.8,179.079c-21.084-11.711,2.873-27.23,14.542-37.305c11.865-10.244,0.936-24.592-8.29-26.124
		c-9.22-1.536,0,16.394,0,16.394c-12.296,1.024-19.973-10.25-15.362-21.525c4.608-11.267,37.91-19.972,46.618,6.152
		c8.711,26.124-12.293,36.378-28.691,42.012c-14.62,5.027-9.282,17.778-7.946,20.48C135.653,179.229,134.8,179.079,134.8,179.079z"
		/>
</g>
<g>
	<path fill="#FF8839" d="M71.891,89.067c1.517-0.62,8.752-4.264,2.293-15.785c-7.169-12.806,9.741-26.049,16.401-22.753
		c0,0-14.856,11.486-9.481,17.12c5.257,5.508-3.925,19.826-9.121,21.418H71.891z"/>
	<path fill="#FF8839" d="M55.2,89.558c1.334-2.702,6.673-15.453-7.947-20.48c-16.398-5.635-37.402-15.89-28.692-42.013
		C27.269,0.942,60.572,9.646,65.18,20.913c4.611,11.275-3.067,22.549-15.362,21.524c0,0,9.219-17.928,0-16.393
		c-9.227,1.531-20.155,15.879-8.292,26.123C53.196,62.243,77.154,77.761,56.07,89.472C56.07,89.472,55.216,89.623,55.2,89.558z"/>
</g>
</svg>
