<?xml version="1.0" encoding="utf-8"?>
<!-- Generator: Adobe Illustrator 24.1.2, SVG Export Plug-In . SVG Version: 6.00 Build 0)  -->
<svg version="1.1" id="レイヤー_1" xmlns="http://www.w3.org/2000/svg" xmlns:xlink="http://www.w3.org/1999/xlink" x="0px"
	 y="0px" viewBox="0 0 430 430" style="enable-background:new 0 0 430 430;" xml:space="preserve">
<style type="text/css">
	.st0{fill:#646464;}
	.st1{fill:#E0C580;}
	.st2{fill:#DCF0FF;}
	.st3{fill:#B29A5F;}
	.st4{fill:#8CAF93;}
</style>
<g>
	<g>
		<path class="st0" d="M165.08,380.07v-4.84h1.67v1.18c0.8,1.45,1.84,2.18,3.14,2.18c0.66,0,1.21-0.2,1.67-0.6
			c0.45-0.4,0.68-0.93,0.68-1.58c0-0.63-0.19-1.09-0.56-1.37c-0.37-0.28-1.07-0.55-2.1-0.83c-1.2-0.32-2.08-0.62-2.66-0.91
			c-0.58-0.28-1.03-0.69-1.38-1.22c-0.34-0.53-0.51-1.15-0.51-1.88c0-1.12,0.37-2.01,1.12-2.68c0.74-0.67,1.68-1,2.81-1
			c1.07,0,2.06,0.35,2.97,1.04v-0.89h1.63v4.05h-1.63v-0.93c-0.68-1.03-1.63-1.54-2.83-1.54c-0.73,0-1.29,0.17-1.68,0.5
			c-0.39,0.34-0.58,0.74-0.58,1.2c0,0.36,0.1,0.67,0.3,0.95c0.2,0.27,0.45,0.47,0.76,0.6c0.31,0.13,0.91,0.31,1.81,0.54
			c1.18,0.31,2.03,0.59,2.56,0.86c0.53,0.27,0.99,0.71,1.37,1.33c0.38,0.62,0.58,1.33,0.58,2.14c0,1.14-0.4,2.08-1.2,2.82
			c-0.8,0.74-1.8,1.11-2.98,1.11c-1.22,0-2.31-0.44-3.28-1.31v1.1H165.08z"/>
		<path class="st0" d="M178.87,378.45v-6.04h-1.44v-1.62h3.26v7.66h1.44v1.62h-4.7v-1.62H178.87z M178.61,367.63
			c0-0.29,0.1-0.55,0.31-0.77c0.21-0.22,0.47-0.33,0.79-0.33c0.3,0,0.56,0.11,0.78,0.32c0.22,0.21,0.33,0.47,0.33,0.78
			c0,0.31-0.11,0.57-0.33,0.78c-0.22,0.21-0.48,0.32-0.78,0.32c-0.31,0-0.57-0.11-0.78-0.33
			C178.72,368.19,178.61,367.93,178.61,367.63z"/>
		<path class="st0" d="M188.47,370.79v1.12c1.17-0.84,2.24-1.27,3.2-1.27c0.6,0,1.1,0.14,1.49,0.43c0.39,0.28,0.65,0.63,0.77,1.05
			c0.12,0.41,0.18,1.02,0.18,1.81v4.53h1.56v1.62h-3.39V374c0-0.7-0.11-1.16-0.32-1.38c-0.21-0.21-0.47-0.32-0.78-0.32
			c-0.81,0-1.72,0.39-2.73,1.18v4.97h1.6v1.62h-5.06v-1.62h1.63v-6.04h-1.63v-1.62H188.47z"/>
		<path class="st0" d="M207.21,370.79v3.51h-1.63c-0.08-0.67-0.36-1.19-0.82-1.54c-0.46-0.36-1-0.54-1.62-0.54
			c-0.82,0-1.48,0.29-2,0.87c-0.51,0.58-0.77,1.34-0.77,2.28c0,0.88,0.24,1.65,0.73,2.32c0.49,0.67,1.19,1,2.11,1
			c1.28,0,2.21-0.61,2.78-1.82l1.51,0.71c-0.83,1.85-2.29,2.77-4.36,2.77c-1.47,0-2.63-0.5-3.47-1.51c-0.84-1-1.27-2.16-1.27-3.47
			c0-1.4,0.46-2.56,1.38-3.47c0.92-0.91,1.98-1.37,3.18-1.37c1.03,0,1.9,0.3,2.61,0.91v-0.65H207.21z"/>
		<path class="st0" d="M220.45,375.89h-7.81c0.12,0.86,0.45,1.55,1.02,2.08c0.56,0.53,1.28,0.8,2.16,0.8c1.27,0,2.28-0.51,3.02-1.53
			l1.61,0.71c-0.52,0.81-1.21,1.41-2.04,1.81c-0.84,0.39-1.71,0.59-2.63,0.59c-1.42,0-2.63-0.44-3.64-1.33
			c-1.01-0.89-1.51-2.08-1.51-3.58c0-1.43,0.49-2.6,1.47-3.52c0.98-0.92,2.11-1.38,3.38-1.38c1.25,0,2.38,0.45,3.39,1.35
			C219.88,372.77,220.41,374.11,220.45,375.89z M218.57,374.57c-0.13-0.65-0.47-1.24-1.02-1.77c-0.55-0.53-1.22-0.79-2.02-0.79
			c-0.73,0-1.35,0.24-1.87,0.71c-0.52,0.48-0.83,1.09-0.95,1.85H218.57z"/>
		<path class="st0" d="M239.46,375.3l-0.12,4.77h-8.53c0-0.92,0.16-1.8,0.49-2.64c0.33-0.84,0.79-1.57,1.39-2.2
			c0.6-0.63,1.51-1.39,2.74-2.28c0.77-0.57,1.3-1.04,1.58-1.42c0.28-0.38,0.41-0.82,0.41-1.33c0-0.62-0.19-1.13-0.59-1.52
			c-0.39-0.39-0.93-0.59-1.61-0.59c-0.8,0-1.38,0.22-1.76,0.67c-0.37,0.45-0.56,1.18-0.56,2.21c0,0.26,0.01,0.5,0.02,0.73h-1.77
			c-0.01-0.23-0.01-0.42-0.01-0.57c0-1.45,0.34-2.58,1.03-3.39c0.68-0.82,1.69-1.22,3.01-1.22c1.34,0,2.36,0.35,3.07,1.05
			c0.71,0.7,1.07,1.55,1.07,2.57c0,0.85-0.23,1.58-0.7,2.18c-0.47,0.6-1.36,1.37-2.68,2.29c-1.28,0.91-2.12,1.65-2.52,2.22
			c-0.4,0.57-0.63,1.07-0.7,1.52h5.03l0.08-3.03H239.46z"/>
		<path class="st0" d="M243.32,373.4c0-2.2,0.41-3.9,1.24-5.09c0.83-1.2,1.96-1.79,3.39-1.79c1.48,0,2.63,0.62,3.42,1.86
			c0.8,1.24,1.2,2.92,1.2,5.03c0,2.19-0.41,3.88-1.24,5.08c-0.82,1.2-1.95,1.8-3.39,1.8c-1.5,0-2.64-0.62-3.44-1.87
			C243.72,377.17,243.32,375.5,243.32,373.4z M245.28,373.4c0,1.91,0.23,3.27,0.69,4.09c0.46,0.82,1.12,1.23,1.99,1.23
			s1.53-0.41,1.99-1.24c0.46-0.82,0.69-2.19,0.69-4.09c0-1.93-0.23-3.3-0.7-4.11c-0.47-0.81-1.13-1.22-1.98-1.22
			c-0.96,0-1.65,0.46-2.06,1.39C245.48,370.38,245.28,371.7,245.28,373.4z"/>
		<path class="st0" d="M264.68,375.3l-0.12,4.77h-8.53c0-0.92,0.16-1.8,0.49-2.64c0.33-0.84,0.79-1.57,1.39-2.2
			c0.6-0.63,1.51-1.39,2.74-2.28c0.77-0.57,1.3-1.04,1.58-1.42c0.28-0.38,0.41-0.82,0.41-1.33c0-0.62-0.19-1.13-0.59-1.52
			c-0.39-0.39-0.93-0.59-1.61-0.59c-0.8,0-1.38,0.22-1.76,0.67c-0.37,0.45-0.56,1.18-0.56,2.21c0,0.26,0.01,0.5,0.02,0.73h-1.77
			c-0.01-0.23-0.01-0.42-0.01-0.57c0-1.45,0.34-2.58,1.03-3.39c0.68-0.82,1.69-1.22,3.01-1.22c1.34,0,2.36,0.35,3.07,1.05
			c0.71,0.7,1.07,1.55,1.07,2.57c0,0.85-0.23,1.58-0.7,2.18c-0.47,0.6-1.36,1.37-2.68,2.29c-1.28,0.91-2.12,1.65-2.52,2.22
			c-0.4,0.57-0.63,1.07-0.7,1.52h5.03l0.08-3.03H264.68z"/>
		<path class="st0" d="M272.51,378.45v-10.1h-1.82v-1.6h3.65v11.7h1.74v1.62h-5.38v-1.62H272.51z"/>
	</g>
	<g>
		<g>
			<path class="st0" d="M75.6,345.22v-46.25h-7.69v-7.42h16.03V315c5.01-4.04,9.77-6.06,14.27-6.06c2.81,0,5.12,0.59,6.94,1.76
				c1.82,1.17,3.05,2.72,3.71,4.63c0.66,1.92,0.99,4.72,0.99,8.41v21.48h7.25v7.42h-15.59v-26c0-3.22-0.1-5.37-0.31-6.46
				c-0.21-1.08-0.77-1.98-1.69-2.68c-0.92-0.7-2.01-1.05-3.27-1.05c-3.22,0-7.32,1.83-12.3,5.49v23.28h7.38v7.42H67.92v-7.42H75.6z"
				/>
			<path class="st0" d="M174.86,333.49h-35.75c0.53,3.92,2.08,7.1,4.66,9.53c2.58,2.43,5.87,3.65,9.88,3.65
				c5.83,0,10.44-2.34,13.84-7.03l7.38,3.25c-2.4,3.72-5.52,6.48-9.36,8.28c-3.84,1.8-7.85,2.7-12.03,2.7
				c-6.5,0-12.06-2.03-16.67-6.08c-4.61-4.06-6.92-9.52-6.92-16.4c0-6.53,2.25-11.9,6.74-16.12c4.49-4.22,9.66-6.32,15.48-6.32
				c5.71,0,10.89,2.06,15.53,6.17C172.27,319.23,174.68,325.35,174.86,333.49z M166.25,327.43c-0.59-2.99-2.14-5.69-4.66-8.1
				c-2.52-2.42-5.61-3.62-9.27-3.62c-3.34,0-6.19,1.09-8.56,3.27c-2.37,2.18-3.82,5-4.35,8.45H166.25z"/>
			<path class="st0" d="M236.96,345.22v7.42h-15.68v-4.88c-4.89,3.72-9.57,5.58-14.06,5.58c-2.84,0-5.19-0.62-7.05-1.87
				c-1.86-1.24-3.1-2.85-3.71-4.83c-0.61-1.98-0.92-5.16-0.92-9.55v-19.55h-6.02v-7.42h14.36v25.91c0,3.13,0.09,5.24,0.26,6.32
				c0.18,1.08,0.69,1.98,1.54,2.68c0.85,0.7,1.92,1.05,3.21,1.05c3.87,0,7.99-1.84,12.39-5.53v-23.01h-7.51v-7.42h15.86v35.09
				H236.96z"/>
			<path class="st0" d="M257.37,345.22v-27.67h-8.56v-7.42h15.24v9.58c0.94-2.49,2.24-4.55,3.91-6.19c1.67-1.64,3.43-2.72,5.29-3.25
				c1.86-0.53,4.4-0.79,7.62-0.79h2.2v8.43h-1.67c-4.25,0-7.42,0.42-9.51,1.27c-2.09,0.85-3.65,2.39-4.66,4.63
				c-1.01,2.24-1.52,6.26-1.52,12.06v9.36h9.27v7.42h-26.18v-7.42H257.37z"/>
			<path class="st0" d="M302.86,345.22v-27.67h-6.59v-7.42h14.93v35.09h6.59v7.42h-21.52v-7.42H302.86z M301.68,295.68
				c0-1.35,0.48-2.52,1.43-3.51c0.95-1,2.16-1.49,3.62-1.49c1.38,0,2.56,0.48,3.56,1.45c0.99,0.97,1.49,2.15,1.49,3.56
				c0,1.41-0.5,2.6-1.49,3.58c-1,0.98-2.18,1.47-3.56,1.47c-1.41,0-2.6-0.5-3.58-1.49C302.17,298.24,301.68,297.05,301.68,295.68z"
				/>
			<path class="st0" d="M332.28,352.64v-14.58h7.47v1.41c0.26,1.99,1.34,3.63,3.23,4.92c1.89,1.29,4.12,1.93,6.7,1.93
				c2.69,0,4.85-0.47,6.46-1.41c1.61-0.94,2.42-2.24,2.42-3.91c0-1.61-0.67-2.8-2-3.56c-1.33-0.76-3.98-1.46-7.93-2.1
				c-5.86-0.99-10.04-2.59-12.54-4.8c-2.5-2.21-3.75-5.08-3.75-8.59c0-3.55,1.36-6.51,4.08-8.9c2.72-2.39,6.31-3.58,10.76-3.58
				c4.01,0,7.47,0.83,10.37,2.48v-1.82h7.42v14.1h-7.42v-2.59c-2.26-3.48-5.53-5.23-9.84-5.23c-2.2,0-4,0.48-5.42,1.43
				c-1.42,0.95-2.13,2.22-2.13,3.8c0,1.61,0.65,2.72,1.95,3.32c1.3,0.6,4.11,1.24,8.41,1.91c4.13,0.64,7.25,1.39,9.36,2.26
				c2.11,0.86,3.86,2.3,5.25,4.31c1.39,2.01,2.09,4.34,2.09,7.01c0,3.95-1.52,7.1-4.55,9.42c-3.03,2.33-6.96,3.49-11.79,3.49
				c-4.54,0-8.24-1.03-11.11-3.09v2.39H332.28z"/>
		</g>
	</g>
	<g>
		<path class="st1" d="M261.8,61.17c-2.37,7.31-8.7,14.62-11.16,23.34c-2.31,8.21-1.93,17.39-3.65,25.48
			c-1.97,9.28-3.65,18.22-3.93,25.45c13.59-1.69,7.86-8.76,20.61-18.26c6.6-4.91,14.72-9.75,23.31-14.39
			c7.9-4.27,15.94-9.7,24.75-12.17c6.08-1.71,12.59-2.96,18.99-3.31c-2.89-8.1-6.73-15.99-12.5-21.89
			c-6.02-6.16-14.85-9.59-23-13.72c-7.67-3.89-15.94-7.2-24.69-9.48c-2.01-0.53-4.05-0.93-6.1-1.25
			C261.5,46.24,265.45,49.96,261.8,61.17z"/>
		<path class="st2" d="M152.32,193.43c4.11-6.13,10.91-11.45,18.04-18.23c5.53-5.26,12.53-11.67,20.29-17.18
			c-2.51-13.85-10.77-4.2-28.68-4.97c-7.81-0.34-16.99,1.1-27.86,2.9c-5.99,0.99-12.96,0.51-20.13,1.43
			c0.15,3.17,0.34,6.41,0.57,9.76c0.53,7.96,1.22,15.46,3.8,22.9c2.59,7.44,5.1,14.87,9.61,21.45c3.52,5.13,8.11,9.32,12.92,13.49
			c0.55-2,1.24-4.5,2.03-7.78C144.55,210.43,146.55,202.02,152.32,193.43z"/>
		<path class="st2" d="M126.35,141.52c5.99-2.35,12.89-5.8,22.5-6.95c6.9-0.83,14.65,0.67,23.72,1.02
			c7.2,0.28,13.58-3.69,22.28-2.41c-3.33-5.4-4.51-12.43-8.46-22.54c-3.08-7.87-7.26-16.14-9.59-24.92
			c-2.41-9.05-6.15-17.97-6.72-26.16c-0.44-6.51,1.19-11.97,3.57-16.51c-2.97,1.18-5.58,2.46-7.76,3.77
			c-7.05,4.74-12.53,10.46-17.94,15.1c-6.49,5.55-11.99,10.94-16.46,16.49c-5.23,6.52-7.82,13.69-10.78,20.46
			c-3.15,7.2-8.55,13.69-9.76,21.48c-1.14,7.38,2.62,15.39,2.65,23.58c0,1.89,0.04,3.79,0.09,5.71
			C115.94,147.23,116.94,145.22,126.35,141.52z"/>
		<path class="st2" d="M215.69,217.33c-1.38-6.46-2.09-13.54-2.58-21.74c-0.4-6.78-2.47-13.87-1.97-21.88
			c-13.91-1.77-11.41,5.51-23.21,15.71c-6.67,5.77-13.82,12.93-19.64,20.31c-6.25,7.95-12.62,16.87-13.87,25.26
			c-0.12,0.84-0.25,1.65-0.37,2.44c2.58,2.44,5.33,4.7,8.54,6.33c6.81,3.47,14.51,6.49,22.48,8.53c7.35,1.88,15.6,0.91,23.87,1.39
			c5.81,0.34,11.79,0.41,18.01,0.02c-1.92-3.59-0.49-6.27-4.53-15.63C219.97,232.41,217.51,225.79,215.69,217.33z"/>
		<path class="st2" d="M188.54,60.27c1.39,7.27,3.75,15.78,6.56,23.93c2.74,7.95,7.01,15.56,10.03,22.54
			c4.48,10.33,10.27,18.54,12.5,21.86c5.67-12.12,2.09-11.3,5.68-26.28c1.9-7.9,3.8-16.89,6.95-25.75
			c3.05-8.52,3.68-18.6,8.05-25.97c2.44-4.12,5.42-7.98,8.64-11.34c-0.89-0.08-1.79-0.16-2.67-0.25c-8.99-0.91-17.74-0.77-26.3-0.49
			c-9.2,0.29-18.22-1.86-26.04-0.59C188.32,41.96,186.63,50.33,188.54,60.27z"/>
		<path class="st1" d="M293.99,183.55c-6.93-3.43-14.82-7.1-25.8-8.83c-8.11-1.28-17.4-3.98-28.01-3.39
			c-9.73,10.01-1.22,12.58-2.36,28.07c-0.65,8.81-3.57,18.72-3.24,27.96c0.36,9.84,5.3,17.88,8.63,24.1
			c5.16-1.17,10.19-2.79,15.06-4.91c8.11-3.54,16.91-6.66,24.01-12.27c6.91-5.46,13.36-12.18,19.16-19.13
			c5.67-6.81,10.4-14.71,14.85-22.52c0.25-0.46,0.49-0.91,0.73-1.37C313.29,186.67,305.99,189.47,293.99,183.55z"/>
		<path class="st1" d="M291.62,117.64c-6.07,3.95-11.77,9.43-18.28,15.34c-5.5,4.97-10.99,8.93-16.53,15.56
			c6.84,10.55,10.37,1.54,23.46,6.59c7.29,2.81,14.24,8.45,21.26,13.45c6.54,4.65,14.44,8.82,18.41,15.57
			c1.86-5.57,3.1-11.4,5.09-16.86c3.1-8.5,7.73-16.47,9.21-25.12c1.56-9.02-0.15-18.02-0.53-26.7c-0.21-4.73-0.12-9.44-0.35-14.02
			c-9.2,0.83-7.72-0.02-20.54,5.26C306.58,109.29,299.35,112.62,291.62,117.64z"/>
	</g>
	<g>
		<path class="st3" d="M51.85,364.59c0.05-0.83-0.12-1.63-0.38-2.38c-0.27-0.76-0.63-1.48-1.05-2.17c-0.84-1.36-1.86-2.62-2.98-3.77
			c-0.56-0.57-1.14-1.13-1.74-1.65c-0.61-0.51-1.24-0.99-1.89-1.4c-1.31-0.8-2.79-1.32-4.33-1.69c-1.55-0.36-3.15-0.58-4.79-0.9
			c-1.62-0.31-3.3-0.71-4.91-1.43c-0.4-0.19-0.8-0.38-1.19-0.62l-0.26-0.15l-0.29-0.18c-0.18-0.11-0.36-0.24-0.54-0.36
			c-0.71-0.5-1.38-1.06-2.01-1.65c-1.26-1.19-2.33-2.53-3.28-3.93c-0.94-1.42-1.77-2.88-2.51-4.37c-0.73-1.49-1.4-3.01-2.04-4.53
			l-0.93-2.29l-0.45-1.14c-0.16-0.37-0.31-0.79-0.45-1.19c-0.28-0.81-0.5-1.64-0.69-2.46c-0.17-0.82-0.31-1.67-0.41-2.49
			c-0.19-1.68-0.25-3.34-0.24-4.99c0.01-1.65,0.06-3.28,0.09-4.91c0.07-3.25-0.02-6.51-0.85-9.7c0.32,0.76,0.58,1.54,0.8,2.34
			c0.22,0.8,0.39,1.61,0.54,2.42c0.3,1.62,0.43,3.28,0.54,4.93c0.11,1.63,0.15,3.28,0.26,4.89c0.11,1.62,0.22,3.23,0.5,4.8
			c0.27,1.57,0.65,3.1,1.21,4.56c0.15,0.37,0.29,0.71,0.45,1.09l0.49,1.13l0.98,2.24c0.65,1.48,1.33,2.95,2.06,4.38
			c0.72,1.43,1.51,2.82,2.39,4.12c0.88,1.32,1.86,2.55,2.97,3.62c0.55,0.54,1.14,1.04,1.76,1.48c0.15,0.12,0.31,0.23,0.47,0.33
			l0.23,0.15l0.26,0.16c0.31,0.18,0.66,0.37,1,0.53c1.36,0.66,2.88,1.08,4.44,1.43c1.58,0.35,3.2,0.66,4.82,1.13
			c1.62,0.48,3.25,1.11,4.68,2.13c0.7,0.49,1.34,1.07,1.94,1.65c0.59,0.59,1.17,1.19,1.7,1.84c1.05,1.29,2.01,2.67,2.72,4.19
			c0.36,0.75,0.66,1.53,0.85,2.35C51.94,362.94,52.02,363.79,51.85,364.59z"/>
		<path class="st4" d="M10.25,302.45c2.72,2.34,4.14,5.17,3.15,6.31c-0.98,1.15-3.99,0.16-6.71-2.18c-2.72-2.35-5.29-8.16-5.29-8.16
			S7.53,300.1,10.25,302.45z"/>
		<path class="st4" d="M24.87,320.13c-1.03,3.43-3.02,5.89-4.45,5.46c-1.44-0.42-1.78-3.57-0.77-7.01c1.03-3.44,5.26-8.16,5.26-8.16
			S25.89,316.68,24.87,320.13z"/>
		<path class="st4" d="M19.53,300.52c-1.03,3.44-3.03,5.88-4.47,5.46c-1.44-0.43-1.78-3.57-0.76-7.01c1.02-3.45,5.27-8.17,5.27-8.17
			S20.54,297.07,19.53,300.52z"/>
		<path class="st4" d="M31.15,334.93c-1.03,3.45-3.01,5.9-4.46,5.47c-1.44-0.43-1.78-3.56-0.76-7.01c1.02-3.44,5.25-8.16,5.25-8.16
			S32.17,331.5,31.15,334.93z"/>
		<path class="st4" d="M18.27,344.92c3.59,0.02,6.5,1.24,6.49,2.75c0,1.5-2.92,2.7-6.51,2.68c-3.59,0-9.32-2.74-9.32-2.74
			S14.68,344.9,18.27,344.92z"/>
		<path class="st4" d="M9.92,323.25c3.27,1.48,5.44,3.78,4.81,5.15c-0.62,1.37-3.77,1.29-7.04-0.18c-3.28-1.48-7.38-6.32-7.38-6.32
			S6.64,321.77,9.92,323.25z"/>
		<path class="st4" d="M31.42,353.14c3.13-1.78,6.26-2.15,7-0.85c0.74,1.3-1.19,3.8-4.32,5.58c-3.12,1.77-9.46,2.23-9.46,2.23
			S28.29,354.9,31.42,353.14z"/>
		<path class="st3" d="M378.74,364.59c-0.17-0.81-0.1-1.65,0.08-2.47c0.18-0.82,0.48-1.6,0.84-2.35c0.74-1.51,1.68-2.9,2.73-4.19
			c0.54-0.65,1.1-1.25,1.7-1.84c0.6-0.59,1.24-1.16,1.96-1.65c1.42-1.01,3.04-1.65,4.65-2.13c1.64-0.47,3.25-0.78,4.82-1.13
			c1.57-0.36,3.09-0.77,4.44-1.43c0.34-0.16,0.68-0.35,0.99-0.53l0.25-0.16l0.23-0.15c0.17-0.1,0.31-0.2,0.48-0.33
			c0.62-0.44,1.21-0.94,1.76-1.48c1.11-1.07,2.09-2.3,2.96-3.62c0.88-1.29,1.67-2.68,2.4-4.12c0.73-1.43,1.4-2.9,2.05-4.38
			l0.98-2.24l0.49-1.13c0.17-0.38,0.31-0.72,0.45-1.09c0.56-1.46,0.94-2.99,1.21-4.56c0.27-1.56,0.39-3.17,0.5-4.8
			c0.1-1.61,0.15-3.26,0.25-4.89c0.12-1.65,0.25-3.3,0.55-4.93c0.15-0.81,0.32-1.62,0.54-2.42c0.23-0.8,0.49-1.58,0.81-2.34
			c-0.84,3.18-0.93,6.44-0.87,9.7c0.03,1.63,0.08,3.27,0.1,4.91c0.01,1.65-0.07,3.31-0.26,4.99c-0.08,0.83-0.23,1.67-0.41,2.49
			c-0.18,0.82-0.4,1.66-0.69,2.46c-0.13,0.4-0.29,0.82-0.45,1.19l-0.46,1.14l-0.94,2.29c-0.63,1.52-1.3,3.04-2.03,4.53
			c-0.74,1.49-1.56,2.95-2.51,4.37c-0.95,1.4-2.03,2.74-3.28,3.93c-0.63,0.6-1.3,1.15-2.01,1.65c-0.18,0.13-0.36,0.25-0.55,0.36
			l-0.28,0.18l-0.27,0.15c-0.39,0.23-0.78,0.43-1.17,0.62c-1.62,0.72-3.29,1.13-4.93,1.43c-1.63,0.31-3.23,0.53-4.77,0.9
			c-1.54,0.37-3.02,0.9-4.33,1.69c-0.66,0.4-1.29,0.89-1.9,1.4c-0.6,0.52-1.17,1.07-1.74,1.65c-1.13,1.15-2.15,2.41-2.99,3.77
			c-0.4,0.69-0.78,1.41-1.03,2.17C378.86,362.96,378.68,363.77,378.74,364.59z"/>
		<path class="st4" d="M420.35,302.45c-2.73,2.34-4.13,5.17-3.16,6.31c0.99,1.15,3.99,0.16,6.71-2.18c2.73-2.35,5.27-8.16,5.27-8.16
			S423.06,300.1,420.35,302.45z"/>
		<path class="st4" d="M405.72,320.13c1.02,3.43,3.02,5.89,4.46,5.46c1.45-0.42,1.79-3.57,0.77-7.01c-1.02-3.44-5.27-8.16-5.27-8.16
			S404.7,316.68,405.72,320.13z"/>
		<path class="st4" d="M411.07,300.52c1.02,3.44,3.02,5.88,4.46,5.46c1.43-0.43,1.78-3.57,0.76-7.01c-1.02-3.45-5.26-8.17-5.26-8.17
			S410.06,297.07,411.07,300.52z"/>
		<path class="st4" d="M399.44,334.93c1.03,3.45,3.03,5.9,4.47,5.47c1.45-0.43,1.78-3.56,0.76-7.01c-1.02-3.44-5.26-8.16-5.26-8.16
			S398.43,331.5,399.44,334.93z"/>
		<path class="st4" d="M412.32,344.92c-3.6,0.02-6.5,1.24-6.5,2.75c0.01,1.5,2.93,2.7,6.52,2.68c3.59,0,9.31-2.74,9.31-2.74
			S415.92,344.9,412.32,344.92z"/>
		<path class="st4" d="M420.67,323.25c-3.27,1.48-5.43,3.78-4.81,5.15c0.62,1.37,3.78,1.29,7.05-0.18c3.28-1.48,7.39-6.32,7.39-6.32
			S423.96,321.77,420.67,323.25z"/>
		<path class="st4" d="M399.18,353.14c-3.13-1.78-6.26-2.15-7-0.85c-0.74,1.3,1.18,3.8,4.32,5.58c3.11,1.77,9.45,2.23,9.45,2.23
			S402.29,354.9,399.18,353.14z"/>
	</g>
</g>
</svg>
