<?xml version="1.0" encoding="utf-8"?>
<!-- Generator: Adobe Illustrator 24.1.2, SVG Export Plug-In . SVG Version: 6.00 Build 0)  -->
<svg version="1.1" xmlns="http://www.w3.org/2000/svg" xmlns:xlink="http://www.w3.org/1999/xlink" x="0px" y="0px"
	 viewBox="0 0 840 1136.37" style="enable-background:new 0 0 840 1136.37;" xml:space="preserve">
<style type="text/css">
	.st0{display:none;}
	.st1{display:inline;fill:#FFFFFF;}
	.st2{display:inline;}
	.st3{fill:#FFFFFF;}
	.st4{fill:#E0C580;}
	.st5{fill:#D7AFFF;}
	.st6{fill:#DCF0FF;}
	.st7{fill:none;stroke:#D7AFFF;stroke-width:4.6066;stroke-miterlimit:10;}
	.st8{fill:none;stroke:#000000;stroke-width:30;stroke-miterlimit:10;}
	.st9{fill:none;}
	.st10{fill:#646464;}
	.st11{fill:#D6B0FF;}
	.st12{fill:#E1C87D;}
	.st13{display:inline;fill:none;stroke:#FFFFFF;stroke-width:42;stroke-linecap:round;stroke-miterlimit:10;}
	.st14{display:inline;fill:none;stroke:#FFFFFF;stroke-miterlimit:10;}
	.st15{fill:url(#SVGID_1_);}
	.st16{fill:url(#SVGID_2_);}
	.st17{fill:url(#SVGID_3_);}
	.st18{fill:url(#SVGID_4_);}
	.st19{fill:url(#SVGID_5_);}
	.st20{fill:url(#SVGID_6_);}
	.st21{fill:url(#SVGID_7_);}
</style>
<g id="没と素材" class="st0">
	<path class="st1" d="M-1176.91,471.17c-16.84-27.35-48.99-114.35-26.86-141.09c22.13-26.73,44.59-4.05,44.59-4.05
		s-2.06-7.15-22.42,7.96c-20.36,15.11,22.5,111.81,33.13,127.61c0,0,14.17-107.42,57.81-133.31c43.63-25.89,24.55,5.7,24.55,5.7
		l-10.52,0c0,0-33.8,91-35.57,137.22c0,0,69.13-69.89,133.84-63.69c64.7,6.2,0,13.29,0,13.29l-5.09,0.89
		c0,0-56.99,4.32-111.05,69.02c0,0,67.97,11.58,87.62,51.49c19.66,39.91,4.59,27.45,4.59,27.45l-11.52,1.84l4.43-12.42
		c0,0-26.59-41.66-106.36-37.23c0,0-13.29,85.31,1.77,115.34c15.07,30.02-13.3,4.32-13.3,4.32s-34.32-34.17-29.25-117
		c0,0-69.13,44.32-75.34,85.98c-6.2,41.65-19.5,9.71-19.5,9.71s-23.93-54.03,64.7-116.96c0,0-41.66-19.85-115.22,4.7
		c-73.57,24.55-29.25-36.56-29.25-36.56l15.07,23.8h13.29C-1302.76,495.18-1277.76,456.35-1176.91,471.17z"/>
	<g class="st2">
		<g>
			<g>
				<path d="M-1281.3,1024.11c8.39-5.03,21.34-9.72,36.22-12.53c11.36-2.14,24.58,1.12,38.05,0.7c12.21-0.39,24.68-0.6,37.49,0.71
					c12.54,1.28,25.32,1.41,37.42,4.57c12.49,3.26,24.26,7.98,35.2,13.52c11.63,5.88,24.22,10.78,32.8,19.56
					c8.77,8.97,14.41,21.16,18.61,33.5c3.98,11.72,2.91,24.71,3.48,37.83c0.54,12.37,2.98,25.2,0.76,38.07
					c-2.12,12.33-8.73,23.69-13.14,35.82c-4.33,11.9-6.17,25.05-12.47,36.14c-6.32,11.13-13.08,22.4-21.16,32.11
					c-8.26,9.91-17.46,19.49-27.32,27.27c-10.13,8-22.68,12.45-34.23,17.49c-11.64,5.08-23.85,8.15-36.67,9.51
					c-11.76,1.25-22.91,1.27-33.67,0.64c-11.78-0.69-23.55,0.7-34.03-1.98c-11.36-2.91-22.34-7.21-32.04-12.15
					c-10.36-5.27-17.42-15.08-25.73-22.27c-8.7-7.52-17.36-14.58-23.65-23.74c-6.43-9.38-10.01-19.96-13.7-30.58
					c-3.7-10.62-4.68-21.31-5.43-32.66c-0.78-11.73-1.3-22.57-1.34-33.07c-0.04-11.67-5.41-23.11-3.78-33.62
					c1.72-11.11,9.43-20.38,13.92-30.63c4.22-9.65,7.91-19.88,15.37-29.17c6.37-7.92,14.22-15.6,23.47-23.52
					C-1299.15,1039.03-1291.34,1030.87-1281.3,1024.11z"/>
			</g>
			<g>
				<path class="st3" d="M-1240.01,1147.25c-4.75-7.71-6.43-17.73-12.07-32.14c-4.39-11.22-10.34-23.01-13.67-35.54
					c-3.43-12.89-8.77-25.61-9.57-37.29c-1.06-15.41,6.04-26.7,12.64-34.67c22.69-27.41,20.64-20.02,41.59-4.17
					c10.48,7.93-0.31-9.24-21.19,6.25c-6.44,4.78-9.75,17.8-6.73,33.61c1.98,10.36,5.34,22.49,9.35,34.11
					c3.91,11.34,10,22.19,14.31,32.14c6.38,14.73,14.64,26.44,17.82,31.17c8.08-17.29,2.98-16.11,8.1-37.48
					c2.7-11.27,5.42-24.09,9.92-36.7c4.33-12.15,5.24-26.52,11.48-37.03c7.12-12.01,17.42-22.52,27.35-28.41
					c44.74-26.55,41.14-10.44,25,6.78c-3.69,3.93-5.36-2.32-9.39,1.25c-13.64,12.09-2.9,15.23-9.46,35.43
					c-3.38,10.42-12.41,20.83-15.91,33.27c-3.3,11.71-2.76,24.8-5.21,36.34c-2.81,13.23-5.21,25.97-5.6,36.28
					c19.38-2.42,11.21-12.5,29.39-26.04c9.41-7,20.98-13.91,33.23-20.52c11.27-6.08,22.74-13.82,35.29-17.35
					c12.68-3.56,26.64-5.74,39.53-4.5c22.48,2.16,25.66,6.71,25.41,8.76c-0.48,3.99-10.39,5.61-25.7,7.44
					c-2.63,0.31-2.33,3.13-4.96,3.41c-17.03,1.76-12.97-0.29-32.71,7.84c-8.93,3.68-19.23,8.43-30.25,15.59
					c-8.66,5.63-16.78,13.44-26.07,21.86c-7.83,7.1-15.66,12.74-23.55,22.18c9.74,15.05,14.77,2.2,33.44,9.4
					c10.39,4.01,20.29,12.05,30.31,19.18c9.87,7.02,21.94,13.25,27.19,23.92c20.16,40.93,19.16,37.16,1.77,30.21
					c-5.56-2.22-8.22,6.11-11.55,1.14c-3.76-5.62,9.24-6.66,8.19-13.34c-3.12-19.77-14.04-9.56-36.36-20.6
					c-9.89-4.89-21.13-10.11-36.79-12.58c-11.56-1.82-24.81-5.67-39.93-4.83c-13.89,14.27-1.74,17.94-3.38,40.02
					c-0.93,12.57-5.1,26.69-4.61,39.86c0.56,15.46,9.09,27.85,13.71,37.04c15.45,30.78-5.1,20.07-18.49,7.67
					c-11.6-10.75-4.56-10.95-12.55-29.44c-3.49-8.07-6.99-17.51-9.59-29.57c-1.98-9.21-2.98-19.3-3.69-30.99
					c-0.58-9.66-3.52-19.76-2.82-31.2c-19.83-2.52-16.26,7.86-33.08,22.4c-9.51,8.23-19.71,18.42-28,28.95
					c-8.92,11.33-18.01,24.05-19.79,36c-6.36,42.71-8.48,29.85-16.63,10.62c-7.14-16.83-5.12-13.9,0.23-35.98
					c2.33-9.65,5.19-21.64,13.41-33.89c5.87-8.75,15.56-16.33,25.72-25.99c7.9-7.5,17.87-16.63,28.94-24.49
					c-3.59-19.76-15.35-5.99-40.9-7.09c-11.13-0.48-24.22,1.56-39.71,4.13c-11.78,1.95-26.21-0.11-40.36,4.62
					c-24.71,8.25-35.51,10.75-40.12,5.48c-9.47-10.84-10.1-37.7,11.23-39.82c14.47-1.44,5.67,14.33,16.76,23.74
					c5.2,4.41,7.64,7.14,13.68,3.97c15.12-7.92,6.73-10.28,27.73-18.53c8.54-3.36,18.37-8.27,32.07-9.91
					c9.84-1.18,20.89,0.95,33.83,1.45C-1261.51,1151.08-1252.43,1145.43-1240.01,1147.25z"/>
			</g>
		</g>
	</g>
	<g class="st2">
		<path class="st4" d="M211.45,2035.58c-3.38,10.42-12.41,20.83-15.91,33.27c-3.3,11.71-2.76,24.8-5.21,36.34
			c-2.81,13.23-5.21,25.97-5.6,36.28c19.38-2.42,11.21-12.5,29.39-26.03c9.41-7,20.98-13.91,33.23-20.52
			c11.27-6.08,22.74-13.82,35.29-17.35c8.67-2.43,17.95-4.22,27.06-4.71c-4.11-11.55-9.59-22.8-17.81-31.21
			c-8.58-8.78-21.18-13.68-32.8-19.56c-10.94-5.54-22.71-10.26-35.2-13.52c-2.87-0.75-5.77-1.32-8.7-1.79
			C211.01,2014.28,216.64,2019.59,211.45,2035.58z"/>
		<path class="st5" d="M55.34,2224.14c5.87-8.75,15.56-16.33,25.72-25.99c7.9-7.5,17.87-16.63,28.94-24.49
			c-3.59-19.76-15.35-5.99-40.9-7.09c-11.13-0.48-24.22,1.56-39.71,4.13c-8.55,1.42-18.49,0.73-28.71,2.05
			c0.22,4.52,0.49,9.14,0.81,13.91c0.75,11.35,1.73,22.04,5.43,32.66c3.69,10.61,7.27,21.19,13.7,30.58
			c5.02,7.32,11.56,13.29,18.42,19.24c0.78-2.86,1.76-6.41,2.89-11.09C44.27,2248.39,47.13,2236.39,55.34,2224.14z"/>
		<path class="st6" d="M18.32,2150.14c8.54-3.36,18.37-8.27,32.07-9.91c9.84-1.18,20.89,0.95,33.83,1.45
			c10.26,0.4,19.35-5.25,31.77-3.43c-4.75-7.71-6.43-17.73-12.07-32.14c-4.39-11.22-10.34-23.01-13.67-35.54
			c-3.43-12.9-8.77-25.61-9.57-37.29c-0.64-9.29,1.7-17.07,5.09-23.54c-4.22,1.69-7.96,3.51-11.06,5.37
			c-10.04,6.75-17.85,14.91-25.58,21.53c-9.25,7.92-17.1,15.59-23.47,23.52c-7.46,9.29-11.16,19.52-15.37,29.17
			c-4.48,10.26-12.19,19.53-13.91,30.63c-1.63,10.51,3.75,21.95,3.78,33.62c0.01,2.69,0.05,5.4,0.12,8.14
			C3.49,2158.28,4.92,2155.41,18.32,2150.14z"/>
		<path class="st6" d="M145.71,2258.22c-1.98-9.21-2.98-19.3-3.69-30.99c-0.58-9.66-3.52-19.76-2.82-31.2
			c-19.83-2.52-16.26,7.86-33.08,22.4c-9.51,8.23-19.71,18.42-28,28.95c-8.92,11.33-18.01,24.05-19.79,36
			c-0.18,1.21-0.36,2.37-0.53,3.49c3.68,3.48,7.61,6.7,12.19,9.02c9.71,4.94,20.68,9.24,32.04,12.15
			c10.48,2.69,22.25,1.29,34.03,1.98c8.29,0.49,16.82,0.58,25.68,0.02c-2.75-5.12-0.7-8.95-6.46-22.28
			C151.81,2279.72,148.3,2270.28,145.71,2258.22z"/>
		<path class="st5" d="M106.98,2034.3c1.98,10.36,5.34,22.49,9.35,34.11c3.91,11.34,10,22.19,14.31,32.14
			c6.38,14.73,14.64,26.44,17.82,31.17c8.08-17.29,2.98-16.11,8.1-37.48c2.7-11.27,5.42-24.09,9.91-36.7
			c4.33-12.15,5.24-26.52,11.48-37.03c3.48-5.87,7.73-11.38,12.32-16.17c-1.27-0.11-2.54-0.23-3.81-0.36
			c-12.81-1.31-25.29-1.09-37.49-0.71c-13.11,0.42-25.97-2.65-37.12-0.84C106.67,2008.19,104.27,2020.12,106.98,2034.3z"/>
		<path class="st5" d="M257.34,2210.05c-9.89-4.89-21.13-10.11-36.79-12.58c-11.56-1.82-24.82-5.67-39.93-4.83
			c-13.89,14.27-1.74,17.94-3.38,40.02c-0.93,12.57-5.1,26.69-4.61,39.86c0.51,14.01,7.56,25.49,12.31,34.36
			c7.37-1.66,14.53-3.97,21.48-7c11.56-5.04,24.1-9.5,34.23-17.49c9.86-7.78,19.06-17.36,27.32-27.27
			c8.09-9.7,14.84-20.98,21.16-32.11c0.37-0.64,0.71-1.3,1.05-1.95C284.84,2214.51,274.44,2218.51,257.34,2210.05z"/>
		<path class="st6" d="M253.96,2116.09c-8.66,5.63-16.78,13.44-26.07,21.86c-7.83,7.1-15.66,12.74-23.55,22.18
			c9.74,15.05,14.77,2.2,33.44,9.4c10.39,4.01,20.29,12.05,30.31,19.18c9.32,6.63,20.6,12.57,26.25,22.2
			c2.65-7.93,4.42-16.25,7.26-24.04c4.41-12.13,11.01-23.49,13.14-35.82c2.22-12.87-0.22-25.7-0.76-38.07
			c-0.29-6.75-0.16-13.46-0.49-19.99c-13.12,1.18-10.99-0.02-29.28,7.51C275.28,2104.18,264.98,2108.93,253.96,2116.09z"/>
	</g>
	<g class="st2">
		<path d="M-428.51,797.28c0,0,12.18-92.29,48.56-128.27c-30.52-4.2-61.58-3.02-85.92,1.72
			C-477.51,695.06-438.67,782.18-428.51,797.28z"/>
		<path d="M-436.76,861.77c0,0-70.88,45.45-77.25,88.16c-0.25,1.64-0.5,3.16-0.77,4.59c27.27,16.66,62.45,25.51,103.75,22.04
			C-420.22,964.03-440.82,928.13-436.76,861.77z"/>
		<path d="M-467.66,839.96c0,0-39.85-18.99-110.54,2.4c0.19,3.44,0.4,6.93,0.64,10.49c2.13,32.11,16.45,62.28,40.65,84.88
			C-535.73,915.7-523.42,879.55-467.66,839.96z"/>
		<path d="M-373.18,827.12c0,0,69.67,11.87,89.84,52.78c20.29-39.53,28.94-84.86,21.21-123.2
			C-274.42,758.55-324.93,769.38-373.18,827.12z"/>
		<path d="M-266.19,741.49c-0.01-0.03-0.02-0.06-0.03-0.09c-12.71-37.38-49.61-58.45-91.07-68.21
			c-7.93,22.28-32.5,94.21-34.02,133.92C-391.32,807.12-328.77,743.88-266.19,741.49z"/>
		<path d="M-457.66,807.31c-14.74-23.93-40.9-92.5-34.15-129.12c-3.21,1.33-6.11,2.76-8.63,4.26
			c-67.22,45.22-79.39,85.67-78.43,141.87C-565.14,813.52-530.92,796.55-457.66,807.31z"/>
		<path d="M-394.96,859.05c0,0-12.79,82.08,0.45,115.2c43.6-9.02,80.33-41.54,104.45-82.18
			C-300.36,880.86-330.97,855.49-394.96,859.05z"/>
	</g>
	<g class="st2">
		<path class="st5" d="M-1003.5,2113.18v93c0,11.6,9.4,21,21,21s21-9.4,21-21v-93c0-0.03,0.25-0.05,0.25-0.08
			c-13.93-0.25-27.83-2.06-41.37-5.4C-1003.1,2109.45-1003.5,2111.28-1003.5,2113.18z"/>
	</g>
	<g class="st2">
		<circle class="st7" cx="-983.17" cy="2083.51" r="13.13"/>
		<path class="st5" d="M-983.17,2073.61c-5.47,0-9.9,4.43-9.9,9.9c0,5.47,4.43,9.9,9.9,9.9s9.9-4.43,9.9-9.9
			C-973.27,2078.04-977.7,2073.61-983.17,2073.61z M-987.03,2085.12c-0.89,0-1.61-0.72-1.61-1.61c0-0.89,0.72-1.61,1.61-1.61
			c0.89,0,1.61,0.72,1.61,1.61C-985.42,2084.4-986.14,2085.12-987.03,2085.12z M-983.17,2088.98c-0.89,0-1.61-0.72-1.61-1.61
			c0-0.89,0.72-1.61,1.61-1.61c0.89,0,1.61,0.72,1.61,1.61C-981.56,2088.26-982.28,2088.98-983.17,2088.98z M-983.17,2081.27
			c-0.89,0-1.61-0.72-1.61-1.61c0-0.89,0.72-1.61,1.61-1.61c0.89,0,1.61,0.72,1.61,1.61
			C-981.56,2080.55-982.28,2081.27-983.17,2081.27z M-979.31,2085.12c-0.89,0-1.61-0.72-1.61-1.61c0-0.89,0.72-1.61,1.61-1.61
			c0.89,0,1.61,0.72,1.61,1.61C-977.7,2084.4-978.42,2085.12-979.31,2085.12z"/>
	</g>
	<g class="st2">
		<path class="st6" d="M-1145.84,1864.55c4.58,14.6,10.87,28.37,18.59,41.19c7.7,12.84,16.74,24.78,26.6,36.01
			c9.87,11.24,20.56,21.78,31.75,31.81c10.89,9.74,22.23,19.01,33.9,27.92c-3.55-14.58-6.63-29.31-9.09-44.19
			c-2.63-16.06-4.51-32.29-5.22-48.63c-0.7-16.33-0.22-32.78,2.01-48.97c2.12-15.55,5.97-30.79,11.45-45.18
			c-47.65,3.67-89.16,13.89-115.73,27.95C-1149.98,1849.96-1148.11,1857.36-1145.84,1864.55z"/>
		<path class="st6" d="M-984.5,1813.16c-14.02-0.33-27.8-0.08-41.16,0.67c-0.09,0.49-0.19,0.98-0.27,1.47
			c-2.56,15.08-3.22,30.21-2.18,45.14c1.02,14.94,3.65,29.68,7.32,44.17c3.68,14.5,8.4,28.75,13.81,42.77
			c5.27,13.63,11.15,27.05,17.5,40.29c3.47-14.61,7.42-29.13,12-43.5c4.96-15.5,10.67-30.81,17.47-45.69
			c6.8-14.86,14.71-29.29,24.06-42.7c9.33-13.41,20.17-25.7,32.15-36.32c0.58-0.51,1.16-1,1.75-1.51
			C-927.42,1814.25-955.44,1812.48-984.5,1813.16z"/>
		<path class="st6" d="M-891.79,1819.59c-1.69,2.1-3.35,4.22-4.95,6.37c-9.14,12.27-16.6,25.44-22.47,39.21
			c-5.88,13.77-10.25,28.09-13.57,42.67c-3.32,14.58-5.59,29.42-7.15,44.37c-1.51,14.54-2.37,29.18-2.74,43.87
			c9.74-11.43,19.85-22.59,30.47-33.31c11.46-11.55,23.51-22.59,36.33-32.75c12.81-10.14,26.42-19.4,40.85-27.09
			c14.4-7.7,29.65-13.72,45.15-17.73c0.64-0.17,1.29-0.31,1.93-0.47C-780.2,1856.01-825.48,1831-891.79,1819.59z"/>
		<path class="st6" d="M-1179.95,1889.18c37.19,110.35,95.93,158.25,140.88,178.36c-20.68-21.51-40.49-44.05-58.37-68.27
			c-9.65-13.1-18.7-26.71-26.77-40.94c-8.05-14.22-15.1-29.09-20.48-44.53c-5.39-15.42-8.99-31.41-10.57-47.34
			c-0.72-7.14-1.05-14.25-1.13-21.32C-1177.63,1857.67-1187.37,1872.93-1179.95,1889.18z"/>
		<path class="st6" d="M-855.86,1950.74c-9.58,11.48-18.36,23.66-26.55,36.26c-16.03,24.7-29.88,50.94-42.55,77.82
			c43.11-21.03,96.96-67.53,132.63-167.62c-11.5,6.18-22.19,13.48-32.04,21.7C-835.87,1928.5-846.28,1939.27-855.86,1950.74z"/>
	</g>
	<g class="st2">
		<path class="st5" d="M-784.95,1920.46c-10.37-5.19-22.99-0.98-28.17,9.39c-0.32,0.64-0.74,1.5-1.24,2.55
			c-21.85,45.16-70.98,121.13-157.1,130.82c3.3,1.91,6.08,4.59,8.12,7.81c1.9,0.08,3.81,0.13,5.74,0.13c11.6,0,21,9.4,21,21
			c0,2.63-0.51,5.14-1.39,7.46c39.57-10.4,75.46-32.94,107.05-67.34c31.52-34.31,48.73-69.89,54.39-81.59
			c0.41-0.85,0.74-1.54,1-2.06C-770.37,1938.26-774.57,1925.65-784.95,1920.46z"/>
		<path class="st5" d="M-1006.6,2083.51c0-7.31,3.36-13.84,8.62-18.14c-74.46-21.63-122.6-98.49-141.57-134.53l-0.76-1.45
			c-5.44-10.24-18.16-14.13-28.4-8.69c-10.24,5.44-14.13,18.16-8.69,28.4l0.69,1.3c17.81,33.85,38.85,63.58,62.52,88.38
			c20.68,21.66,42.88,38.89,65.99,51.19c14.93,7.95,30.29,13.86,45.95,17.72c0.68-2.51,1.82-4.83,3.31-6.88
			C-1003.65,2096.54-1006.6,2090.37-1006.6,2083.51z"/>
	</g>
	<g class="st2">
		<path class="st8" d="M1263.89,2141.42c7.76,7,20.45,7,28.21,0c0,0,129.34-116.72,175.84-242.72s28.84-269.13,28.84-269.13
			c-1.28-10.37-10.49-21.4-20.46-24.51l-180.18-56.19c-9.98-3.11-26.3-3.11-36.28,0l-180.18,56.19
			c-9.98,3.11-19.19,14.14-20.46,24.51c0,0-17.66,143.13,28.84,269.13S1263.89,2141.42,1263.89,2141.42z"/>
	</g>
	<g class="st2">
		<path d="M1847.02,1814.18c-12-45,39-258.5,78-270.49l16.5,9.26c0,0-69,63.23-19.5,261.23H1847.02z"/>
		<path d="M1848.02,1849.98c-44.97-12.11-204.37-163.02-195.25-202.79l16.27-9.66c0,0,20.26,91.37,216.48,147.5L1848.02,1849.98z"/>
		<path d="M1879.52,1867.01c-32.97,32.89-243.37,95.48-273.25,67.7l-0.23-18.92c0,0,89.26,28.14,235.98-113.73L1879.52,1867.01z"/>
		<path d="M1910.01,1848.18c12,45-39,258.53-78,270.52l-16.5-9.27c0,0,69-63.25,19.5-261.25H1910.01z"/>
		<path d="M1908.96,1812.42c44.97,12.11,204.4,163.04,195.28,202.8l-16.28,9.65c0,0-20.27-91.38-216.5-147.51L1908.96,1812.42z"/>
		<path d="M1877.46,1795.45c32.97-32.89,243.39-95.49,273.27-67.71l0.22,18.92c0,0-89.27-28.13-235.99,113.74L1877.46,1795.45z"/>
	</g>
	<g class="st2">
		<polygon class="st9" points="2545.68,1814.18 2535.85,1831.21 2545.65,1848.18 2565.31,1848.18 2575.11,1831.21 2565.28,1814.18 
					"/>
		<path d="M2558.54,1791.92c7-5.43,18.02-11.49,31.71-17.71c-31.3-166.62,28.27-221.25,28.27-221.25l-16.5-9.26
			c-31.56,9.7-70.99,151.42-78.51,228.95c12.16,4.27,25.15,8.42,39.01,12.38L2558.54,1791.92z"/>
		<polygon points="2555.48,1797.21 2545.68,1814.18 2565.28,1814.18 		"/>
		<path d="M2523.01,1808.97c-1.21-8.77-0.95-21.35,0.5-36.32c-159.97-56.21-177.47-135.12-177.47-135.12l-16.27,9.66
			c-7.38,32.19,95.63,137.19,159.02,182.46c9.78-8.4,19.86-17.57,30.23-27.59L2523.01,1808.97z"/>
		<polygon points="2526.02,1814.18 2535.85,1831.21 2545.68,1814.18 		"/>
		<polygon points="2526.05,1848.18 2545.65,1848.18 2535.85,1831.21 		"/>
		<path d="M2519.84,1848.18c-8.18-3.35-18.89-9.84-31.05-18.53c-128.66,110.44-205.75,86.14-205.75,86.14l0.23,18.92
			c24.18,22.49,166.62-14.23,237.53-46.48c-2.38-12.7-5.28-26.02-8.78-40.04H2519.84z"/>
		<polygon points="2555.48,1865.21 2565.31,1848.18 2545.65,1848.18 		"/>
		<path d="M2552.38,1870.59c-7,5.41-17.97,11.44-31.58,17.63c31.27,166.58-28.28,221.21-28.28,221.21l16.5,9.27
			c31.56-9.7,70.98-151.38,78.5-228.93c-12.18-4.28-25.18-8.43-39.06-12.4L2552.38,1870.59z"/>
		<path d="M2588.06,1853.64c1.18,8.77,0.91,21.27-0.54,36.13c159.93,56.21,177.44,135.11,177.44,135.11l16.28-9.65
			c7.38-32.18-95.61-137.16-159.01-182.45c-9.79,8.41-19.89,17.59-30.27,27.63L2588.06,1853.64z"/>
		<polygon points="2584.91,1848.18 2575.11,1831.21 2565.31,1848.18 		"/>
		<polygon points="2575.11,1831.21 2584.95,1814.18 2565.28,1814.18 		"/>
		<path d="M2827.96,1746.66l-0.22-18.92c-24.18-22.48-166.56,14.22-237.49,46.47c2.38,12.68,5.27,25.98,8.77,39.98h-7.96
			c8.2,3.35,18.95,9.86,31.17,18.59C2750.87,1722.38,2827.96,1746.66,2827.96,1746.66z"/>
	</g>
	<g class="st2">
		<g>
			<path d="M3323.02,1814.18c-12-45,39-258.5,78-270.49l16.5,9.26c0,0-69,63.23-19.5,261.23H3323.02z"/>
			<path d="M3324.02,1849.98c-44.97-12.11-204.37-163.02-195.25-202.79l16.27-9.66c0,0,20.26,91.37,216.48,147.5L3324.02,1849.98z"
				/>
			<path d="M3355.52,1867.01c-32.97,32.89-243.37,95.48-273.25,67.7l-0.23-18.92c0,0,89.26,28.14,235.98-113.73L3355.52,1867.01z"/>
			<path d="M3386.01,1848.18c12,45-39,258.53-78,270.52l-16.5-9.27c0,0,69-63.25,19.5-261.25H3386.01z"/>
			<path d="M3384.96,1812.42c44.97,12.11,204.4,163.04,195.28,202.8l-16.28,9.65c0,0-20.27-91.38-216.5-147.51L3384.96,1812.42z"/>
			<path d="M3353.46,1795.45c32.97-32.89,243.39-95.49,273.27-67.71l0.22,18.92c0,0-89.27-28.13-235.99,113.74L3353.46,1795.45z"/>
		</g>
		<path d="M3451.42,1831.2c0,53.53-43.39,96.92-96.92,96.92c-53.53,0-96.92-43.39-96.92-96.92s43.39-96.92,96.92-96.92
			C3408.02,1734.28,3451.42,1777.67,3451.42,1831.2z"/>
	</g>
	<g class="st2">
		<rect x="3011.35" y="707.63" class="st6" width="335.76" height="127.56"/>
		<g>
			<rect x="3037.5" y="743.06" class="st4" width="198.42" height="56.69"/>
			<rect x="3235.92" y="743.06" class="st10" width="70.87" height="56.69"/>
			<rect x="3306.79" y="743.06" class="st11" width="14.17" height="56.69"/>
		</g>
	</g>
	<g class="st2">
		
			<text transform="matrix(1 0 0 1 2956.3042 281.7526)" class="st10" style="font-family:'Rockwell'; font-size:128.2497px; letter-spacing:12;">heuris</text>
		
			<text transform="matrix(1 0 0 1 3178.896 317.0616)" class="st10" style="font-family:'Rockwell'; font-size:22.8967px; letter-spacing:2;">Rockwell Regular</text>
	</g>
	<g class="st2">
		<rect x="2907.05" y="520.89" class="st9" width="544.36" height="165.79"/>
		<text transform="matrix(1 0 0 1 2907.0508 533.2081)"><tspan x="0" y="0" style="font-family:'KozGoPro-Regular-83pv-RKSJ-H'; font-size:14px; letter-spacing:1;">山路を登りながら、こう考えた。智に働けば角が立つ。情に棹させば流され</tspan><tspan x="0" y="24.5" style="font-family:'KozGoPro-Regular-83pv-RKSJ-H'; font-size:14px; letter-spacing:1;">る。意地を通せば窮屈だ。とかくに人の世は住みにくい。住みにくさが高じ</tspan><tspan x="0" y="49" style="font-family:'KozGoPro-Regular-83pv-RKSJ-H'; font-size:14px; letter-spacing:1;">ると、安い所へ引き越したくなる。どこへ越しても住みにくいと悟った時</tspan><tspan x="526.68" y="49" style="font-family:'KozGoPro-Regular-83pv-RKSJ-H'; font-size:14px; letter-spacing:-5;">、</tspan><tspan x="0" y="73.5" style="font-family:'KozGoPro-Regular-83pv-RKSJ-H'; font-size:14px; letter-spacing:1;">詩が生れて、画が出来る。山路を登りながら、こう考えた。智に働けば角が</tspan><tspan x="0" y="98" style="font-family:'KozGoPro-Regular-83pv-RKSJ-H'; font-size:14px; letter-spacing:1;">立つ。情に棹させば流される。意地を通せば窮屈だ。とかくに人の世は住み</tspan><tspan x="0" y="122.5" style="font-family:'KozGoPro-Regular-83pv-RKSJ-H'; font-size:14px; letter-spacing:1;">にくい。住みにくさが高じると、安い所へ引き越したくなる。どこへ越して</tspan><tspan x="0" y="147" style="font-family:'KozGoPro-Regular-83pv-RKSJ-H'; font-size:14px; letter-spacing:1;">も住みにくいと悟った時、詩が生れて、画が出来る</tspan><tspan x="367.08" y="147" style="font-family:'KozGoPro-Regular-83pv-RKSJ-H'; font-size:14px; letter-spacing:-5;">。</tspan></text>
	</g>
	<g class="st2">
		<text transform="matrix(1 0 0 1 2909.4658 467.5348)"><tspan x="0" y="0" style="font-family:'KozGoPro-Regular-83pv-RKSJ-H'; font-size:36.1291px; letter-spacing:5;">オシャレは忘れない</tspan><tspan x="370.68" y="0" style="font-family:'KozGoPro-Regular-83pv-RKSJ-H'; font-size:36.1291px; letter-spacing:-13;">。</tspan></text>
		<text transform="matrix(1 0 0 1 3321.2305 471.6534)"><tspan x="0" y="0" style="font-family:'KozGoPro-Regular-83pv-RKSJ-H'; font-size:12.6452px; letter-spacing:1;">小塚ゴシッ</tspan><tspan x="72.08" y="0" style="font-family:'KozGoPro-Regular-83pv-RKSJ-H'; font-size:12.6452px; letter-spacing:4;">ク</tspan><tspan x="89.66" y="0" style="font-family:'KozGoPro-Regular-83pv-RKSJ-H'; font-size:12.6452px; letter-spacing:1;">Pro R</tspan></text>
	</g>
	<g class="st2">
		<text transform="matrix(1 0 0 1 2908.7964 388.7936)"><tspan x="0" y="0" style="font-family:'KozGoPro-Bold-83pv-RKSJ-H'; font-size:36.1291px; letter-spacing:5;">オシャレは忘れない</tspan><tspan x="370.68" y="0" style="font-family:'KozGoPro-Bold-83pv-RKSJ-H'; font-size:36.1291px; letter-spacing:-13;">。</tspan></text>
		<text transform="matrix(1 0 0 1 3320.5601 391.047)"><tspan x="0" y="0" style="font-family:'KozGoPro-Bold-83pv-RKSJ-H'; font-size:12.6452px; letter-spacing:1;">小塚ゴシッ</tspan><tspan x="72.08" y="0" style="font-family:'KozGoPro-Bold-83pv-RKSJ-H'; font-size:12.6452px; letter-spacing:4;">ク</tspan><tspan x="89.66" y="0" style="font-family:'KozGoPro-Bold-83pv-RKSJ-H'; font-size:12.6452px; letter-spacing:1;">Pro B</tspan></text>
	</g>
	<g class="st2">
		<rect x="2930.63" y="857.1" class="st6" width="65.21" height="65.21"/>
		<rect x="3074.09" y="857.1" class="st12" width="65.21" height="65.21"/>
		<rect x="3217.56" y="857.1" class="st10" width="65.21" height="65.21"/>
		<rect x="3361.02" y="857.1" class="st5" width="65.21" height="65.21"/>
		<text transform="matrix(1 0 0 1 2921.2803 965.0245)" style="font-family:'KozGoPro-Regular-83pv-RKSJ-H'; font-size:10.5276px;">R 220 G 240 B 255</text>
		<text transform="matrix(1 0 0 1 3065.2803 965.0245)" style="font-family:'KozGoPro-Regular-83pv-RKSJ-H'; font-size:10.5276px;">R 225 G 200 B 125</text>
		<text transform="matrix(1 0 0 1 3209.2803 965.0245)" style="font-family:'KozGoPro-Regular-83pv-RKSJ-H'; font-size:10.5276px;">R 100 G 100 B 100</text>
		<text transform="matrix(1 0 0 1 3353.2803 965.0245)" style="font-family:'KozGoPro-Regular-83pv-RKSJ-H'; font-size:10.5276px;">R 215 G 175 B 255</text>
	</g>
	<path class="st2" d="M-1218.63,349.63c43.64-26.13,199.64-27.18,228.43,57.49c28.79,84.66-38.07,218.45-136.5,228.9
		c-98.43,10.45-162.5-50.17-167.14-120.2C-1298.48,445.79-1294.77,400.85-1218.63,349.63z"/>
	<path class="st13" d="M153.14,2355.25c8.39,15.79,77.44,152.91,201.25,152.91"/>
	<path class="st13" d="M517.66,2355.25c-6.91,13.81-61.24,136.63-181.8,145.51"/>
	<circle class="st14" cx="331.74" cy="2500.8" r="20.72"/>
	<line class="st13" x1="330.5" y1="2529.18" x2="330.5" y2="2622.18"/>
</g>
<g id="レイヤー_1">
</g>
<g id="レイヤー_2">
	<g>
		<g>
			<g>
				<path class="st10" d="M530.15,1040.1v-4.75h1.64v1.16c0.78,1.42,1.81,2.13,3.07,2.13c0.65,0,1.19-0.2,1.64-0.59
					c0.44-0.39,0.67-0.91,0.67-1.55c0-0.62-0.18-1.07-0.54-1.34c-0.36-0.27-1.05-0.54-2.06-0.81c-1.17-0.31-2.04-0.61-2.6-0.89
					c-0.56-0.28-1.01-0.68-1.35-1.19c-0.34-0.52-0.5-1.13-0.5-1.84c0-1.1,0.36-1.97,1.09-2.63c0.73-0.65,1.65-0.98,2.75-0.98
					c1.05,0,2.02,0.34,2.91,1.02v-0.87h1.6v3.97h-1.6v-0.91c-0.67-1.01-1.59-1.51-2.77-1.51c-0.71,0-1.26,0.16-1.64,0.49
					c-0.38,0.33-0.57,0.72-0.57,1.18c0,0.35,0.1,0.66,0.29,0.92c0.19,0.27,0.44,0.46,0.74,0.59c0.3,0.13,0.89,0.3,1.78,0.53
					c1.15,0.3,1.99,0.58,2.51,0.84c0.52,0.26,0.97,0.69,1.34,1.3c0.38,0.61,0.56,1.31,0.56,2.1c0,1.12-0.39,2.04-1.18,2.76
					c-0.79,0.73-1.76,1.09-2.92,1.09c-1.19,0-2.26-0.43-3.21-1.29v1.08H530.15z"/>
				<path class="st10" d="M551.94,1036.01h-7.65c0.11,0.84,0.44,1.52,1,2.04c0.55,0.52,1.26,0.78,2.11,0.78
					c1.25,0,2.23-0.5,2.96-1.5l1.58,0.7c-0.51,0.8-1.18,1.39-2,1.77c-0.82,0.39-1.68,0.58-2.57,0.58c-1.39,0-2.58-0.43-3.57-1.3
					c-0.99-0.87-1.48-2.04-1.48-3.51c0-1.4,0.48-2.55,1.44-3.45c0.96-0.9,2.07-1.35,3.31-1.35c1.22,0,2.33,0.44,3.32,1.32
					C551.39,1032.95,551.9,1034.27,551.94,1036.01z M550.1,1034.71c-0.13-0.64-0.46-1.22-1-1.73c-0.54-0.52-1.2-0.78-1.98-0.78
					c-0.71,0-1.33,0.23-1.83,0.7c-0.51,0.47-0.82,1.07-0.93,1.81H550.1z"/>
				<path class="st10" d="M556.58,1038.52v-9.9h-1.62v-1.59h3.4v11.48h1.39v1.59h-4.79v-1.59H556.58z"/>
				<path class="st10" d="M572.44,1036.01h-7.65c0.11,0.84,0.44,1.52,1,2.04c0.55,0.52,1.26,0.78,2.11,0.78
					c1.25,0,2.23-0.5,2.96-1.5l1.58,0.7c-0.51,0.8-1.18,1.39-2,1.77c-0.82,0.39-1.68,0.58-2.57,0.58c-1.39,0-2.58-0.43-3.57-1.3
					c-0.99-0.87-1.48-2.04-1.48-3.51c0-1.4,0.48-2.55,1.44-3.45c0.96-0.9,2.07-1.35,3.31-1.35c1.22,0,2.33,0.44,3.32,1.32
					C571.89,1032.95,572.41,1034.27,572.44,1036.01z M570.6,1034.71c-0.13-0.64-0.46-1.22-1-1.73c-0.54-0.52-1.2-0.78-1.98-0.78
					c-0.71,0-1.33,0.23-1.83,0.7c-0.51,0.47-0.82,1.07-0.93,1.81H570.6z"/>
				<path class="st10" d="M584.39,1031.01v3.44h-1.6c-0.08-0.66-0.35-1.16-0.8-1.51c-0.45-0.35-0.98-0.53-1.58-0.53
					c-0.8,0-1.45,0.28-1.96,0.85c-0.5,0.57-0.75,1.31-0.75,2.23c0,0.86,0.24,1.61,0.71,2.27c0.48,0.65,1.17,0.98,2.07,0.98
					c1.25,0,2.16-0.6,2.73-1.79l1.48,0.7c-0.81,1.81-2.24,2.72-4.28,2.72c-1.44,0-2.57-0.49-3.4-1.48s-1.24-2.12-1.24-3.4
					c0-1.37,0.45-2.5,1.35-3.4s1.94-1.34,3.12-1.34c1.01,0,1.86,0.3,2.56,0.89v-0.64H584.39z"/>
				<path class="st10" d="M587.62,1032.6v-1.59h1.18v-1.4l1.79-1.64v3.04h1.68v1.59h-1.68v4.42c0,0.71,0.04,1.15,0.12,1.31
					c0.08,0.17,0.27,0.25,0.59,0.25c0.33,0,0.66-0.06,0.98-0.19v1.63c-0.46,0.16-0.91,0.24-1.37,0.24c-0.54,0-0.99-0.12-1.32-0.36
					c-0.34-0.24-0.55-0.54-0.64-0.91c-0.09-0.36-0.13-0.99-0.13-1.88v-4.51H587.62z"/>
				<path class="st10" d="M602.29,1040.1v-3.12h1.6v0.3c0.06,0.43,0.29,0.78,0.69,1.05c0.4,0.27,0.88,0.41,1.43,0.41
					c0.58,0,1.04-0.1,1.38-0.3c0.34-0.2,0.52-0.48,0.52-0.84c0-0.34-0.14-0.6-0.43-0.76c-0.29-0.16-0.85-0.31-1.7-0.45
					c-1.25-0.21-2.15-0.55-2.68-1.03c-0.54-0.47-0.8-1.09-0.8-1.84c0-0.76,0.29-1.39,0.87-1.9c0.58-0.51,1.35-0.77,2.3-0.77
					c0.86,0,1.6,0.18,2.22,0.53v-0.39h1.59v3.02h-1.59v-0.55c-0.48-0.75-1.18-1.12-2.1-1.12c-0.47,0-0.86,0.1-1.16,0.31
					c-0.3,0.2-0.46,0.47-0.46,0.81c0,0.34,0.14,0.58,0.42,0.71c0.28,0.13,0.88,0.26,1.8,0.41c0.88,0.14,1.55,0.3,2,0.48
					c0.45,0.19,0.82,0.49,1.12,0.92c0.3,0.43,0.45,0.93,0.45,1.5c0,0.85-0.32,1.52-0.97,2.02c-0.65,0.5-1.49,0.75-2.52,0.75
					c-0.97,0-1.76-0.22-2.38-0.66v0.51H602.29z"/>
				<path class="st10" d="M614.28,1038.52v-9.9h-1.64v-1.59h3.43v5.02c1.07-0.86,2.09-1.3,3.05-1.3c0.6,0,1.1,0.12,1.49,0.38
					c0.39,0.25,0.65,0.58,0.79,0.99c0.14,0.41,0.21,1.01,0.21,1.8v4.6h1.55v1.59h-3.34v-5.56c0-0.69-0.02-1.15-0.07-1.38
					c-0.04-0.23-0.16-0.42-0.36-0.57c-0.2-0.15-0.43-0.23-0.7-0.23c-0.69,0-1.57,0.39-2.63,1.17v4.98h1.58v1.59h-5.01v-1.59H614.28z
					"/>
				<path class="st10" d="M625.94,1035.56c0-1.4,0.46-2.55,1.39-3.45c0.93-0.9,2.06-1.35,3.39-1.35c1.31,0,2.43,0.44,3.37,1.33
					c0.94,0.89,1.41,2.04,1.41,3.47c0,1.43-0.47,2.59-1.41,3.48c-0.94,0.89-2.06,1.34-3.38,1.34c-1.35,0-2.49-0.45-3.41-1.35
					C626.39,1038.11,625.94,1036.96,625.94,1035.56z M627.82,1035.55c0,0.9,0.28,1.63,0.84,2.21c0.56,0.57,1.25,0.86,2.05,0.86
					c0.82,0,1.51-0.29,2.06-0.87c0.55-0.58,0.83-1.31,0.83-2.2c0-0.89-0.28-1.63-0.85-2.2c-0.56-0.58-1.25-0.87-2.05-0.87
					c-0.84,0-1.53,0.29-2.08,0.88C628.1,1033.96,627.82,1034.68,627.82,1035.55z"/>
				<path class="st10" d="M639.95,1042.6v-10h-1.53v-1.59h3.32v1.43c0.89-1.05,1.97-1.57,3.23-1.57c1.28,0,2.34,0.44,3.17,1.32
					c0.84,0.88,1.26,2.02,1.26,3.42c0,1.47-0.46,2.64-1.36,3.49c-0.91,0.85-1.94,1.28-3.1,1.28c-1.2,0-2.27-0.46-3.2-1.39v3.62h1.77
					v1.59h-5.22v-1.59H639.95z M641.71,1035.69c0,0.5,0.1,0.98,0.31,1.44c0.21,0.46,0.54,0.84,0.99,1.15
					c0.45,0.31,0.98,0.47,1.59,0.47c0.85,0,1.56-0.29,2.11-0.86c0.56-0.57,0.83-1.35,0.83-2.35c0-0.97-0.29-1.73-0.87-2.27
					c-0.58-0.54-1.24-0.82-1.98-0.82c-0.79,0-1.48,0.3-2.08,0.89C642.01,1033.93,641.71,1034.71,641.71,1035.69z"/>
			</g>
			<g>
				<g>
					<g>
						<path class="st10" d="M538.82,410.19v-45.31h-7.53v-7.27h15.71v22.98c4.91-3.96,9.57-5.94,13.98-5.94
							c2.75,0,5.02,0.57,6.8,1.72c1.78,1.15,2.99,2.66,3.64,4.54c0.65,1.88,0.97,4.63,0.97,8.24v21.04h7.1v7.27h-15.28v-25.47
							c0-3.16-0.1-5.26-0.3-6.33c-0.2-1.06-0.75-1.94-1.66-2.62c-0.9-0.69-1.97-1.03-3.21-1.03c-3.16,0-7.17,1.79-12.05,5.38v22.81
							h7.23v7.27h-22.94v-7.27H538.82z"/>
						<path class="st10" d="M636.06,398.7h-35.03c0.52,3.84,2.04,6.96,4.56,9.34c2.52,2.38,5.75,3.57,9.68,3.57
							c5.71,0,10.23-2.29,13.56-6.88l7.23,3.18c-2.35,3.64-5.41,6.35-9.17,8.11c-3.76,1.76-7.69,2.65-11.79,2.65
							c-6.37,0-11.81-1.99-16.33-5.96c-4.52-3.97-6.78-9.33-6.78-16.07c0-6.4,2.2-11.66,6.61-15.79c4.4-4.13,9.46-6.2,15.17-6.2
							c5.59,0,10.66,2.02,15.21,6.05C633.53,384.73,635.89,390.73,636.06,398.7z M627.63,392.77c-0.57-2.93-2.09-5.57-4.56-7.94
							c-2.47-2.37-5.49-3.55-9.08-3.55c-3.27,0-6.07,1.07-8.39,3.21c-2.32,2.14-3.74,4.9-4.26,8.28H627.63z"/>
						<path class="st10" d="M696.9,410.19v7.27h-15.36v-4.78c-4.79,3.64-9.38,5.47-13.77,5.47c-2.78,0-5.08-0.61-6.91-1.83
							c-1.82-1.22-3.03-2.8-3.64-4.73c-0.6-1.94-0.9-5.06-0.9-9.36v-19.15h-5.9v-7.27h14.07v25.39c0,3.07,0.09,5.14,0.26,6.2
							c0.17,1.06,0.67,1.94,1.51,2.62c0.83,0.69,1.88,1.03,3.14,1.03c3.79,0,7.83-1.81,12.14-5.42v-22.55h-7.36v-7.27h15.53v34.38
							H696.9z"/>
						<path class="st10" d="M716.9,410.19v-27.11h-8.39v-7.27h14.93v9.38c0.92-2.44,2.19-4.46,3.83-6.07
							c1.64-1.61,3.36-2.67,5.19-3.18c1.82-0.52,4.31-0.77,7.47-0.77h2.15v8.26h-1.64c-4.16,0-7.27,0.42-9.32,1.25
							c-2.05,0.83-3.57,2.35-4.56,4.54c-0.99,2.19-1.49,6.13-1.49,11.81v9.17h9.08v7.27h-25.65v-7.27H716.9z"/>
						<path class="st10" d="M761.47,410.19v-27.11h-6.45v-7.27h14.63v34.38h6.45v7.27h-21.09v-7.27H761.47z M760.31,361.65
							c0-1.32,0.47-2.47,1.4-3.44c0.93-0.97,2.12-1.46,3.55-1.46c1.35,0,2.51,0.47,3.49,1.42c0.97,0.95,1.46,2.11,1.46,3.49
							s-0.49,2.55-1.46,3.51c-0.97,0.96-2.14,1.44-3.49,1.44c-1.38,0-2.55-0.49-3.51-1.46C760.79,364.16,760.31,363,760.31,361.65z"
							/>
						<path class="st10" d="M790.29,417.47v-14.29h7.32v1.38c0.26,1.95,1.31,3.56,3.16,4.82c1.85,1.26,4.04,1.89,6.56,1.89
							c2.64,0,4.75-0.46,6.33-1.38c1.58-0.92,2.37-2.19,2.37-3.83c0-1.58-0.65-2.74-1.96-3.49c-1.31-0.75-3.9-1.43-7.77-2.06
							c-5.74-0.97-9.83-2.54-12.29-4.7c-2.45-2.17-3.68-4.97-3.68-8.42c0-3.47,1.33-6.38,4-8.72c2.67-2.34,6.18-3.51,10.54-3.51
							c3.93,0,7.32,0.81,10.16,2.43v-1.78h7.27v13.81h-7.27v-2.54c-2.21-3.41-5.42-5.12-9.64-5.12c-2.15,0-3.92,0.47-5.32,1.4
							c-1.39,0.93-2.09,2.17-2.09,3.72c0,1.58,0.64,2.66,1.91,3.25c1.28,0.59,4.02,1.21,8.24,1.87c4.04,0.63,7.1,1.37,9.17,2.21
							c2.07,0.85,3.78,2.25,5.14,4.22c1.36,1.97,2.04,4.25,2.04,6.87c0,3.87-1.49,6.95-4.45,9.23c-2.97,2.28-6.82,3.42-11.55,3.42
							c-4.45,0-8.08-1.01-10.89-3.03v2.34H790.29z"/>
					</g>
				</g>
				<g>
					<path class="st4" d="M710.48,123.38c-2.33,7.16-8.53,14.32-10.93,22.86c-2.27,8.05-1.9,17.04-3.58,24.97
						c-1.93,9.09-3.58,17.85-3.85,24.93c13.32-1.66,7.7-8.59,20.2-17.89c6.46-4.81,14.42-9.56,22.83-14.1
						c7.74-4.18,15.63-9.5,24.25-11.92c5.96-1.67,12.33-2.9,18.6-3.24c-2.82-7.94-6.59-15.67-12.24-21.45
						c-5.9-6.03-14.55-9.4-22.54-13.44c-7.52-3.81-15.61-7.05-24.19-9.29c-1.97-0.51-3.96-0.91-5.98-1.23
						C710.18,108.75,714.05,112.4,710.48,123.38z"/>
					<path class="st6" d="M603.21,252.96c4.03-6.01,10.69-11.22,17.68-17.86c5.43-5.16,12.28-11.43,19.89-16.83
						c-2.46-13.58-10.55-4.12-28.1-4.87c-7.65-0.33-16.65,1.07-27.29,2.84c-5.87,0.97-12.71,0.5-19.73,1.41
						c0.15,3.1,0.34,6.28,0.55,9.56c0.52,7.8,1.19,15.15,3.73,22.44c2.54,7.29,5,14.56,9.41,21.01c3.45,5.03,7.94,9.14,12.66,13.22
						c0.54-1.96,1.21-4.4,1.99-7.62C595.6,269.62,597.56,261.38,603.21,252.96z"/>
					<path class="st6" d="M577.77,202.11c5.87-2.31,12.62-5.69,22.04-6.81c6.76-0.81,14.35,0.65,23.25,1
						c7.05,0.27,13.3-3.61,21.83-2.35c-3.26-5.3-4.42-12.18-8.29-22.08c-3.02-7.71-7.11-15.81-9.4-24.42
						c-2.36-8.86-6.03-17.6-6.58-25.63c-0.44-6.38,1.17-11.73,3.5-16.18c-2.9,1.16-5.47,2.41-7.6,3.69
						c-6.9,4.64-12.27,10.25-17.58,14.79c-6.36,5.44-11.75,10.72-16.12,16.16c-5.13,6.38-7.67,13.41-10.56,20.04
						c-3.08,7.05-8.38,13.42-9.56,21.05c-1.12,7.22,2.57,15.08,2.6,23.1c0.01,1.85,0.04,3.71,0.08,5.6
						C567.58,207.7,568.56,205.73,577.77,202.11z"/>
					<path class="st6" d="M665.31,276.38c-1.36-6.33-2.05-13.26-2.53-21.3c-0.4-6.64-2.42-13.58-1.94-21.44
						c-13.62-1.73-11.17,5.4-22.73,15.39c-6.54,5.65-13.54,12.66-19.24,19.89c-6.13,7.78-12.37,16.53-13.6,24.74
						c-0.12,0.83-0.24,1.63-0.36,2.4c2.53,2.39,5.23,4.6,8.37,6.2c6.67,3.4,14.21,6.35,22.02,8.35c7.2,1.85,15.29,0.89,23.39,1.36
						c5.7,0.33,11.56,0.4,17.65,0.02c-1.89-3.52-0.48-6.15-4.44-15.31C669.5,291.15,667.09,284.67,665.31,276.38z"/>
					<path class="st6" d="M638.69,122.51c1.36,7.12,3.67,15.45,6.42,23.44c2.69,7.79,6.87,15.25,9.83,22.09
						c4.39,10.13,10.06,18.17,12.25,21.42c5.55-11.88,2.05-11.07,5.57-25.75c1.86-7.74,3.72-16.55,6.81-25.22
						c2.98-8.35,3.6-18.22,7.89-25.44c2.39-4.04,5.31-7.82,8.46-11.11c-0.87-0.08-1.75-0.16-2.62-0.24
						c-8.81-0.9-17.38-0.75-25.77-0.49c-9.01,0.29-17.85-1.82-25.51-0.58C638.48,104.57,636.83,112.76,638.69,122.51z"/>
					<path class="st4" d="M742.01,243.27c-6.79-3.36-14.52-6.95-25.28-8.64c-7.94-1.25-17.05-3.9-27.44-3.32
						c-9.54,9.8-1.2,12.33-2.32,27.5c-0.64,8.64-3.5,18.34-3.17,27.39c0.35,9.63,5.19,17.52,8.46,23.61
						c5.06-1.14,9.98-2.73,14.76-4.81c7.94-3.47,16.56-6.53,23.52-12.02c6.77-5.35,13.1-11.93,18.77-18.74
						c5.55-6.67,10.2-14.42,14.54-22.06c0.25-0.44,0.49-0.89,0.72-1.34C760.92,246.34,753.77,249.09,742.01,243.27z"/>
					<path class="st4" d="M739.69,178.71c-5.95,3.87-11.53,9.24-17.91,15.02c-5.38,4.88-10.76,8.76-16.18,15.24
						c6.69,10.34,10.15,1.51,22.98,6.46c7.14,2.75,13.95,8.28,20.83,13.18c6.41,4.56,14.16,8.64,18.04,15.25
						c1.82-5.45,3.04-11.17,4.99-16.52c3.03-8.34,7.57-16.14,9.03-24.61c1.52-8.84-0.15-17.66-0.52-26.16
						c-0.2-4.64-0.11-9.25-0.34-13.73c-9.01,0.81-7.56-0.02-20.12,5.16C754.34,170.53,747.27,173.79,739.69,178.71z"/>
				</g>
			</g>
			<g>
				<g>
					<g>
						<path class="st10" d="M538.82,1014v-45.31h-7.53v-7.27h15.71v22.98c4.91-3.96,9.57-5.94,13.98-5.94c2.75,0,5.02,0.57,6.8,1.72
							c1.78,1.15,2.99,2.66,3.64,4.54c0.65,1.88,0.97,4.63,0.97,8.24V1014h7.1v7.27h-15.28V995.8c0-3.16-0.1-5.26-0.3-6.33
							c-0.2-1.06-0.75-1.94-1.66-2.63c-0.9-0.69-1.97-1.03-3.21-1.03c-3.16,0-7.17,1.79-12.05,5.38V1014h7.23v7.27h-22.94V1014
							H538.82z"/>
						<path class="st10" d="M636.06,1002.51h-35.03c0.52,3.84,2.04,6.96,4.56,9.34c2.52,2.38,5.75,3.57,9.68,3.57
							c5.71,0,10.23-2.29,13.56-6.88l7.23,3.18c-2.35,3.64-5.41,6.35-9.17,8.11c-3.76,1.76-7.69,2.65-11.79,2.65
							c-6.37,0-11.81-1.99-16.33-5.96s-6.78-9.33-6.78-16.07c0-6.4,2.2-11.66,6.61-15.79c4.4-4.13,9.46-6.2,15.17-6.2
							c5.59,0,10.66,2.02,15.21,6.05C633.53,988.53,635.89,994.53,636.06,1002.51z M627.63,996.57c-0.57-2.93-2.09-5.57-4.56-7.94
							c-2.47-2.37-5.49-3.55-9.08-3.55c-3.27,0-6.07,1.07-8.39,3.21c-2.32,2.14-3.74,4.9-4.26,8.28H627.63z"/>
						<path class="st10" d="M696.9,1014v7.27h-15.36v-4.78c-4.79,3.64-9.38,5.47-13.77,5.47c-2.78,0-5.08-0.61-6.91-1.83
							c-1.82-1.22-3.03-2.8-3.64-4.73c-0.6-1.94-0.9-5.06-0.9-9.36v-19.15h-5.9v-7.27h14.07V1005c0,3.07,0.09,5.14,0.26,6.2
							c0.17,1.06,0.67,1.94,1.51,2.63c0.83,0.69,1.88,1.03,3.14,1.03c3.79,0,7.83-1.81,12.14-5.42v-22.55h-7.36v-7.27h15.53V1014
							H696.9z"/>
						<path class="st10" d="M716.9,1014v-27.11h-8.39v-7.27h14.93V989c0.92-2.44,2.19-4.46,3.83-6.07c1.64-1.61,3.36-2.67,5.19-3.19
							c1.82-0.52,4.31-0.77,7.47-0.77h2.15v8.26h-1.64c-4.16,0-7.27,0.42-9.32,1.25c-2.05,0.83-3.57,2.35-4.56,4.54
							c-0.99,2.19-1.49,6.13-1.49,11.81v9.17h9.08v7.27h-25.65V1014H716.9z"/>
						<path class="st10" d="M761.47,1014v-27.11h-6.45v-7.27h14.63V1014h6.45v7.27h-21.09V1014H761.47z M760.31,965.46
							c0-1.32,0.47-2.47,1.4-3.44c0.93-0.97,2.12-1.46,3.55-1.46c1.35,0,2.51,0.47,3.49,1.42c0.97,0.95,1.46,2.11,1.46,3.49
							c0,1.38-0.49,2.55-1.46,3.51c-0.97,0.96-2.14,1.44-3.49,1.44c-1.38,0-2.55-0.49-3.51-1.46
							C760.79,967.97,760.31,966.81,760.31,965.46z"/>
						<path class="st10" d="M790.29,1021.27v-14.29h7.32v1.38c0.26,1.95,1.31,3.56,3.16,4.82c1.85,1.26,4.04,1.89,6.56,1.89
							c2.64,0,4.75-0.46,6.33-1.38c1.58-0.92,2.37-2.19,2.37-3.83c0-1.58-0.65-2.74-1.96-3.49c-1.31-0.75-3.9-1.43-7.77-2.06
							c-5.74-0.97-9.83-2.54-12.29-4.7c-2.45-2.17-3.68-4.97-3.68-8.42c0-3.47,1.33-6.38,4-8.72c2.67-2.34,6.18-3.51,10.54-3.51
							c3.93,0,7.32,0.81,10.16,2.43v-1.78h7.27v13.81h-7.27v-2.54c-2.21-3.41-5.42-5.12-9.64-5.12c-2.15,0-3.92,0.47-5.32,1.4
							c-1.39,0.93-2.09,2.17-2.09,3.72c0,1.58,0.64,2.66,1.91,3.25c1.28,0.59,4.02,1.21,8.24,1.87c4.04,0.63,7.1,1.37,9.17,2.21
							c2.07,0.85,3.78,2.25,5.14,4.22c1.36,1.97,2.04,4.25,2.04,6.87c0,3.87-1.49,6.95-4.45,9.23c-2.97,2.28-6.82,3.42-11.55,3.42
							c-4.45,0-8.08-1.01-10.89-3.03v2.34H790.29z"/>
					</g>
				</g>
				<g>
					<path class="st4" d="M710.48,727.19c-2.33,7.16-8.53,14.32-10.93,22.86c-2.27,8.05-1.9,17.04-3.58,24.97
						c-1.93,9.09-3.58,17.85-3.85,24.93c13.32-1.66,7.7-8.59,20.2-17.89c6.46-4.81,14.42-9.56,22.83-14.1
						c7.74-4.18,15.63-9.5,24.25-11.92c5.96-1.67,12.33-2.9,18.6-3.24c-2.82-7.94-6.59-15.67-12.24-21.45
						c-5.9-6.03-14.55-9.4-22.54-13.44c-7.52-3.81-15.61-7.05-24.19-9.29c-1.97-0.51-3.96-0.91-5.98-1.23
						C710.18,712.56,714.05,716.2,710.48,727.19z"/>
					<path class="st6" d="M603.21,856.76c4.03-6.01,10.69-11.22,17.68-17.86c5.43-5.16,12.28-11.43,19.89-16.83
						c-2.46-13.58-10.55-4.12-28.1-4.87c-7.65-0.33-16.65,1.07-27.29,2.83c-5.87,0.97-12.71,0.5-19.73,1.41
						c0.15,3.1,0.34,6.28,0.55,9.56c0.52,7.8,1.19,15.15,3.73,22.44c2.54,7.29,5,14.57,9.41,21.01c3.45,5.03,7.94,9.14,12.66,13.22
						c0.54-1.96,1.21-4.4,1.99-7.62C595.6,873.42,597.56,865.19,603.21,856.76z"/>
					<path class="st6" d="M577.77,805.92c5.87-2.31,12.62-5.69,22.04-6.81c6.76-0.81,14.35,0.65,23.25,0.99
						c7.05,0.27,13.3-3.61,21.83-2.35c-3.26-5.3-4.42-12.18-8.29-22.08c-3.02-7.71-7.11-15.81-9.4-24.42
						c-2.36-8.86-6.03-17.6-6.58-25.63c-0.44-6.38,1.17-11.73,3.5-16.18c-2.9,1.16-5.47,2.41-7.6,3.69
						c-6.9,4.64-12.27,10.25-17.58,14.79c-6.36,5.44-11.75,10.72-16.12,16.16c-5.13,6.38-7.67,13.41-10.56,20.04
						c-3.08,7.05-8.38,13.42-9.56,21.05c-1.12,7.22,2.57,15.08,2.6,23.1c0.01,1.85,0.04,3.71,0.08,5.6
						C567.58,811.51,568.56,809.54,577.77,805.92z"/>
					<path class="st6" d="M665.31,880.18c-1.36-6.33-2.05-13.26-2.53-21.3c-0.4-6.64-2.42-13.58-1.94-21.44
						c-13.62-1.73-11.17,5.4-22.73,15.39c-6.54,5.65-13.54,12.66-19.24,19.89c-6.13,7.78-12.37,16.53-13.6,24.74
						c-0.12,0.83-0.24,1.63-0.36,2.4c2.53,2.39,5.23,4.6,8.37,6.2c6.67,3.39,14.21,6.35,22.02,8.35c7.2,1.85,15.29,0.89,23.39,1.36
						c5.7,0.33,11.56,0.4,17.65,0.02c-1.89-3.52-0.48-6.15-4.44-15.31C669.5,894.96,667.09,888.47,665.31,880.18z"/>
					<path class="st6" d="M638.69,726.31c1.36,7.12,3.67,15.45,6.42,23.44c2.69,7.79,6.87,15.25,9.83,22.09
						c4.39,10.12,10.06,18.17,12.25,21.42c5.55-11.88,2.05-11.07,5.57-25.75c1.86-7.74,3.72-16.55,6.81-25.22
						c2.98-8.35,3.6-18.22,7.89-25.45c2.39-4.04,5.31-7.82,8.46-11.11c-0.87-0.08-1.75-0.15-2.62-0.24
						c-8.81-0.9-17.38-0.75-25.77-0.49c-9.01,0.29-17.85-1.82-25.51-0.58C638.48,708.37,636.83,716.57,638.69,726.31z"/>
					<path class="st4" d="M742.01,847.08c-6.79-3.36-14.52-6.95-25.28-8.64c-7.94-1.25-17.05-3.9-27.44-3.32
						c-9.54,9.8-1.2,12.32-2.32,27.5c-0.64,8.63-3.5,18.34-3.17,27.39c0.35,9.63,5.19,17.52,8.46,23.61
						c5.06-1.14,9.98-2.72,14.76-4.81c7.94-3.47,16.56-6.53,23.52-12.02c6.77-5.35,13.1-11.93,18.77-18.74
						c5.55-6.67,10.2-14.42,14.54-22.06c0.25-0.44,0.49-0.89,0.72-1.34C760.92,850.15,753.77,852.89,742.01,847.08z"/>
					<path class="st4" d="M739.69,782.52c-5.95,3.87-11.53,9.24-17.91,15.02c-5.38,4.88-10.76,8.76-16.18,15.24
						c6.69,10.34,10.15,1.51,22.98,6.46c7.14,2.75,13.95,8.28,20.83,13.18c6.41,4.56,14.16,8.64,18.04,15.25
						c1.82-5.45,3.04-11.17,4.99-16.52c3.03-8.34,7.57-16.14,9.03-24.61c1.52-8.84-0.15-17.66-0.52-26.16
						c-0.2-4.64-0.11-9.25-0.34-13.73c-9.01,0.81-7.56-0.02-20.12,5.16C754.34,774.33,747.27,777.59,739.69,782.52z"/>
				</g>
			</g>
		</g>
		<g>
			<g>
				<g>
					<path class="st10" d="M144.49,436.3v-4.75h1.64v1.16c0.78,1.42,1.81,2.13,3.07,2.13c0.65,0,1.19-0.2,1.64-0.59
						c0.45-0.39,0.67-0.91,0.67-1.55c0-0.62-0.18-1.07-0.55-1.34c-0.36-0.27-1.05-0.54-2.06-0.81c-1.17-0.31-2.04-0.61-2.6-0.89
						c-0.56-0.28-1.01-0.68-1.35-1.19c-0.34-0.52-0.5-1.13-0.5-1.84c0-1.1,0.37-1.97,1.09-2.63c0.73-0.65,1.65-0.98,2.75-0.98
						c1.05,0,2.02,0.34,2.91,1.01v-0.87h1.6v3.97h-1.6v-0.91c-0.67-1.01-1.59-1.51-2.77-1.51c-0.71,0-1.26,0.16-1.64,0.49
						c-0.38,0.33-0.57,0.72-0.57,1.18c0,0.35,0.1,0.66,0.29,0.93c0.19,0.27,0.44,0.46,0.74,0.59c0.3,0.12,0.89,0.3,1.78,0.53
						c1.15,0.3,1.99,0.58,2.51,0.84c0.52,0.26,0.97,0.69,1.34,1.3c0.38,0.61,0.56,1.31,0.56,2.1c0,1.12-0.39,2.04-1.18,2.76
						c-0.79,0.73-1.76,1.09-2.92,1.09c-1.19,0-2.26-0.43-3.21-1.29v1.08H144.49z"/>
					<path class="st10" d="M158,434.71v-5.92h-1.41v-1.59h3.2v7.51h1.41v1.59h-4.61v-1.59H158z M157.75,424.11
						c0-0.29,0.1-0.54,0.31-0.75c0.2-0.21,0.46-0.32,0.78-0.32c0.29,0,0.55,0.1,0.76,0.31c0.21,0.21,0.32,0.46,0.32,0.76
						c0,0.3-0.11,0.56-0.32,0.77c-0.21,0.21-0.47,0.31-0.76,0.31c-0.3,0-0.56-0.11-0.77-0.32
						C157.85,424.66,157.75,424.41,157.75,424.11z"/>
					<path class="st10" d="M167.41,427.2v1.1c1.15-0.83,2.19-1.24,3.14-1.24c0.59,0,1.08,0.14,1.46,0.42
						c0.39,0.28,0.64,0.62,0.76,1.02c0.12,0.4,0.18,0.99,0.18,1.77v4.44h1.53v1.59h-3.32v-5.95c0-0.69-0.1-1.14-0.31-1.35
						c-0.21-0.21-0.46-0.31-0.76-0.31c-0.79,0-1.68,0.39-2.68,1.16v4.87h1.57v1.59h-4.95v-1.59h1.6v-5.92h-1.6v-1.59H167.41z"/>
					<path class="st10" d="M185.77,427.2v3.44h-1.6c-0.08-0.66-0.35-1.16-0.8-1.51c-0.45-0.35-0.98-0.53-1.58-0.53
						c-0.8,0-1.45,0.28-1.95,0.85c-0.5,0.57-0.75,1.31-0.75,2.23c0,0.86,0.24,1.61,0.71,2.27c0.48,0.66,1.17,0.98,2.07,0.98
						c1.25,0,2.16-0.6,2.73-1.79l1.48,0.7c-0.81,1.81-2.24,2.72-4.28,2.72c-1.44,0-2.58-0.49-3.4-1.48
						c-0.83-0.98-1.24-2.12-1.24-3.4c0-1.37,0.45-2.5,1.35-3.4c0.9-0.89,1.94-1.34,3.12-1.34c1.01,0,1.86,0.3,2.56,0.89v-0.64
						H185.77z"/>
					<path class="st10" d="M198.74,432.2h-7.65c0.11,0.84,0.44,1.52,1,2.04s1.26,0.78,2.11,0.78c1.25,0,2.23-0.5,2.96-1.5l1.58,0.7
						c-0.51,0.8-1.18,1.39-2,1.77c-0.82,0.39-1.68,0.58-2.58,0.58c-1.39,0-2.58-0.43-3.57-1.3c-0.99-0.87-1.48-2.04-1.48-3.51
						c0-1.4,0.48-2.55,1.44-3.45c0.96-0.9,2.07-1.35,3.31-1.35c1.22,0,2.33,0.44,3.32,1.32C198.18,429.15,198.7,430.46,198.74,432.2
						z M196.89,430.91c-0.13-0.64-0.46-1.22-1-1.73c-0.54-0.52-1.2-0.78-1.98-0.78c-0.71,0-1.33,0.23-1.83,0.7
						c-0.51,0.47-0.82,1.07-0.93,1.81H196.89z"/>
					<path class="st10" d="M217.36,431.63l-0.12,4.67h-8.35c0-0.9,0.16-1.76,0.48-2.59c0.32-0.82,0.78-1.54,1.36-2.15
						c0.59-0.61,1.48-1.36,2.68-2.24c0.76-0.56,1.27-1.02,1.54-1.39c0.27-0.37,0.41-0.81,0.41-1.3c0-0.61-0.19-1.1-0.57-1.49
						c-0.38-0.38-0.91-0.58-1.58-0.58c-0.78,0-1.36,0.22-1.72,0.66c-0.36,0.44-0.55,1.16-0.55,2.16c0,0.25,0.01,0.49,0.02,0.71
						h-1.74c-0.01-0.23-0.01-0.41-0.01-0.55c0-1.42,0.34-2.52,1.01-3.32c0.67-0.8,1.65-1.2,2.95-1.2c1.31,0,2.31,0.34,3.01,1.02
						c0.7,0.68,1.05,1.52,1.05,2.52c0,0.83-0.23,1.54-0.69,2.13c-0.46,0.59-1.33,1.34-2.62,2.25c-1.25,0.89-2.08,1.61-2.47,2.17
						c-0.39,0.56-0.62,1.05-0.68,1.49h4.92l0.08-2.97H217.36z"/>
					<path class="st10" d="M221.14,429.77c0-2.16,0.41-3.82,1.22-4.99c0.81-1.17,1.92-1.76,3.32-1.76c1.45,0,2.57,0.61,3.35,1.82
						c0.78,1.22,1.17,2.86,1.17,4.92c0,2.14-0.4,3.8-1.21,4.98c-0.81,1.17-1.91,1.76-3.32,1.76c-1.47,0-2.59-0.61-3.37-1.83
						C221.53,433.45,221.14,431.82,221.14,429.77z M223.06,429.77c0,1.87,0.23,3.2,0.68,4.01c0.45,0.81,1.1,1.21,1.95,1.21
						c0.85,0,1.49-0.4,1.95-1.21c0.45-0.81,0.68-2.14,0.68-4c0-1.89-0.23-3.24-0.69-4.03c-0.46-0.8-1.1-1.19-1.94-1.19
						c-0.94,0-1.61,0.45-2.02,1.36C223.26,426.81,223.06,428.1,223.06,429.77z"/>
					<path class="st10" d="M242.07,431.63l-0.12,4.67h-8.35c0-0.9,0.16-1.76,0.48-2.59c0.32-0.82,0.78-1.54,1.36-2.15
						c0.59-0.61,1.48-1.36,2.68-2.24c0.76-0.56,1.27-1.02,1.54-1.39c0.27-0.37,0.41-0.81,0.41-1.3c0-0.61-0.19-1.1-0.57-1.49
						c-0.38-0.38-0.91-0.58-1.58-0.58c-0.78,0-1.36,0.22-1.72,0.66c-0.36,0.44-0.55,1.16-0.55,2.16c0,0.25,0.01,0.49,0.02,0.71
						h-1.74c-0.01-0.23-0.01-0.41-0.01-0.55c0-1.42,0.34-2.52,1.01-3.32c0.67-0.8,1.65-1.2,2.95-1.2c1.31,0,2.31,0.34,3.01,1.02
						c0.7,0.68,1.05,1.52,1.05,2.52c0,0.83-0.23,1.54-0.69,2.13c-0.46,0.59-1.33,1.34-2.62,2.25c-1.25,0.89-2.08,1.61-2.47,2.17
						c-0.39,0.56-0.62,1.05-0.68,1.49h4.92l0.08-2.97H242.07z"/>
					<path class="st10" d="M249.74,434.71v-9.9h-1.79v-1.57h3.57v11.47h1.7v1.59h-5.27v-1.59H249.74z"/>
				</g>
				<g>
					<g>
						<g>
							<path class="st10" d="M56.83,402.16v-45.31H49.3v-7.27h15.71v22.98c4.91-3.96,9.57-5.94,13.99-5.94
								c2.75,0,5.02,0.57,6.8,1.72c1.78,1.15,2.99,2.66,3.64,4.54c0.65,1.88,0.97,4.63,0.97,8.24v21.04h7.1v7.27H82.22v-25.47
								c0-3.16-0.1-5.26-0.3-6.33c-0.2-1.06-0.75-1.94-1.66-2.62c-0.9-0.69-1.97-1.03-3.21-1.03c-3.16,0-7.17,1.79-12.05,5.38v22.81
								h7.23v7.27H49.3v-7.27H56.83z"/>
							<path class="st10" d="M154.07,390.67h-35.03c0.52,3.84,2.04,6.96,4.56,9.34c2.52,2.38,5.75,3.57,9.68,3.57
								c5.71,0,10.23-2.29,13.55-6.88l7.23,3.18c-2.35,3.64-5.41,6.35-9.17,8.11c-3.76,1.76-7.69,2.65-11.79,2.65
								c-6.37,0-11.81-1.99-16.33-5.96c-4.52-3.97-6.78-9.33-6.78-16.07c0-6.4,2.2-11.66,6.6-15.79c4.4-4.13,9.46-6.2,15.17-6.2
								c5.59,0,10.66,2.02,15.21,6.05C151.54,376.69,153.9,382.69,154.07,390.67z M145.64,384.73c-0.57-2.93-2.09-5.57-4.56-7.94
								c-2.47-2.37-5.49-3.55-9.08-3.55c-3.27,0-6.07,1.07-8.39,3.21c-2.32,2.14-3.74,4.9-4.26,8.28H145.64z"/>
							<path class="st10" d="M214.91,402.16v7.27h-15.36v-4.78c-4.79,3.64-9.38,5.47-13.77,5.47c-2.78,0-5.09-0.61-6.91-1.83
								c-1.82-1.22-3.03-2.8-3.64-4.73c-0.6-1.94-0.9-5.06-0.9-9.36v-19.15h-5.9v-7.27h14.07v25.39c0,3.07,0.09,5.14,0.26,6.2
								c0.17,1.06,0.67,1.94,1.51,2.62c0.83,0.69,1.88,1.03,3.14,1.03c3.79,0,7.83-1.81,12.13-5.42v-22.55h-7.36v-7.27h15.53v34.38
								H214.91z"/>
							<path class="st10" d="M234.91,402.16v-27.11h-8.39v-7.27h14.93v9.38c0.92-2.44,2.19-4.46,3.83-6.07
								c1.64-1.61,3.36-2.67,5.18-3.18c1.82-0.52,4.31-0.77,7.47-0.77h2.15v8.26h-1.64c-4.16,0-7.27,0.42-9.32,1.25
								c-2.05,0.83-3.57,2.35-4.56,4.54c-0.99,2.19-1.48,6.13-1.48,11.81v9.17h9.08v7.27h-25.65v-7.27H234.91z"/>
							<path class="st10" d="M279.48,402.16v-27.11h-6.46v-7.27h14.63v34.38h6.45v7.27h-21.09v-7.27H279.48z M278.32,353.62
								c0-1.32,0.47-2.47,1.4-3.44c0.93-0.97,2.12-1.46,3.55-1.46c1.35,0,2.51,0.47,3.49,1.42c0.97,0.95,1.46,2.11,1.46,3.49
								c0,1.38-0.49,2.55-1.46,3.51c-0.98,0.96-2.14,1.44-3.49,1.44c-1.38,0-2.55-0.49-3.51-1.46
								C278.8,356.13,278.32,354.97,278.32,353.62z"/>
							<path class="st10" d="M308.31,409.43v-14.29h7.32v1.38c0.26,1.95,1.31,3.56,3.16,4.82c1.85,1.26,4.04,1.89,6.56,1.89
								c2.64,0,4.75-0.46,6.33-1.38c1.58-0.92,2.37-2.19,2.37-3.83c0-1.58-0.65-2.74-1.96-3.49c-1.31-0.75-3.89-1.43-7.77-2.06
								c-5.74-0.97-9.83-2.54-12.29-4.7c-2.45-2.17-3.68-4.97-3.68-8.42c0-3.47,1.33-6.38,4-8.72c2.67-2.34,6.18-3.51,10.54-3.51
								c3.93,0,7.32,0.81,10.16,2.43v-1.78h7.27v13.81h-7.27v-2.54c-2.21-3.41-5.42-5.12-9.64-5.12c-2.15,0-3.92,0.47-5.31,1.4
								c-1.39,0.93-2.09,2.17-2.09,3.72c0,1.58,0.64,2.66,1.91,3.25c1.28,0.59,4.02,1.21,8.24,1.87c4.04,0.63,7.1,1.37,9.17,2.21
								c2.07,0.85,3.78,2.25,5.14,4.22c1.36,1.97,2.04,4.25,2.04,6.87c0,3.87-1.48,6.95-4.45,9.23c-2.97,2.28-6.82,3.42-11.55,3.42
								c-4.45,0-8.08-1.01-10.89-3.03v2.34H308.31z"/>
						</g>
					</g>
					<g>
						<path class="st4" d="M228.49,115.35c-2.33,7.16-8.53,14.32-10.93,22.86c-2.27,8.05-1.9,17.04-3.58,24.97
							c-1.93,9.09-3.58,17.85-3.85,24.93c13.32-1.66,7.7-8.59,20.2-17.89c6.46-4.81,14.42-9.56,22.83-14.1
							c7.74-4.18,15.62-9.5,24.25-11.92c5.96-1.67,12.33-2.9,18.6-3.24c-2.82-7.94-6.59-15.67-12.24-21.45
							c-5.9-6.04-14.55-9.4-22.54-13.44c-7.52-3.81-15.61-7.05-24.19-9.29c-1.97-0.51-3.97-0.91-5.98-1.23
							C228.19,100.72,232.06,104.36,228.49,115.35z"/>
						<path class="st6" d="M121.22,244.92c4.03-6.01,10.69-11.22,17.68-17.86c5.43-5.16,12.28-11.43,19.89-16.83
							c-2.46-13.58-10.55-4.12-28.1-4.87c-7.65-0.33-16.65,1.07-27.29,2.84c-5.87,0.97-12.71,0.5-19.73,1.41
							c0.15,3.1,0.34,6.28,0.55,9.56c0.52,7.8,1.19,15.15,3.73,22.44c2.54,7.29,4.99,14.56,9.41,21.01
							c3.45,5.03,7.94,9.14,12.66,13.22c0.53-1.96,1.21-4.4,1.99-7.62C113.61,261.58,115.57,253.35,121.22,244.92z"/>
						<path class="st6" d="M95.78,194.08c5.87-2.31,12.62-5.69,22.04-6.81c6.76-0.81,14.35,0.65,23.25,1
							c7.05,0.27,13.3-3.61,21.83-2.35c-3.26-5.3-4.42-12.18-8.29-22.08c-3.02-7.71-7.11-15.81-9.4-24.42
							c-2.36-8.86-6.03-17.6-6.58-25.63c-0.44-6.38,1.17-11.73,3.5-16.18c-2.9,1.16-5.47,2.41-7.6,3.69
							c-6.9,4.64-12.27,10.25-17.58,14.79c-6.36,5.44-11.75,10.72-16.12,16.16c-5.13,6.38-7.67,13.41-10.56,20.04
							c-3.08,7.05-8.38,13.42-9.56,21.05c-1.12,7.22,2.57,15.08,2.6,23.1c0.01,1.85,0.03,3.71,0.08,5.6
							C85.59,199.67,86.57,197.7,95.78,194.08z"/>
						<path class="st6" d="M183.32,268.34c-1.36-6.33-2.05-13.26-2.53-21.3c-0.4-6.64-2.42-13.58-1.94-21.44
							c-13.62-1.73-11.17,5.4-22.73,15.39c-6.54,5.65-13.54,12.66-19.24,19.89c-6.13,7.78-12.37,16.53-13.6,24.74
							c-0.12,0.83-0.24,1.63-0.36,2.4c2.53,2.39,5.23,4.6,8.37,6.2c6.67,3.39,14.21,6.35,22.02,8.35c7.2,1.85,15.29,0.89,23.38,1.36
							c5.7,0.33,11.56,0.4,17.65,0.02c-1.89-3.52-0.48-6.15-4.44-15.31C187.51,283.12,185.1,276.63,183.32,268.34z"/>
						<path class="st6" d="M156.7,114.48c1.36,7.12,3.67,15.45,6.42,23.44c2.68,7.79,6.87,15.25,9.83,22.09
							c4.39,10.13,10.06,18.17,12.25,21.42c5.55-11.88,2.05-11.07,5.57-25.75c1.86-7.74,3.72-16.55,6.81-25.22
							c2.98-8.35,3.6-18.22,7.89-25.44c2.39-4.04,5.31-7.82,8.46-11.11c-0.88-0.08-1.75-0.16-2.62-0.24
							c-8.8-0.9-17.38-0.75-25.76-0.49c-9.01,0.28-17.85-1.82-25.51-0.58C156.49,96.53,154.84,104.73,156.7,114.48z"/>
						<path class="st4" d="M260.03,235.24c-6.79-3.36-14.52-6.95-25.28-8.64c-7.94-1.25-17.05-3.9-27.44-3.32
							c-9.54,9.8-1.2,12.33-2.32,27.5c-0.64,8.64-3.5,18.34-3.17,27.39c0.35,9.63,5.19,17.52,8.46,23.61
							c5.06-1.14,9.98-2.73,14.76-4.81c7.94-3.47,16.56-6.53,23.52-12.02c6.77-5.35,13.1-11.93,18.77-18.74
							c5.56-6.67,10.2-14.42,14.54-22.06c0.25-0.44,0.49-0.89,0.72-1.34C278.93,238.3,271.78,241.05,260.03,235.24z"/>
						<path class="st4" d="M257.7,170.68c-5.95,3.87-11.53,9.24-17.91,15.02c-5.38,4.88-10.76,8.76-16.18,15.24
							c6.69,10.34,10.15,1.51,22.98,6.46c7.14,2.75,13.95,8.28,20.83,13.18c6.41,4.56,14.16,8.64,18.04,15.25
							c1.82-5.45,3.04-11.17,4.99-16.52c3.03-8.34,7.57-16.14,9.03-24.61c1.52-8.84-0.15-17.66-0.52-26.16
							c-0.2-4.64-0.11-9.25-0.34-13.74c-9.01,0.81-7.56-0.02-20.12,5.16C272.35,162.49,265.28,165.75,257.7,170.68z"/>
					</g>
				</g>
			</g>
			<g>
				<g>
					<path class="st10" d="M24.71,1023.81v-55.43h-9.21v-8.9h19.21v28.11c6-4.84,11.7-7.26,17.11-7.26c3.37,0,6.14,0.7,8.32,2.11
						c2.18,1.4,3.66,3.26,4.45,5.55c0.79,2.3,1.18,5.66,1.18,10.08v25.74h8.69v8.9H55.76v-31.16c0-3.86-0.12-6.44-0.37-7.74
						c-0.25-1.3-0.92-2.37-2.03-3.21c-1.11-0.84-2.41-1.26-3.92-1.26c-3.86,0-8.77,2.19-14.74,6.58v27.9h8.84v8.9H15.49v-8.9H24.71z
						"/>
					<path class="st10" d="M143.66,1009.75h-42.85c0.63,4.7,2.49,8.51,5.58,11.42c3.09,2.91,7.04,4.37,11.84,4.37
						c6.98,0,12.51-2.81,16.58-8.42l8.84,3.9c-2.88,4.46-6.62,7.76-11.21,9.92c-4.6,2.16-9.41,3.24-14.42,3.24
						c-7.79,0-14.45-2.43-19.98-7.29c-5.53-4.86-8.29-11.41-8.29-19.66c0-7.83,2.69-14.27,8.08-19.32
						c5.39-5.05,11.57-7.58,18.56-7.58c6.84,0,13.05,2.47,18.61,7.4C140.57,992.65,143.45,999.99,143.66,1009.75z M133.35,1002.49
						c-0.7-3.58-2.56-6.82-5.58-9.71c-3.02-2.9-6.72-4.34-11.11-4.34c-4,0-7.42,1.31-10.27,3.92c-2.84,2.61-4.58,5.99-5.21,10.13
						H133.35z"/>
					<path class="st10" d="M218.09,1023.81v8.9H199.3v-5.84c-5.86,4.46-11.48,6.69-16.85,6.69c-3.4,0-6.22-0.75-8.45-2.24
						c-2.23-1.49-3.71-3.42-4.45-5.79c-0.74-2.37-1.11-6.18-1.11-11.45v-23.43h-7.21v-8.9h17.21v31.06c0,3.75,0.11,6.28,0.32,7.58
						c0.21,1.3,0.82,2.37,1.84,3.21c1.02,0.84,2.3,1.26,3.84,1.26c4.63,0,9.58-2.21,14.84-6.63v-27.58h-9v-8.9h19v42.06H218.09z"/>
					<path class="st10" d="M242.56,1023.81v-33.16h-10.26v-8.9h18.27v11.48c1.12-2.98,2.68-5.46,4.68-7.42
						c2-1.97,4.11-3.26,6.34-3.9c2.23-0.63,5.27-0.95,9.13-0.95h2.63v10.11h-2c-5.09,0-8.89,0.51-11.4,1.53
						c-2.51,1.02-4.37,2.87-5.58,5.55c-1.21,2.69-1.82,7.5-1.82,14.45v11.21h11.11v8.9h-31.37v-8.9H242.56z"/>
					<path class="st10" d="M297.08,1023.81v-33.16h-7.9v-8.9h17.9v42.06h7.9v8.9h-25.79v-8.9H297.08z M295.66,964.43
						c0-1.61,0.57-3.02,1.71-4.21c1.14-1.19,2.59-1.79,4.34-1.79c1.65,0,3.07,0.58,4.26,1.74c1.19,1.16,1.79,2.58,1.79,4.26
						c0,1.69-0.6,3.12-1.79,4.29c-1.19,1.18-2.61,1.76-4.26,1.76c-1.68,0-3.12-0.6-4.29-1.79
						C296.25,967.5,295.66,966.08,295.66,964.43z"/>
					<path class="st10" d="M332.34,1032.7v-17.48h8.95v1.68c0.32,2.39,1.61,4.35,3.87,5.9c2.26,1.54,4.94,2.32,8.03,2.32
						c3.23,0,5.81-0.56,7.74-1.68c1.93-1.12,2.89-2.69,2.89-4.68c0-1.93-0.8-3.35-2.4-4.26c-1.6-0.91-4.77-1.75-9.5-2.52
						c-7.02-1.19-12.03-3.1-15.03-5.75c-3-2.65-4.5-6.08-4.5-10.3c0-4.25,1.63-7.8,4.9-10.67c3.26-2.86,7.56-4.29,12.9-4.29
						c4.81,0,8.95,0.99,12.42,2.97v-2.18h8.9v16.9h-8.9v-3.1c-2.7-4.18-6.63-6.26-11.79-6.26c-2.63,0-4.8,0.57-6.5,1.71
						c-1.7,1.14-2.55,2.66-2.55,4.55c0,1.93,0.78,3.25,2.34,3.97c1.56,0.72,4.92,1.48,10.08,2.28c4.95,0.77,8.69,1.67,11.21,2.71
						c2.53,1.04,4.62,2.76,6.29,5.16c1.67,2.4,2.5,5.2,2.5,8.4c0,4.74-1.82,8.51-5.45,11.3c-3.63,2.79-8.34,4.19-14.13,4.19
						c-5.44,0-9.88-1.24-13.32-3.71v2.86H332.34z"/>
				</g>
				<g>
					<path class="st10" d="M140.03,941.5v-4.75h1.64v1.16c0.78,1.42,1.81,2.13,3.07,2.13c0.65,0,1.19-0.2,1.64-0.59
						c0.45-0.39,0.67-0.91,0.67-1.55c0-0.62-0.18-1.07-0.55-1.34c-0.36-0.27-1.05-0.54-2.06-0.81c-1.17-0.31-2.04-0.61-2.6-0.89
						c-0.56-0.28-1.01-0.68-1.35-1.19c-0.34-0.52-0.5-1.13-0.5-1.84c0-1.1,0.37-1.97,1.09-2.63c0.73-0.65,1.65-0.98,2.75-0.98
						c1.05,0,2.02,0.34,2.91,1.02v-0.87h1.6v3.97h-1.6v-0.91c-0.67-1.01-1.59-1.51-2.77-1.51c-0.71,0-1.26,0.16-1.64,0.49
						c-0.38,0.33-0.57,0.72-0.57,1.18c0,0.35,0.1,0.66,0.29,0.92c0.19,0.27,0.44,0.46,0.74,0.59c0.3,0.13,0.89,0.3,1.78,0.53
						c1.15,0.3,1.99,0.58,2.51,0.84c0.52,0.26,0.97,0.69,1.34,1.3c0.38,0.61,0.56,1.31,0.56,2.1c0,1.12-0.39,2.04-1.18,2.76
						c-0.79,0.73-1.76,1.09-2.92,1.09c-1.19,0-2.26-0.43-3.21-1.29v1.08H140.03z"/>
					<path class="st10" d="M161.82,937.4h-7.65c0.11,0.84,0.44,1.52,1,2.04c0.55,0.52,1.26,0.78,2.11,0.78c1.25,0,2.23-0.5,2.96-1.5
						l1.58,0.7c-0.51,0.8-1.18,1.39-2,1.77c-0.82,0.39-1.68,0.58-2.58,0.58c-1.39,0-2.58-0.43-3.57-1.3
						c-0.99-0.87-1.48-2.04-1.48-3.51c0-1.4,0.48-2.55,1.44-3.45c0.96-0.9,2.07-1.35,3.31-1.35c1.22,0,2.33,0.44,3.32,1.32
						C161.27,934.35,161.79,935.66,161.82,937.4z M159.98,936.1c-0.13-0.64-0.46-1.22-1-1.73c-0.54-0.52-1.2-0.77-1.98-0.77
						c-0.71,0-1.33,0.23-1.83,0.7c-0.51,0.47-0.82,1.07-0.93,1.81H159.98z"/>
					<path class="st10" d="M166.46,939.91v-9.9h-1.62v-1.59h3.4v11.48h1.39v1.59h-4.79v-1.59H166.46z"/>
					<path class="st10" d="M182.33,937.4h-7.65c0.11,0.84,0.44,1.52,1,2.04c0.55,0.52,1.26,0.78,2.11,0.78c1.25,0,2.23-0.5,2.96-1.5
						l1.58,0.7c-0.51,0.8-1.18,1.39-2,1.77c-0.82,0.39-1.68,0.58-2.58,0.58c-1.39,0-2.58-0.43-3.57-1.3
						c-0.99-0.87-1.48-2.04-1.48-3.51c0-1.4,0.48-2.55,1.44-3.45c0.96-0.9,2.07-1.35,3.31-1.35c1.22,0,2.33,0.44,3.32,1.32
						C181.77,934.35,182.29,935.66,182.33,937.4z M180.48,936.1c-0.13-0.64-0.46-1.22-1-1.73c-0.54-0.52-1.2-0.77-1.98-0.77
						c-0.71,0-1.33,0.23-1.83,0.7c-0.51,0.47-0.82,1.07-0.93,1.81H180.48z"/>
					<path class="st10" d="M194.27,932.4v3.44h-1.6c-0.08-0.66-0.35-1.16-0.8-1.51c-0.45-0.35-0.98-0.53-1.58-0.53
						c-0.8,0-1.45,0.28-1.95,0.85c-0.5,0.57-0.75,1.31-0.75,2.23c0,0.86,0.24,1.61,0.71,2.27c0.48,0.65,1.17,0.98,2.07,0.98
						c1.25,0,2.16-0.6,2.73-1.79l1.48,0.7c-0.81,1.81-2.24,2.72-4.28,2.72c-1.44,0-2.58-0.49-3.4-1.48
						c-0.83-0.98-1.24-2.12-1.24-3.4c0-1.37,0.45-2.51,1.35-3.4c0.9-0.89,1.94-1.34,3.12-1.34c1.01,0,1.86,0.3,2.56,0.89v-0.64
						H194.27z"/>
					<path class="st10" d="M197.5,933.99v-1.59h1.18V931l1.79-1.64v3.04h1.68v1.59h-1.68v4.42c0,0.71,0.04,1.15,0.12,1.31
						c0.08,0.17,0.27,0.25,0.59,0.25c0.33,0,0.66-0.06,0.98-0.19v1.63c-0.46,0.16-0.91,0.24-1.37,0.24c-0.55,0-0.99-0.12-1.33-0.36
						c-0.34-0.24-0.55-0.54-0.64-0.91c-0.09-0.36-0.13-0.99-0.13-1.88v-4.51H197.5z"/>
					<path class="st10" d="M212.18,941.5v-3.12h1.6v0.3c0.06,0.43,0.29,0.78,0.69,1.05c0.4,0.27,0.88,0.41,1.43,0.41
						c0.58,0,1.04-0.1,1.38-0.3c0.34-0.2,0.52-0.48,0.52-0.84c0-0.34-0.14-0.6-0.43-0.76c-0.28-0.16-0.85-0.31-1.7-0.45
						c-1.25-0.21-2.15-0.55-2.68-1.03c-0.54-0.47-0.8-1.09-0.8-1.84c0-0.76,0.29-1.39,0.87-1.9c0.58-0.51,1.35-0.77,2.3-0.77
						c0.86,0,1.6,0.18,2.22,0.53v-0.39h1.59v3.02h-1.59v-0.55c-0.48-0.75-1.18-1.12-2.11-1.12c-0.47,0-0.86,0.1-1.16,0.31
						c-0.3,0.2-0.46,0.48-0.46,0.81c0,0.34,0.14,0.58,0.42,0.71c0.28,0.13,0.88,0.26,1.8,0.41c0.88,0.14,1.55,0.3,2,0.48
						c0.45,0.19,0.83,0.49,1.12,0.92c0.3,0.43,0.45,0.93,0.45,1.5c0,0.85-0.32,1.52-0.97,2.02c-0.65,0.5-1.49,0.75-2.52,0.75
						c-0.97,0-1.76-0.22-2.38-0.66v0.51H212.18z"/>
					<path class="st10" d="M224.17,939.91v-9.9h-1.64v-1.59h3.43v5.02c1.07-0.86,2.09-1.3,3.05-1.3c0.6,0,1.1,0.12,1.48,0.38
						c0.39,0.25,0.65,0.58,0.79,0.99c0.14,0.41,0.21,1.01,0.21,1.8v4.6h1.55v1.59h-3.34v-5.56c0-0.69-0.02-1.15-0.07-1.38
						c-0.04-0.23-0.16-0.42-0.36-0.57c-0.2-0.15-0.43-0.23-0.7-0.23c-0.69,0-1.57,0.39-2.63,1.17v4.98h1.58v1.59h-5.01v-1.59H224.17
						z"/>
					<path class="st10" d="M235.82,936.95c0-1.4,0.46-2.55,1.39-3.45c0.93-0.9,2.06-1.35,3.39-1.35c1.31,0,2.43,0.44,3.37,1.33
						c0.94,0.89,1.41,2.04,1.41,3.47c0,1.43-0.47,2.59-1.41,3.48c-0.94,0.89-2.06,1.34-3.38,1.34c-1.35,0-2.49-0.45-3.41-1.35
						C236.28,939.51,235.82,938.35,235.82,936.95z M237.71,936.94c0,0.9,0.28,1.63,0.84,2.21c0.56,0.57,1.25,0.86,2.05,0.86
						c0.82,0,1.51-0.29,2.06-0.87c0.55-0.58,0.83-1.31,0.83-2.2c0-0.89-0.28-1.63-0.85-2.2c-0.56-0.58-1.25-0.87-2.05-0.87
						c-0.84,0-1.53,0.29-2.08,0.88C237.98,935.35,237.71,936.08,237.71,936.94z"/>
					<path class="st10" d="M249.84,943.99v-10h-1.53v-1.59h3.32v1.43c0.89-1.05,1.97-1.57,3.23-1.57c1.28,0,2.34,0.44,3.17,1.32
						c0.84,0.88,1.25,2.02,1.25,3.42c0,1.47-0.45,2.64-1.36,3.49c-0.91,0.85-1.94,1.28-3.1,1.28c-1.2,0-2.27-0.46-3.19-1.39v3.62
						h1.77v1.59h-5.22v-1.59H249.84z M251.6,937.08c0,0.5,0.1,0.98,0.31,1.44c0.21,0.46,0.54,0.84,0.99,1.15
						c0.45,0.31,0.98,0.47,1.59,0.47c0.85,0,1.56-0.29,2.11-0.86c0.55-0.57,0.83-1.35,0.83-2.35c0-0.97-0.29-1.73-0.87-2.27
						c-0.58-0.54-1.24-0.82-1.98-0.82c-0.79,0-1.48,0.3-2.08,0.89C251.89,935.32,251.6,936.1,251.6,937.08z"/>
				</g>
				<g>
					<g>
						
							<radialGradient id="SVGID_1_" cx="112.1191" cy="841.1279" r="211.082" gradientTransform="matrix(0.6473 0 0 0.6473 113.127 204.6628)" gradientUnits="userSpaceOnUse">
							<stop  offset="0.3515" style="stop-color:#FFFFFF"/>
							<stop  offset="1" style="stop-color:#DCF0FF"/>
						</radialGradient>
						<path class="st15" d="M178.97,725.67c0,0,10.24-77.58,40.82-107.82c-25.66-3.53-51.77-2.54-72.22,1.45
							C137.78,639.75,170.43,712.98,178.97,725.67z"/>
						
							<radialGradient id="SVGID_2_" cx="112.1195" cy="841.1272" r="211.0831" gradientTransform="matrix(0.6473 0 0 0.6473 113.127 204.6628)" gradientUnits="userSpaceOnUse">
							<stop  offset="0.3515" style="stop-color:#FFFFFF"/>
							<stop  offset="1" style="stop-color:#DCF0FF"/>
						</radialGradient>
						<path class="st16" d="M172.03,779.89c0,0-59.59,38.2-64.93,74.11c-0.21,1.38-0.42,2.66-0.64,3.86
							c22.92,14.01,52.5,21.44,87.21,18.52C185.93,865.85,168.62,835.67,172.03,779.89z"/>
						
							<radialGradient id="SVGID_3_" cx="112.1186" cy="841.1288" r="211.0805" gradientTransform="matrix(0.6473 0 0 0.6473 113.127 204.6628)" gradientUnits="userSpaceOnUse">
							<stop  offset="0.3515" style="stop-color:#FFFFFF"/>
							<stop  offset="1" style="stop-color:#DCF0FF"/>
						</radialGradient>
						<path class="st17" d="M146.06,761.56c0,0-33.5-15.96-92.92,2.02c0.16,2.89,0.34,5.83,0.53,8.82
							c1.79,26.99,13.83,52.35,34.17,71.35C88.84,825.22,99.19,794.84,146.06,761.56z"/>
						
							<radialGradient id="SVGID_4_" cx="112.1194" cy="841.1279" r="211.0811" gradientTransform="matrix(0.6473 0 0 0.6473 113.127 204.6628)" gradientUnits="userSpaceOnUse">
							<stop  offset="0.3515" style="stop-color:#FFFFFF"/>
							<stop  offset="1" style="stop-color:#DCF0FF"/>
						</radialGradient>
						<path class="st18" d="M154.46,734.11c-12.39-20.11-34.38-77.75-28.71-108.54c-2.69,1.12-5.13,2.32-7.25,3.58
							c-56.51,38.01-66.73,72.01-65.93,119.26C64.12,739.33,92.88,725.06,154.46,734.11z"/>
					</g>
					<g>
						
							<radialGradient id="SVGID_5_" cx="84.4134" cy="858.4444" r="245.0635" gradientTransform="matrix(0.6473 0 0 0.6473 113.127 204.6628)" gradientUnits="userSpaceOnUse">
							<stop  offset="0.3515" style="stop-color:#FFFFFF"/>
							<stop  offset="1" style="stop-color:#D7AFFF"/>
						</radialGradient>
						<path class="st19" d="M225.48,750.76c0,0,58.57,9.98,75.52,44.37c17.06-33.23,24.33-71.34,17.83-103.57
							C308.5,693.12,266.04,702.22,225.48,750.76z"/>
						
							<radialGradient id="SVGID_6_" cx="84.4141" cy="858.4443" r="245.0621" gradientTransform="matrix(0.6473 0 0 0.6473 113.127 204.6628)" gradientUnits="userSpaceOnUse">
							<stop  offset="0.3515" style="stop-color:#FFFFFF"/>
							<stop  offset="1" style="stop-color:#D7AFFF"/>
						</radialGradient>
						<path class="st20" d="M315.41,678.78c-0.01-0.02-0.02-0.05-0.03-0.08c-10.68-31.42-41.7-49.14-76.56-57.33
							c-6.66,18.73-27.32,79.2-28.6,112.58C210.23,733.94,262.81,680.79,315.41,678.78z"/>
						
							<radialGradient id="SVGID_7_" cx="84.4138" cy="858.4449" r="245.0617" gradientTransform="matrix(0.6473 0 0 0.6473 113.127 204.6628)" gradientUnits="userSpaceOnUse">
							<stop  offset="0.3515" style="stop-color:#FFFFFF"/>
							<stop  offset="1" style="stop-color:#D7AFFF"/>
						</radialGradient>
						<path class="st21" d="M207.17,777.6c0,0-10.75,69,0.38,96.84c36.65-7.58,67.53-34.92,87.8-69.08
							C286.7,795.94,260.96,774.61,207.17,777.6z"/>
					</g>
				</g>
			</g>
		</g>
	</g>
</g>
</svg>
