<?xml version="1.0" encoding="utf-8"?>
<!-- Generator: Adobe Illustrator 15.1.0, SVG Export Plug-In . SVG Version: 6.00 Build 0)  -->
<!DOCTYPE svg PUBLIC "-//W3C//DTD SVG 1.1//EN" "http://www.w3.org/Graphics/SVG/1.1/DTD/svg11.dtd">
<svg version="1.1" id="レイヤー_1" xmlns="http://www.w3.org/2000/svg" xmlns:xlink="http://www.w3.org/1999/xlink" x="0px"
	 y="0px" width="300px" height="359px" viewBox="0 0 300 359" enable-background="new 0 0 300 359" xml:space="preserve">
<g>
	<g>
		<path fill="#008CCA" d="M146.494,16.48c1.019-9.243,2.686-9.243,3.705,0l10.078,91.436c1.019,9.243,9.415,17.64,18.658,18.658
			l91.434,10.077c9.243,1.019,9.243,2.687,0,3.705l-91.434,10.078c-9.243,1.019-17.64,9.415-18.658,18.658l-10.078,91.434
			c-1.019,9.243-2.686,9.243-3.705,0l-10.079-91.434c-1.019-9.243-9.415-17.64-18.658-18.658l-91.433-10.078
			c-9.243-1.019-9.243-2.687,0-3.705l91.433-10.077c9.243-1.019,17.639-9.415,18.658-18.658L146.494,16.48z"/>
	</g>
	<g>
		<path fill="#008CCA" d="M100.153,206.714c0-37.673,21.577-68.21,48.192-68.21c-26.615,0-48.192-30.538-48.192-68.209
			c0-37.649,21.554-68.174,48.149-68.209C95.09,2.121,51.961,63.185,51.961,138.504c0,75.32,43.129,136.381,96.341,136.417
			C121.708,274.887,100.153,244.363,100.153,206.714z"/>
		<path fill="#008CCA" d="M244.73,138.504c0-75.32-43.128-136.384-96.34-136.418c26.595,0.035,48.149,30.56,48.149,68.209
			c0,37.671-21.578,68.209-48.195,68.209c26.617,0,48.195,30.537,48.195,68.21c0,37.649-21.555,68.173-48.149,68.207
			C201.603,274.887,244.73,213.824,244.73,138.504z"/>
		<path fill="#231815" d="M148.391,2.086c-0.014,0-0.029-0.002-0.045-0.002c-0.014,0-0.029,0.002-0.043,0.002
			c0.014,0,0.029,0,0.043,0C148.362,2.086,148.377,2.086,148.391,2.086z"/>
		<path fill="#231815" d="M148.302,274.921c0.014,0,0.029,0.001,0.043,0.001c0.017,0,0.032-0.001,0.045-0.001
			c-0.014,0-0.029,0.001-0.045,0.001C148.332,274.922,148.316,274.921,148.302,274.921z"/>
	</g>
	<g>
		<g>
			<path fill="#005CAC" d="M148.345,9.244c34.527,0,66.987,13.445,91.401,37.859c24.414,24.415,37.86,56.875,37.86,91.401
				s-13.446,66.986-37.86,91.4s-56.874,37.859-91.401,37.859c-34.526,0-66.986-13.445-91.4-37.859
				c-24.414-24.414-37.859-56.874-37.859-91.4s13.445-66.987,37.859-91.401C81.359,22.689,113.819,9.244,148.345,9.244
				 M148.345,2.086c-75.341,0-136.417,61.077-136.417,136.418s61.075,136.417,136.417,136.417s136.418-61.076,136.418-136.417
				S223.687,2.086,148.345,2.086L148.345,2.086z"/>
		</g>
	</g>
	<g>
		<path fill="#005CAC" d="M-0.324,356.882l1.511-21.316l0.697-15.538l0.193-6.911c0.052-2.003,0.078-3.931,0.078-5.778l-0.039-3.748
			c4.091,0.053,7.152,0.079,9.185,0.079c1.589,0,4.352-0.026,8.286-0.079c-0.617,7.472-1.016,14.067-1.195,19.795h21.251
			c0.129-2.139,0.251-5.028,0.368-8.665c0.116-3.64,0.174-6.123,0.174-7.451c0-0.706-0.026-1.932-0.078-3.679l9.24,0.079
			c0.962,0,3.69-0.026,8.188-0.079c-0.93,13.378-1.524,23.327-1.782,29.849c-0.259,6.519-0.387,14.333-0.387,23.443l-8.52-0.077
			c-1.277,0-4.325,0.025-9.145,0.077c0.651-6.193,1.094-13.404,1.328-21.629H17.762l-0.655,21.629l-9.068-0.077
			C6.893,356.805,4.104,356.83-0.324,356.882z"/>
		<path fill="#005CAC" d="M64.916,356.882c0.652-6.715,1.128-12.337,1.428-16.866c0.301-4.527,0.601-10.548,0.9-18.057
			c0.301-7.51,0.45-12.486,0.45-14.933l-0.039-3.437c6.141,0.053,13.57,0.079,22.289,0.079c8.042,0,15.133-0.026,21.274-0.079
			l-0.078,1.283c-0.026,0.313-0.091,1.44-0.195,3.386l-0.234,4.243c-0.052,0.908-0.078,1.828-0.078,2.763
			c-5.024-0.21-9.24-0.314-12.649-0.314c-3.749,0-6.28,0.007-7.594,0.021c-1.314,0.015-3.364,0.072-6.149,0.175l-0.474,8.979
			c3.072,0.08,6.652,0.119,10.739,0.119c1.458,0,5.337-0.091,11.637-0.274c-0.26,3.331-0.507,7.302-0.741,11.908
			c-4.5-0.052-7.96-0.077-10.379-0.077c-3.59,0-7.609,0.091-12.058,0.272l-0.464,9.487h4.487c1.326,0,4.071-0.039,8.232-0.116
			l8.077-0.196c1.196-0.025,3.199-0.13,6.008-0.312c-0.313,3.852-0.573,7.833-0.781,11.945c-6.351-0.052-13.313-0.077-20.887-0.077
			l-17.179,0.037L64.916,356.882z"/>
		<path fill="#005CAC" d="M120.013,303.59c4.059,0.053,6.92,0.079,8.585,0.079c2.081,0,4.852-0.026,8.312-0.079l-1.162,16.594
			c-0.232,3.122-0.407,6.051-0.523,8.783c-0.116,2.733-0.174,4.62-0.174,5.662c0,1.978,0.144,3.63,0.429,4.958
			c0.287,1.328,0.806,2.453,1.561,3.376c0.754,0.925,1.8,1.621,3.14,2.09s2.736,0.704,4.194,0.704c1.248,0,2.418-0.171,3.511-0.513
			c0.857-0.28,1.625-0.667,2.301-1.163c0.598-0.464,1.119-1.007,1.561-1.626c0.545-0.743,1.027-1.673,1.443-2.789
			c0.416-1.053,0.727-2.418,0.937-4.092c0.234-1.705,0.547-5.577,0.937-11.621c0.339-5.146,0.599-9.855,0.782-14.134
			c0.156-4.154,0.299-6.229,0.43-6.229c3.93,0,7.027,0,9.292,0h7.924l-1.897,27.721c-0.026,0.52-0.039,0.948-0.039,1.289
			c-0.104,5.412-0.436,9.233-0.996,11.458c-0.561,2.226-1.49,4.157-2.792,5.797c-1.302,1.641-3.203,3.118-5.701,4.432
			c-2.5,1.314-5.338,2.244-8.514,2.791c-3.177,0.548-6.393,0.82-9.646,0.82c-2.917,0-5.728-0.21-8.436-0.624
			c-2.5-0.417-4.752-1.021-6.757-1.815c-2.005-0.794-3.75-1.724-5.233-2.791c-1.354-0.99-2.396-1.999-3.125-3.026
			s-1.302-2.258-1.719-3.69c-0.468-1.612-0.703-3.344-0.703-5.191c0-0.624,0.026-1.568,0.078-2.831s0.17-3.078,0.353-5.447
			l0.51-6.246c0.13-1.641,0.274-4.048,0.431-7.223L120.013,303.59z"/>
		<path fill="#005CAC" d="M179.737,356.882c0.496-4.581,0.888-8.707,1.176-12.377c0.286-3.669,0.534-7.924,0.743-12.766
			c0.209-4.841,0.366-9.948,0.47-15.323c0.104-5.375,0.157-9.65,0.157-12.826c3.252,0.079,5.882,0.116,7.886,0.116
			c2.08,0,4.619-0.059,7.611-0.175c2.993-0.116,5.907-0.175,8.744-0.175c3.331,0,6.298,0.131,8.9,0.39
			c1.951,0.184,3.727,0.561,5.327,1.132c1.601,0.573,2.947,1.27,4.042,2.09c1.093,0.82,2.003,1.736,2.731,2.752
			s1.294,2.206,1.698,3.571c0.403,1.368,0.604,2.831,0.604,4.393c0,1.745-0.221,3.378-0.662,4.899
			c-0.444,1.523-1.14,2.954-2.089,4.296c-0.951,1.34-2.148,2.498-3.593,3.475c-1.444,0.976-3.469,1.971-6.071,2.986l2.031,4.959
			c0.571,1.379,1.184,2.786,1.835,4.217l5.231,11.438c0.234,0.496,0.65,1.473,1.249,2.929c-4.292-0.052-7.179-0.077-8.662-0.077
			c-1.872,0-4.941,0.025-9.207,0.077c-0.417-1.352-1.172-3.865-2.268-7.535c-0.442-1.535-0.82-2.719-1.134-3.553
			c-0.625-1.848-1.55-4.437-2.774-7.769l-4.026-11.048c1.406,0.259,2.785,0.389,4.14,0.389c1.898,0,3.624-0.286,5.172-0.859
			c1.549-0.571,2.719-1.456,3.514-2.654c0.793-1.197,1.19-2.46,1.19-3.786c0-1.12-0.299-2.102-0.898-2.949
			c-0.599-0.844-1.541-1.475-2.829-1.893c-1.289-0.417-3.273-0.624-5.954-0.624c-0.912,0-1.854,0.019-2.831,0.059
			c-0.977,0.039-2.114,0.072-3.416,0.098c-0.334,5.336-0.629,11.843-0.886,19.521c-0.257,7.679-0.423,15.214-0.5,22.604
			c-4.353-0.052-7.18-0.077-8.482-0.077C186.396,356.805,183.673,356.83,179.737,356.882z"/>
		<path fill="#005CAC" d="M235.997,356.882c1.5-20.899,2.251-36.985,2.251-48.255l-0.039-5.037c4.558,0.053,7.606,0.079,9.143,0.079
			c0.703,0,3.503-0.026,8.4-0.079c-0.471,5.857-0.849,11.4-1.136,16.633c-0.365,7.288-0.628,14.101-0.785,20.438
			c-0.156,6.337-0.233,11.745-0.233,16.221l-8-0.077C244.036,356.805,240.836,356.83,235.997,356.882z"/>
		<path fill="#005CAC" d="M262.702,356.062c-0.338-5.543-0.729-9.981-1.171-13.313c2.921,1.303,5.521,2.207,7.804,2.715
			c2.28,0.508,4.282,0.762,6.004,0.762c2.269,0,4.074-0.333,5.417-0.997c1.344-0.664,2.015-1.645,2.015-2.947
			c0-0.442-0.065-0.864-0.196-1.268c-0.13-0.403-0.379-0.859-0.743-1.368c-0.364-0.508-0.887-1.06-1.564-1.658l-7.355-6.402
			c-1.722-1.459-2.921-2.512-3.6-3.162c-1.382-1.328-2.458-2.565-3.228-3.709c-0.77-1.146-1.33-2.312-1.682-3.495
			c-0.354-1.184-0.528-2.439-0.528-3.768c0-1.587,0.279-3.144,0.839-4.667c0.56-1.521,1.399-2.947,2.519-4.272
			c1.119-1.328,2.603-2.475,4.45-3.438c1.848-0.962,3.827-1.619,5.935-1.971c2.108-0.352,4.281-0.526,6.521-0.526
			c4.398,0,9.188,0.506,14.367,1.521c0.078,1.796,0.169,3.443,0.274,4.939c0.104,1.495,0.351,4.119,0.741,7.865
			c-2.395-0.962-4.581-1.633-6.56-2.011c-1.978-0.375-3.684-0.565-5.114-0.565c-2.03,0-3.716,0.377-5.056,1.132
			c-1.341,0.755-2.011,1.694-2.011,2.813c0,0.52,0.104,1.027,0.313,1.521c0.208,0.496,0.599,1.074,1.172,1.738
			c0.571,0.664,1.326,1.393,2.264,2.185c0.938,0.795,2.407,1.974,4.411,3.535l2.812,2.225c0.833,0.679,1.73,1.496,2.694,2.461
			c0.962,0.962,1.795,1.913,2.499,2.85c0.702,0.937,1.241,1.796,1.619,2.576c0.377,0.781,0.657,1.568,0.84,2.363
			c0.182,0.794,0.273,1.645,0.273,2.556c0,2.344-0.561,4.576-1.68,6.696c-1.118,2.122-2.706,3.865-4.763,5.23
			c-2.056,1.367-4.313,2.323-6.773,2.87c-2.46,0.548-5.057,0.82-7.789,0.82C274.455,357.897,269.131,357.285,262.702,356.062z"/>
	</g>
</g>
</svg>
