<?xml version="1.0" encoding="utf-8"?>
<!-- Generator: Adobe Illustrator 15.1.0, SVG Export Plug-In . SVG Version: 6.00 Build 0)  -->
<!DOCTYPE svg PUBLIC "-//W3C//DTD SVG 1.1//EN" "http://www.w3.org/Graphics/SVG/1.1/DTD/svg11.dtd">
<svg version="1.1" id="レイヤー_1" xmlns="http://www.w3.org/2000/svg" xmlns:xlink="http://www.w3.org/1999/xlink" x="0px"
	 y="0px" width="360px" height="323px" viewBox="0 0 360 323" enable-background="new 0 0 360 323" xml:space="preserve">
<g>
	<g>
		<path fill="#005FA3" d="M57.895,175.9c0.027-0.033,0.057-0.063,0.086-0.093C57.951,175.838,57.923,175.867,57.895,175.9z"/>
		<path fill="#005FA3" d="M187.247,50.811c0.033-0.056,0.062-0.114,0.1-0.166C187.309,50.697,187.28,50.755,187.247,50.811z"/>
		<path fill="#005FA3" d="M59.311,175.24c-0.024,0-0.047,0.008-0.07,0.01c0.037-0.002,0.072-0.007,0.11-0.006
			C59.337,175.244,59.324,175.24,59.311,175.24z"/>
		<path fill="#005FA3" d="M177.118,23.263c0.033-0.029,0.068-0.053,0.102-0.08C177.187,23.21,177.151,23.234,177.118,23.263z"/>
		<path fill="#005FA3" d="M58.759,175.329c0.037-0.012,0.074-0.019,0.11-0.028C58.833,175.311,58.795,175.317,58.759,175.329z"/>
		<path fill="#005FA3" d="M186.99,51.66c0.005-0.126,0.023-0.25,0.054-0.368C187.014,51.41,186.995,51.534,186.99,51.66z"/>
		<path fill="#005FA3" d="M187.09,51.158c0.022-0.069,0.043-0.141,0.076-0.207C187.133,51.017,187.112,51.088,187.09,51.158z"/>
		<path fill="#005FA3" d="M187.456,50.518c0.04-0.046,0.081-0.095,0.124-0.138C187.537,50.423,187.496,50.472,187.456,50.518z"/>
		<path fill="#005FA3" d="M167.254,106.208c0.033-0.01,0.065-0.024,0.099-0.033C167.319,106.184,167.288,106.198,167.254,106.208z"
			/>
		<path fill="#005FA3" d="M188.696,49.89c0.079-0.007,0.158-0.017,0.239-0.013c-0.027-0.001-0.056-0.002-0.086-0.002
			C188.799,49.875,188.748,49.886,188.696,49.89z"/>
		<path fill="#005FA3" d="M166.839,106.389c0.041-0.023,0.08-0.047,0.122-0.067C166.919,106.342,166.879,106.365,166.839,106.389z"
			/>
		<path fill="#005FA3" d="M187.713,50.276c0.048-0.038,0.097-0.078,0.147-0.112C187.81,50.198,187.761,50.238,187.713,50.276z"/>
		<path fill="#005FA3" d="M167.783,106.123c-0.006,0-0.013,0.002-0.019,0.002c0.025,0,0.051,0.005,0.077,0.005
			C167.821,106.131,167.802,106.123,167.783,106.123z"/>
		<path fill="#005FA3" d="M188.01,50.086c0.057-0.028,0.109-0.059,0.168-0.082C188.119,50.027,188.066,50.058,188.01,50.086z"/>
		<path fill="#005FA3" d="M168.229,106.186c0.041,0.01,0.082,0.021,0.122,0.034C168.311,106.207,168.271,106.196,168.229,106.186z"
			/>
		<path fill="#005FA3" d="M188.341,49.956c0.061-0.018,0.122-0.038,0.183-0.049C188.46,49.918,188.401,49.938,188.341,49.956z"/>
		<path fill="#005FA3" d="M58.286,175.554c0.02-0.013,0.038-0.03,0.058-0.042C58.323,175.523,58.306,175.541,58.286,175.554z"/>
		<path fill="#005FA3" d="M127.187,151.689c0.024-0.01,0.049-0.023,0.075-0.032C127.235,151.666,127.211,151.679,127.187,151.689z"
			/>
		<path fill="#005FA3" d="M128.529,151.689c0.047,0.018,0.095,0.034,0.141,0.056C128.624,151.723,128.576,151.707,128.529,151.689z"
			/>
		<path fill="#005FA3" d="M127.856,151.555c-0.018,0-0.034,0.008-0.052,0.009c0.043,0,0.086-0.002,0.13,0
			C127.908,151.562,127.882,151.555,127.856,151.555z"/>
		<path fill="#005FA3" d="M128.153,151.586c0.053,0.008,0.105,0.017,0.157,0.03C128.258,151.603,128.206,151.595,128.153,151.586z"
			/>
		<path fill="#005FA3" d="M102.348,168.691c0.043-0.012,0.087-0.018,0.132-0.025C102.435,168.674,102.391,168.68,102.348,168.691z"
			/>
		<path fill="#005FA3" d="M150.45,130.582c0.104,0.059,0.203,0.129,0.296,0.211C150.653,130.711,150.554,130.642,150.45,130.582z"/>
		<path fill="#005FA3" d="M103.245,168.682c0.032,0.008,0.064,0.012,0.096,0.02C103.309,168.692,103.276,168.689,103.245,168.682z"
			/>
		<path fill="#005FA3" d="M103.745,168.873c0.03,0.017,0.058,0.039,0.087,0.059C103.802,168.912,103.775,168.89,103.745,168.873z"/>
		<path fill="#005FA3" d="M104.109,169.15c0.031,0.029,0.063,0.059,0.092,0.092C104.172,169.209,104.14,169.18,104.109,169.15z"/>
		<path fill="#005FA3" d="M150.129,130.436c0.075,0.026,0.148,0.062,0.22,0.097C150.277,130.498,150.205,130.462,150.129,130.436z"
			/>
		<path fill="#005FA3" d="M149.794,130.354c0.07,0.01,0.139,0.028,0.207,0.046C149.933,130.382,149.864,130.365,149.794,130.354z"/>
		<path fill="#005FA3" d="M149.518,130.33c-0.019,0-0.038,0.006-0.059,0.006c0.065-0.002,0.127,0.001,0.191,0.005
			C149.607,130.339,149.563,130.33,149.518,130.33z"/>
		<path fill="#005FA3" d="M59.61,175.273c0.042,0.006,0.084,0.008,0.126,0.018C59.694,175.281,59.652,175.279,59.61,175.273z"/>
		<path fill="#005FA3" d="M128.892,151.878c0.036,0.023,0.074,0.043,0.109,0.07C128.966,151.921,128.928,151.902,128.892,151.878z"
			/>
		<path fill="#005FA3" d="M148.403,130.7c0.036-0.026,0.075-0.045,0.112-0.069C148.478,130.655,148.438,130.673,148.403,130.7z"/>
		<path fill="#005FA3" d="M149.089,130.383c0.051-0.012,0.103-0.017,0.154-0.025C149.192,130.366,149.14,130.372,149.089,130.383z"
			/>
		<path fill="#005FA3" d="M148.732,130.505c0.045-0.021,0.094-0.035,0.141-0.052C148.826,130.47,148.779,130.484,148.732,130.505z"
			/>
		<path fill="#005FA3" d="M180.771,79.571c0.007-0.006,0.018-0.009,0.025-0.015C180.788,79.563,180.777,79.565,180.771,79.571z"/>
		<path fill="#005FA3" d="M180.335,79.988c0.023-0.031,0.049-0.062,0.074-0.091C180.384,79.927,180.358,79.957,180.335,79.988z"/>
		<path fill="#005FA3" d="M181.207,79.362c0.039-0.013,0.074-0.025,0.109-0.035C181.281,79.337,181.246,79.35,181.207,79.362z"/>
		<path fill="#005FA3" d="M102.822,168.625c-0.022,0-0.045,0.008-0.067,0.008c0.046-0.002,0.093,0,0.139,0.002
			C102.87,168.634,102.847,168.625,102.822,168.625z"/>
		<path fill="#005FA3" d="M182.146,79.287c0.12,0.022,0.239,0.055,0.356,0.102C182.385,79.342,182.266,79.309,182.146,79.287z"/>
		<path fill="#005FA3" d="M181.808,79.254c-0.005,0-0.01,0.002-0.013,0.002c0.074,0,0.15,0.01,0.227,0.019
			C181.95,79.266,181.879,79.254,181.808,79.254z"/>
		<path fill="#005FA3" d="M178.361,22.785c-0.022,0-0.045,0.007-0.068,0.008c0.028-0.001,0.054-0.006,0.082-0.006
			C178.369,22.787,178.367,22.785,178.361,22.785z"/>
		<path fill="#005FA3" d="M177.843,22.867c0.044-0.012,0.087-0.027,0.133-0.037C177.93,22.84,177.889,22.854,177.843,22.867z"/>
		<path fill="#005FA3" d="M177.459,23.025c0.041-0.023,0.084-0.044,0.127-0.063C177.543,22.981,177.5,23.002,177.459,23.025z"/>
		<path fill="#005FA3" d="M178.86,22.86c0.035,0.01,0.071,0.022,0.109,0.034C178.932,22.882,178.896,22.87,178.86,22.86z"/>
		<path fill="#005FA3" d="M166.494,106.647c0.032-0.03,0.066-0.057,0.101-0.084C166.56,106.59,166.526,106.617,166.494,106.647z"/>
		<path fill="#005FA3" d="M80.575,174.11l31.402-70.747l-4.071-2.148l-31.209,70.31C78.219,172.012,79.556,172.915,80.575,174.11z"
			/>
		<path fill="#005FA3" d="M130.602,143.079c0.038-2.169,0.886-4.199,2.391-5.753l-14.072-30.296l-6.708-3.541L130.602,143.079z"/>
		<path fill="#005FA3" d="M81.283,30.567c-0.922-0.181-2.339-0.384-4.056-0.384c-4.762,0-11.685,1.575-17.618,9.077
			c-8.161,10.316-4.951,19.891-3.479,23.086l27.12,14.314l18.199-23.009L81.283,30.567z"/>
		<polygon fill="#005FA3" points="111.549,65.212 96.826,83.826 113.575,92.667 124.009,79.475 		"/>
		<polygon fill="#005FA3" points="152.205,111.75 134.109,91.036 127.151,99.833 151.476,112.671 		"/>
		<polygon fill="#005FA3" points="130.603,29.873 140.222,24.816 149.841,29.873 148.003,19.161 155.787,11.575 145.031,10.013 
			140.222,0.267 135.413,10.013 124.657,11.575 132.439,19.161 		"/>
		<polygon fill="#005FA3" points="42.93,149.488 63.257,160.175 59.375,137.541 75.82,121.511 53.093,118.208 42.93,97.615 
			32.768,118.208 10.04,121.511 26.486,137.541 22.603,160.175 		"/>
		<path fill="#005FA3" d="M150.519,9.236c0.125,0,0.252-0.013,0.378-0.039c2.44-0.501,4.851-0.858,7.172-1.062
			c1.025-0.09,1.784-0.996,1.695-2.022c-0.091-1.026-0.982-1.781-2.024-1.697c-2.459,0.216-5.015,0.594-7.594,1.125
			c-1.009,0.208-1.661,1.194-1.453,2.204C148.875,8.628,149.651,9.236,150.519,9.236z"/>
		<path fill="#005FA3" d="M162.069,136.431c-0.234,0.277-0.465,0.554-0.701,0.832c-3.072,3.633-6.285,7.189-9.543,10.572
			c-0.714,0.743-0.693,1.925,0.05,2.64c0.362,0.349,0.828,0.523,1.294,0.523c0.489,0,0.979-0.192,1.344-0.572
			c3.315-3.44,6.582-7.056,9.705-10.75c0.238-0.283,0.477-0.565,0.713-0.85c0.662-0.79,0.556-1.968-0.234-2.628
			C163.907,135.535,162.729,135.638,162.069,136.431z"/>
		<path fill="#005FA3" d="M172.845,9.059c4.958,1.16,9.428,3.196,13.283,6.049c0.333,0.247,0.723,0.367,1.106,0.367
			c0.572,0,1.137-0.264,1.503-0.758c0.615-0.829,0.438-1.998-0.389-2.61c-4.268-3.157-9.198-5.405-14.654-6.684
			c-1.002-0.236-2.006,0.388-2.242,1.391C171.216,7.819,171.841,8.823,172.845,9.059z"/>
		<path fill="#005FA3" d="M200.965,54.944c-0.382,4.728-1.236,9.744-2.546,14.913c-0.252,0.999,0.354,2.014,1.353,2.268
			c0.155,0.04,0.308,0.057,0.461,0.057c0.831,0,1.592-0.563,1.808-1.409c1.358-5.37,2.248-10.595,2.647-15.528
			c0.084-1.027-0.685-1.928-1.712-2.011C201.959,53.148,201.048,53.917,200.965,54.944z"/>
		<path fill="#005FA3" d="M200.479,39.984c0.147,0.916,0.941,1.565,1.839,1.565c0.099,0,0.203-0.008,0.305-0.025
			c1.018-0.166,1.707-1.126,1.539-2.144c-0.913-5.598-2.652-10.703-5.165-15.17c-0.506-0.899-1.643-1.215-2.543-0.711
			c-0.897,0.505-1.218,1.643-0.712,2.542C198.04,30.126,199.632,34.817,200.479,39.984z"/>
		<path fill="#005FA3" d="M140.802,158.469c-3.864,3.459-7.834,6.736-11.801,9.74c-0.822,0.623-0.984,1.793-0.361,2.615
			c0.366,0.484,0.925,0.74,1.49,0.74c0.392,0,0.788-0.123,1.125-0.379c4.048-3.065,8.099-6.406,12.038-9.934
			c0.768-0.688,0.835-1.868,0.146-2.637C142.751,157.847,141.571,157.782,140.802,158.469z"/>
		<path fill="#005FA3" d="M196.163,83.278c-0.961-0.373-2.042,0.103-2.416,1.063c-1.78,4.579-3.881,9.267-6.245,13.936
			c-0.466,0.919-0.097,2.043,0.823,2.509c0.268,0.137,0.558,0.201,0.84,0.201c0.681,0,1.337-0.375,1.668-1.023
			c2.418-4.778,4.572-9.578,6.394-14.27C197.6,84.734,197.124,83.653,196.163,83.278z"/>
		<path fill="#005FA3" d="M44.128,186.195l0.105,0.09c4.043,3.42,8.783,5.955,14.082,7.533c0.178,0.054,0.357,0.078,0.533,0.078
			c0.805,0,1.547-0.523,1.789-1.334c0.295-0.988-0.268-2.027-1.255-2.322c-4.804-1.43-9.088-3.721-12.764-6.829l-0.085-0.071
			c-0.788-0.664-1.966-0.563-2.63,0.227C43.239,184.355,43.339,185.532,44.128,186.195z"/>
		<path fill="#005FA3" d="M116.409,176.857c-4.492,2.773-8.997,5.211-13.392,7.247c-0.936,0.434-1.343,1.543-0.909,2.478
			c0.315,0.682,0.99,1.083,1.694,1.083c0.262,0,0.53-0.056,0.784-0.173c4.528-2.099,9.167-4.606,13.783-7.455
			c0.877-0.543,1.151-1.692,0.609-2.57C118.438,176.59,117.288,176.316,116.409,176.857z"/>
		<path fill="#005FA3" d="M182.583,111.009c-0.88-0.54-2.029-0.268-2.568,0.61c-2.629,4.266-5.496,8.548-8.522,12.725
			c-0.606,0.836-0.419,2.002,0.416,2.607c0.331,0.24,0.715,0.356,1.094,0.356c0.577,0,1.148-0.269,1.513-0.772
			c3.082-4.252,6.001-8.611,8.679-12.956C183.732,112.7,183.461,111.549,182.583,111.009z"/>
		<path fill="#005FA3" d="M88.834,189.422c-5.15,1.451-10.124,2.293-14.784,2.499c-1.03,0.046-1.829,0.919-1.783,1.948
			c0.046,1.001,0.872,1.783,1.863,1.783c0.029,0,0.057,0,0.085-0.002c4.945-0.221,10.205-1.106,15.632-2.636
			c0.991-0.279,1.568-1.311,1.29-2.302C90.859,189.721,89.827,189.143,88.834,189.422z"/>
		<path fill="#005FA3" d="M32.839,163.77c-0.993,0.278-1.572,1.309-1.293,2.301c0.717,2.557,1.637,5.01,2.733,7.289
			c0.322,0.668,0.988,1.059,1.684,1.059c0.271,0,0.547-0.061,0.808-0.185c0.929-0.447,1.32-1.563,0.873-2.491
			c-1.002-2.086-1.844-4.331-2.503-6.679C34.863,164.069,33.833,163.492,32.839,163.77z"/>
		<path fill="#005FA3" d="M154.763,20.923c0.131,0.934,0.931,1.607,1.846,1.607c0.086,0,0.174-0.006,0.263-0.02
			c2.487-0.352,4.881-0.489,7.119-0.408c1.04,0.041,1.893-0.768,1.932-1.797c0.038-1.031-0.768-1.896-1.797-1.933
			c-2.455-0.091-5.073,0.059-7.776,0.441C155.33,18.958,154.618,19.903,154.763,20.923z"/>
		<path fill="#005FA3" d="M150.45,130.582c-0.032-0.02-0.067-0.032-0.101-0.049c-0.072-0.036-0.145-0.071-0.22-0.097
			c-0.042-0.015-0.086-0.023-0.128-0.035c-0.068-0.019-0.137-0.036-0.207-0.046c-0.047-0.007-0.095-0.009-0.144-0.013
			c-0.063-0.004-0.126-0.007-0.191-0.005c-0.072,0.003-0.144,0.012-0.216,0.022c-0.051,0.008-0.103,0.013-0.154,0.025
			c-0.074,0.018-0.145,0.044-0.216,0.07c-0.047,0.017-0.096,0.031-0.141,0.052c-0.075,0.035-0.146,0.081-0.218,0.125
			c-0.037,0.024-0.076,0.043-0.112,0.069c-0.104,0.078-0.202,0.166-0.291,0.267c-3.328,3.793-6.8,7.47-10.322,10.93
			c-0.735,0.723-0.747,1.906-0.024,2.641c0.365,0.373,0.849,0.558,1.332,0.558c0.473,0,0.945-0.178,1.309-0.535
			c3.588-3.525,7.125-7.27,10.512-11.132c0.682-0.776,0.604-1.954-0.172-2.635C150.653,130.711,150.554,130.641,150.45,130.582z"/>
		<path fill="#005FA3" d="M129.001,151.948c-0.035-0.027-0.073-0.046-0.109-0.07c-0.072-0.049-0.145-0.096-0.223-0.134
			c-0.046-0.022-0.093-0.038-0.141-0.056c-0.072-0.027-0.144-0.054-0.218-0.073c-0.052-0.013-0.104-0.021-0.157-0.03
			c-0.073-0.011-0.146-0.021-0.219-0.023c-0.043-0.002-0.086,0-0.13,0c-0.184,0.006-0.367,0.034-0.543,0.093
			c-0.025,0.009-0.05,0.022-0.075,0.032c-0.185,0.071-0.365,0.166-0.525,0.3c-3.937,3.286-7.953,6.338-11.938,9.079
			c-0.85,0.583-1.066,1.745-0.481,2.595c0.362,0.526,0.947,0.811,1.541,0.811c0.364,0,0.732-0.107,1.056-0.329
			c4.08-2.805,8.189-5.93,12.215-9.289c0.79-0.66,0.897-1.837,0.236-2.629C129.203,152.121,129.104,152.029,129.001,151.948z"/>
		<path fill="#005FA3" d="M187.062,38.625c0.198,0,0.395-0.029,0.593-0.096c0.977-0.325,1.505-1.383,1.18-2.362
			c-1.612-4.825-4.209-8.777-7.721-11.746c-0.542-0.458-1.106-0.893-1.681-1.297c-0.146-0.103-0.303-0.173-0.463-0.229
			c-0.038-0.012-0.074-0.024-0.109-0.034c-0.16-0.045-0.323-0.073-0.485-0.073c-0.028,0-0.054,0.004-0.082,0.006
			c-0.106,0.003-0.214,0.015-0.317,0.037c-0.046,0.01-0.089,0.024-0.133,0.037c-0.086,0.025-0.173,0.057-0.257,0.095
			c-0.043,0.02-0.086,0.041-0.127,0.063c-0.084,0.046-0.163,0.101-0.239,0.159c-0.033,0.027-0.068,0.05-0.102,0.08
			c-0.104,0.093-0.203,0.196-0.287,0.316c-0.593,0.844-0.387,2.008,0.455,2.601c0.485,0.34,0.964,0.707,1.416,1.091
			c2.98,2.521,5.198,5.912,6.59,10.079C185.554,38.132,186.281,38.625,187.062,38.625z"/>
		<path fill="#005FA3" d="M104.201,169.242c-0.029-0.033-0.061-0.063-0.092-0.092c-0.085-0.082-0.178-0.156-0.277-0.219
			c-0.03-0.02-0.057-0.042-0.087-0.059c-0.128-0.072-0.264-0.131-0.404-0.172c-0.032-0.008-0.064-0.012-0.096-0.02
			c-0.115-0.026-0.232-0.042-0.35-0.047c-0.046-0.002-0.093-0.004-0.139-0.002c-0.092,0.004-0.184,0.016-0.276,0.033
			c-0.044,0.008-0.088,0.014-0.132,0.025c-0.135,0.035-0.268,0.083-0.396,0.15c-4.67,2.469-9.253,4.465-13.622,5.935
			c-0.978,0.329-1.504,1.388-1.175,2.364c0.264,0.78,0.991,1.273,1.769,1.273c0.198,0,0.399-0.033,0.596-0.1
			c4.559-1.533,9.329-3.61,14.176-6.172c0.911-0.481,1.259-1.611,0.777-2.523C104.399,169.478,104.304,169.354,104.201,169.242z"/>
		<path fill="#005FA3" d="M188.523,49.907c-0.061,0.011-0.122,0.031-0.183,0.049c-0.056,0.016-0.109,0.029-0.163,0.049
			c-0.059,0.023-0.111,0.054-0.168,0.082c-0.051,0.026-0.102,0.049-0.149,0.078c-0.051,0.034-0.1,0.074-0.147,0.112
			c-0.044,0.035-0.092,0.066-0.133,0.104c-0.043,0.042-0.084,0.091-0.124,0.138c-0.036,0.042-0.076,0.082-0.109,0.127
			c-0.038,0.052-0.066,0.11-0.1,0.166c-0.028,0.047-0.059,0.091-0.081,0.14c-0.033,0.066-0.054,0.138-0.076,0.207
			c-0.016,0.045-0.036,0.087-0.046,0.134c-0.03,0.118-0.049,0.242-0.054,0.368c-0.195,4.509-0.959,9.421-2.258,14.598
			c-0.252,0.999,0.354,2.014,1.353,2.265c0.152,0.038,0.308,0.057,0.458,0.057c0.834,0,1.595-0.564,1.808-1.412
			c1.363-5.42,2.162-10.584,2.37-15.345c0.044-1.03-0.755-1.901-1.785-1.946c-0.081-0.004-0.16,0.006-0.239,0.013
			C188.639,49.895,188.58,49.897,188.523,49.907z"/>
		<path fill="#005FA3" d="M174.558,96.536c0.277,0.146,0.572,0.215,0.866,0.215c0.671,0,1.321-0.364,1.653-1
			c2.46-4.678,4.634-9.367,6.465-13.937c0.382-0.957-0.081-2.043-1.04-2.426c-0.117-0.047-0.236-0.08-0.356-0.102
			c-0.04-0.008-0.084-0.007-0.124-0.012c-0.076-0.009-0.152-0.019-0.227-0.019c-0.163,0.001-0.323,0.029-0.479,0.071
			c-0.035,0.01-0.07,0.022-0.109,0.035c-0.142,0.049-0.282,0.111-0.411,0.194c-0.008,0.006-0.019,0.009-0.025,0.015
			c-0.135,0.09-0.252,0.202-0.361,0.326c-0.025,0.029-0.051,0.06-0.074,0.091c-0.102,0.133-0.193,0.276-0.259,0.438
			c-1.783,4.451-3.904,9.023-6.304,13.588C173.294,94.927,173.645,96.057,174.558,96.536z"/>
		<path fill="#005FA3" d="M168.789,106.419c-0.14-0.09-0.287-0.151-0.438-0.2c-0.041-0.013-0.081-0.023-0.122-0.034
			c-0.128-0.032-0.259-0.051-0.389-0.055c-0.025,0-0.051-0.006-0.077-0.005c-0.138,0.001-0.277,0.019-0.411,0.05
			c-0.034,0.008-0.066,0.022-0.099,0.033c-0.101,0.03-0.198,0.066-0.293,0.113c-0.042,0.021-0.082,0.044-0.122,0.067
			c-0.085,0.051-0.167,0.109-0.244,0.174c-0.035,0.028-0.069,0.054-0.101,0.084c-0.103,0.099-0.201,0.209-0.282,0.336
			c-0.645,1.007-1.307,2.015-1.979,3.021c-2.096,3.132-4.312,6.25-6.621,9.304c-0.487,0.645-0.485,1.502-0.068,2.142
			c0.114,0.176,0.254,0.339,0.431,0.472c0.339,0.256,0.733,0.378,1.125,0.378c0.564,0,1.123-0.255,1.492-0.741
			c3.107-4.113,6.056-8.338,8.763-12.563C169.909,108.13,169.659,106.975,168.789,106.419z"/>
		<path fill="#005FA3" d="M103.696,172.143c-4.847,2.562-9.617,4.639-14.176,6.172c-0.197,0.066-0.398,0.1-0.596,0.1
			c-0.778,0-1.505-0.493-1.769-1.273c-0.329-0.977,0.197-2.035,1.175-2.364c4.369-1.47,8.951-3.466,13.622-5.935
			c0.128-0.067,0.261-0.115,0.396-0.15c0.043-0.012,0.087-0.018,0.132-0.025c0.092-0.018,0.184-0.029,0.276-0.033
			c0.022,0,0.044-0.008,0.067-0.008c0.024,0,0.047,0.009,0.072,0.01c0.119,0.005,0.235,0.021,0.35,0.047
			c0.032,0.008,0.064,0.011,0.096,0.02c0.14,0.041,0.276,0.099,0.404,0.172c0.03,0.017,0.058,0.039,0.087,0.059
			c0.1,0.063,0.191,0.136,0.277,0.219c0.031,0.029,0.063,0.059,0.092,0.092c0.103,0.112,0.198,0.235,0.272,0.377
			C104.956,170.531,104.607,171.661,103.696,172.143z M129.054,154.855c-4.026,3.358-8.136,6.484-12.215,9.289
			c-0.324,0.222-0.691,0.329-1.056,0.329c-0.594,0-1.179-0.284-1.541-0.811c-0.584-0.85-0.368-2.012,0.481-2.595
			c3.985-2.74,8.001-5.793,11.938-9.079c0.16-0.134,0.339-0.229,0.525-0.3c0.024-0.01,0.049-0.023,0.075-0.032
			c0.177-0.059,0.359-0.087,0.543-0.093c0.018,0,0.034-0.009,0.052-0.009c0.026,0,0.051,0.007,0.078,0.008
			c0.074,0.003,0.146,0.012,0.219,0.023c0.053,0.008,0.105,0.017,0.157,0.03c0.074,0.019,0.146,0.045,0.218,0.073
			c0.047,0.018,0.095,0.034,0.141,0.056c0.078,0.038,0.151,0.084,0.223,0.134c0.036,0.024,0.074,0.043,0.109,0.07
			c0.104,0.081,0.202,0.172,0.29,0.277C129.951,153.018,129.844,154.195,129.054,154.855z M150.918,133.428
			c-3.386,3.862-6.923,7.607-10.512,11.132c-0.364,0.356-0.836,0.535-1.309,0.535c-0.483,0-0.966-0.186-1.332-0.558
			c-0.723-0.735-0.711-1.917,0.024-2.641c3.522-3.459,6.995-7.137,10.322-10.93c0.088-0.101,0.187-0.189,0.291-0.267
			c0.036-0.027,0.075-0.045,0.112-0.069c0.071-0.045,0.143-0.091,0.218-0.125c0.047-0.021,0.094-0.035,0.141-0.052
			c0.071-0.026,0.142-0.052,0.216-0.07c0.051-0.012,0.103-0.017,0.154-0.025c0.073-0.011,0.144-0.02,0.216-0.022
			c0.021,0,0.04-0.006,0.059-0.006c0.044,0,0.089,0.009,0.132,0.012c0.048,0.004,0.095,0.006,0.144,0.013
			c0.07,0.01,0.139,0.028,0.207,0.046c0.042,0.012,0.087,0.021,0.128,0.035c0.075,0.026,0.148,0.062,0.22,0.097
			c0.033,0.017,0.067,0.029,0.101,0.049c0.104,0.06,0.203,0.129,0.296,0.211C151.522,131.474,151.6,132.651,150.918,133.428z
			 M190.721,51.823c-0.208,4.761-1.007,9.925-2.37,15.345c-0.213,0.848-0.974,1.412-1.808,1.412c-0.15,0-0.306-0.019-0.458-0.057
			c-0.999-0.251-1.604-1.266-1.353-2.265c1.299-5.177,2.063-10.089,2.258-14.598c0.005-0.126,0.023-0.25,0.054-0.368
			c0.01-0.047,0.03-0.089,0.046-0.134c0.022-0.069,0.043-0.141,0.076-0.207c0.022-0.049,0.053-0.093,0.081-0.14
			c0.033-0.056,0.062-0.114,0.1-0.166c0.033-0.045,0.073-0.085,0.109-0.127c0.04-0.046,0.081-0.095,0.124-0.138
			c0.041-0.038,0.089-0.07,0.133-0.104c0.048-0.038,0.097-0.078,0.147-0.112c0.048-0.03,0.099-0.052,0.149-0.078
			c0.057-0.028,0.109-0.059,0.168-0.082c0.054-0.021,0.107-0.033,0.163-0.049c0.061-0.018,0.119-0.038,0.183-0.049
			c0.057-0.01,0.115-0.012,0.173-0.017c0.052-0.004,0.103-0.015,0.153-0.015c0.03,0,0.059,0,0.086,0.002
			C189.966,49.921,190.765,50.793,190.721,51.823z M178.702,27.271c-0.452-0.384-0.931-0.75-1.416-1.091
			c-0.842-0.593-1.048-1.757-0.455-2.601c0.084-0.12,0.183-0.223,0.287-0.316c0.033-0.029,0.068-0.053,0.102-0.08
			c0.076-0.058,0.155-0.112,0.239-0.159c0.041-0.023,0.084-0.044,0.127-0.063c0.084-0.039,0.171-0.069,0.257-0.095
			c0.046-0.013,0.087-0.027,0.133-0.037c0.104-0.022,0.211-0.034,0.317-0.037c0.023-0.001,0.046-0.008,0.068-0.008
			c0.006,0,0.008,0.002,0.014,0.002c0.162,0,0.325,0.028,0.485,0.073c0.035,0.01,0.071,0.022,0.109,0.034
			c0.16,0.056,0.317,0.126,0.463,0.229c0.574,0.404,1.139,0.84,1.681,1.297c3.512,2.968,6.108,6.92,7.721,11.746
			c0.325,0.979-0.203,2.037-1.18,2.362c-0.198,0.067-0.395,0.096-0.593,0.096c-0.78,0-1.508-0.493-1.77-1.275
			C183.9,33.182,181.683,29.792,178.702,27.271z M173.772,94.015c2.399-4.565,4.521-9.137,6.304-13.588
			c0.065-0.163,0.157-0.306,0.259-0.438c0.023-0.031,0.049-0.061,0.074-0.091c0.109-0.124,0.227-0.236,0.361-0.326
			c0.007-0.006,0.018-0.009,0.025-0.015c0.129-0.083,0.27-0.145,0.411-0.194c0.039-0.013,0.074-0.025,0.109-0.035
			c0.155-0.042,0.315-0.07,0.479-0.071c0.003,0,0.008-0.002,0.013-0.002c0.071,0,0.143,0.012,0.214,0.021
			c0.04,0.005,0.084,0.004,0.124,0.012c0.12,0.022,0.239,0.055,0.356,0.102c0.959,0.383,1.422,1.469,1.04,2.426
			c-1.831,4.57-4.005,9.258-6.465,13.937c-0.333,0.636-0.982,1-1.653,1c-0.293,0-0.588-0.069-0.866-0.215
			C173.645,96.057,173.294,94.927,173.772,94.015z"/>
		<path fill="#005FA3" d="M167.354,106.176c0.134-0.032,0.272-0.049,0.411-0.05C167.626,106.127,167.487,106.144,167.354,106.176z"
			/>
		<path fill="#005FA3" d="M103.34,168.701c0.14,0.041,0.276,0.1,0.404,0.172C103.616,168.8,103.48,168.742,103.34,168.701z"/>
		<path fill="#005FA3" d="M166.961,106.321c0.095-0.046,0.193-0.083,0.293-0.113C167.154,106.238,167.056,106.274,166.961,106.321z"
			/>
		<path fill="#005FA3" d="M188.523,49.907c0.057-0.01,0.115-0.012,0.173-0.017C188.639,49.895,188.58,49.897,188.523,49.907z"/>
		<path fill="#005FA3" d="M176.831,23.579c0.084-0.12,0.183-0.223,0.287-0.316C177.014,23.356,176.915,23.459,176.831,23.579z"/>
		<path fill="#005FA3" d="M168.352,106.22c0.15,0.048,0.298,0.11,0.438,0.2C168.649,106.33,168.502,106.268,168.352,106.22z"/>
		<path fill="#005FA3" d="M166.595,106.563c0.077-0.064,0.159-0.123,0.244-0.174C166.753,106.44,166.672,106.498,166.595,106.563z"
			/>
		<path fill="#005FA3" d="M187.86,50.164c0.048-0.029,0.099-0.052,0.149-0.078C187.959,50.112,187.908,50.134,187.86,50.164z"/>
		<path fill="#005FA3" d="M187.58,50.38c0.041-0.038,0.089-0.07,0.133-0.104C187.669,50.311,187.621,50.342,187.58,50.38z"/>
		<path fill="#005FA3" d="M167.841,106.131c0.129,0.004,0.26,0.023,0.389,0.055C168.101,106.154,167.97,106.135,167.841,106.131z"/>
		<path fill="#005FA3" d="M188.178,50.004c0.054-0.02,0.107-0.033,0.163-0.049C188.285,49.972,188.231,49.983,188.178,50.004z"/>
		<path fill="#005FA3" d="M181.316,79.327c0.155-0.042,0.315-0.07,0.479-0.071C181.632,79.257,181.472,79.285,181.316,79.327z"/>
		<path fill="#005FA3" d="M180.796,79.556c0.129-0.083,0.27-0.145,0.411-0.194C181.065,79.411,180.925,79.473,180.796,79.556z"/>
		<path fill="#005FA3" d="M180.409,79.897c0.109-0.124,0.227-0.236,0.361-0.326C180.636,79.661,180.519,79.773,180.409,79.897z"/>
		<path fill="#005FA3" d="M57.626,176.301c0.072-0.15,0.166-0.28,0.268-0.4C57.792,176.021,57.698,176.15,57.626,176.301z"/>
		<path fill="#005FA3" d="M102.895,168.635c0.118,0.005,0.235,0.021,0.35,0.047C103.13,168.655,103.013,168.64,102.895,168.635z"/>
		<path fill="#005FA3" d="M104.201,169.242c0.103,0.112,0.198,0.235,0.272,0.377C104.399,169.478,104.304,169.354,104.201,169.242z"
			/>
		<path fill="#005FA3" d="M182.021,79.274c0.04,0.005,0.084,0.004,0.124,0.012C182.105,79.278,182.062,79.279,182.021,79.274z"/>
		<path fill="#005FA3" d="M178.375,22.787c0.162,0,0.325,0.028,0.485,0.073C178.7,22.815,178.537,22.788,178.375,22.787z"/>
		<path fill="#005FA3" d="M177.586,22.961c0.084-0.038,0.171-0.069,0.257-0.095C177.757,22.892,177.67,22.922,177.586,22.961z"/>
		<path fill="#005FA3" d="M166.212,106.983c0.081-0.126,0.179-0.237,0.282-0.336C166.391,106.746,166.293,106.856,166.212,106.983z"
			/>
		<path fill="#005FA3" d="M177.976,22.83c0.104-0.022,0.211-0.034,0.317-0.037C178.187,22.796,178.079,22.808,177.976,22.83z"/>
		<path fill="#005FA3" d="M177.22,23.184c0.076-0.058,0.155-0.112,0.239-0.159C177.375,23.071,177.296,23.125,177.22,23.184z"/>
		<path fill="#005FA3" d="M178.97,22.895c0.16,0.056,0.317,0.126,0.463,0.229C179.287,23.021,179.13,22.95,178.97,22.895z"/>
		<path fill="#005FA3" d="M102.479,168.666c0.092-0.018,0.184-0.029,0.276-0.033C102.663,168.637,102.571,168.648,102.479,168.666z"
			/>
		<path fill="#005FA3" d="M180.076,80.426c0.065-0.163,0.157-0.306,0.259-0.438C180.233,80.121,180.142,80.264,180.076,80.426z"/>
		<path fill="#005FA3" d="M149.243,130.358c0.073-0.011,0.144-0.02,0.216-0.022C149.387,130.339,149.316,130.348,149.243,130.358z"
			/>
		<path fill="#005FA3" d="M129.001,151.948c0.104,0.081,0.202,0.172,0.29,0.277C129.203,152.121,129.104,152.029,129.001,151.948z"
			/>
		<path fill="#005FA3" d="M148.874,130.453c0.071-0.026,0.142-0.052,0.216-0.07C149.016,130.401,148.944,130.427,148.874,130.453z"
			/>
		<path fill="#005FA3" d="M128.669,151.745c0.078,0.038,0.151,0.084,0.223,0.134C128.82,151.829,128.747,151.782,128.669,151.745z"
			/>
		<path fill="#005FA3" d="M148.515,130.631c0.071-0.045,0.143-0.091,0.218-0.125C148.657,130.54,148.586,130.585,148.515,130.631z"
			/>
		<path fill="#005FA3" d="M148.112,130.966c0.088-0.101,0.187-0.189,0.291-0.267C148.299,130.777,148.201,130.865,148.112,130.966z"
			/>
		<path fill="#005FA3" d="M103.832,168.932c0.099,0.063,0.191,0.137,0.277,0.219C104.023,169.067,103.932,168.994,103.832,168.932z"
			/>
		<path fill="#005FA3" d="M128.311,151.616c0.074,0.019,0.146,0.045,0.218,0.073C128.457,151.662,128.385,151.635,128.311,151.616z"
			/>
		<path fill="#005FA3" d="M126.662,151.989c0.16-0.134,0.34-0.229,0.525-0.3C127,151.76,126.822,151.854,126.662,151.989z"/>
		<path fill="#005FA3" d="M127.261,151.657c0.176-0.059,0.359-0.087,0.543-0.093C127.621,151.569,127.438,151.598,127.261,151.657z"
			/>
		<path fill="#005FA3" d="M127.934,151.563c0.074,0.003,0.146,0.012,0.219,0.023C128.08,151.575,128.008,151.566,127.934,151.563z"
			/>
		<path fill="#005FA3" d="M58.344,175.512c0.129-0.078,0.271-0.139,0.415-0.183C58.614,175.374,58.474,175.433,58.344,175.512z"/>
		<path fill="#005FA3" d="M187.044,51.292c0.01-0.047,0.03-0.089,0.046-0.134C187.074,51.203,187.054,51.245,187.044,51.292z"/>
		<path fill="#005FA3" d="M58.869,175.301c0.122-0.029,0.245-0.047,0.371-0.051C59.114,175.254,58.991,175.271,58.869,175.301z"/>
		<path fill="#005FA3" d="M101.952,168.842c0.128-0.067,0.261-0.115,0.396-0.15C102.213,168.727,102.08,168.774,101.952,168.842z"/>
		<path fill="#005FA3" d="M187.347,50.645c0.033-0.045,0.073-0.085,0.109-0.127C187.42,50.56,187.38,50.6,187.347,50.645z"/>
		<path fill="#005FA3" d="M57.98,175.808c0.093-0.095,0.195-0.181,0.305-0.254C58.175,175.627,58.074,175.711,57.98,175.808z"/>
		<path fill="#005FA3" d="M150.35,130.533c0.033,0.017,0.069,0.029,0.101,0.049C150.417,130.563,150.383,130.55,150.35,130.533z"/>
		<path fill="#005FA3" d="M187.166,50.951c0.022-0.049,0.053-0.093,0.081-0.14C187.219,50.858,187.188,50.902,187.166,50.951z"/>
		<path fill="#005FA3" d="M59.35,175.244c0.086,0.002,0.173,0.014,0.26,0.029C59.523,175.258,59.437,175.246,59.35,175.244z"/>
		<path fill="#005FA3" d="M59.736,175.291c0.128,0.03,0.256,0.072,0.38,0.132C59.992,175.363,59.864,175.321,59.736,175.291z"/>
		<path fill="#005FA3" d="M150.001,130.401c0.042,0.012,0.087,0.021,0.128,0.035C150.088,130.421,150.043,130.413,150.001,130.401z"
			/>
		<path fill="#005FA3" d="M149.65,130.341c0.048,0.004,0.097,0.006,0.144,0.013C149.746,130.348,149.699,130.345,149.65,130.341z"/>
		<path fill="#005FA3" d="M75.916,179.141c-0.01-0.038-0.027-0.073-0.04-0.111c-0.025-0.076-0.05-0.154-0.085-0.227
			c-0.021-0.042-0.047-0.08-0.071-0.12c-0.037-0.063-0.071-0.126-0.113-0.183c-0.029-0.039-0.065-0.074-0.097-0.11
			c-0.045-0.052-0.089-0.104-0.139-0.151c-0.038-0.033-0.08-0.063-0.12-0.094c-0.052-0.041-0.104-0.082-0.16-0.117
			c-0.044-0.027-0.092-0.049-0.139-0.072c-0.058-0.03-0.116-0.061-0.177-0.084c-0.05-0.02-0.103-0.032-0.154-0.047
			c-0.063-0.018-0.125-0.035-0.191-0.047c-0.055-0.008-0.11-0.012-0.167-0.016c-0.045-0.004-0.089-0.014-0.135-0.014
			c-0.042,0-0.084,0.002-0.128,0.005c-0.023,0.001-0.046,0.001-0.069,0.002c-0.726,0.042-1.446,0.064-2.143,0.064
			c-0.007,0-0.016,0-0.023,0c-4.41,0-8.33-0.806-11.649-2.396c-0.124-0.06-0.252-0.102-0.38-0.132
			c-0.042-0.01-0.084-0.012-0.126-0.018c-0.087-0.016-0.173-0.027-0.26-0.029c-0.038-0.001-0.073,0.004-0.11,0.006
			c-0.126,0.004-0.25,0.021-0.371,0.051c-0.037,0.01-0.074,0.017-0.11,0.028c-0.145,0.044-0.286,0.104-0.415,0.183
			c-0.021,0.012-0.038,0.029-0.058,0.042c-0.11,0.073-0.212,0.159-0.305,0.254c-0.029,0.03-0.059,0.06-0.086,0.093
			c-0.102,0.12-0.196,0.25-0.268,0.4c-0.446,0.93-0.053,2.044,0.876,2.488c3.827,1.834,8.291,2.765,13.263,2.765
			c0.008,0,0.016,0,0.023,0c0.151,0,0.311-0.013,0.463-0.015c0.648-0.008,1.302-0.021,1.967-0.059
			c1.03-0.06,1.816-0.943,1.756-1.973C75.967,179.382,75.946,179.26,75.916,179.141z"/>
		<path fill="#005FA3" d="M48.805,168.398c0.274,0,0.552-0.061,0.815-0.189c0.926-0.451,1.313-1.568,0.861-2.495
			c-0.964-1.982-1.711-4.213-2.216-6.629c-0.209-1.008-1.199-1.654-2.208-1.443c-1.009,0.209-1.656,1.199-1.446,2.208
			c0.568,2.717,1.415,5.24,2.513,7.498C47.448,168.012,48.112,168.398,48.805,168.398z"/>
		<path fill="#005FA3" d="M213.247,15.612c3.68,6.11,6.284,13.021,7.698,20.533c2.37,12.577,1.479,26.703-2.643,41.984
			c-6.51,24.126-21,50.31-40.806,73.729c-15.015,17.754-32.155,32.849-49.575,43.651c-19.416,12.043-38.734,18.408-55.868,18.408
			c-14.8,0-30.935-8.064-38.519-13.444c-3.881-2.754-6.808-6.53-9.509-10.351c19.438,63.119,306.427,10.236,306.427,10.236
			C311.968,151.397,213.247,15.612,213.247,15.612z"/>
	</g>
	<g>
		<path fill="#005FA3" d="M12.885,255.254v26.945c2.78-3.021,5.447-5.15,8-6.384s5.412-1.851,8.574-1.851
			c3.405,0,6.298,0.6,8.678,1.799c2.38,1.199,4.369,3.039,5.968,5.524c1.598,2.484,2.397,5.099,2.397,7.844v27.155h4.899
			c1.076,0,1.832,0.199,2.267,0.598c0.434,0.401,0.651,0.932,0.651,1.59c0,0.626-0.217,1.146-0.651,1.564
			c-0.435,0.417-1.191,0.625-2.267,0.625H37.173c-1.077,0-1.842-0.208-2.293-0.625c-0.452-0.418-0.678-0.938-0.678-1.564
			c0-0.658,0.226-1.188,0.678-1.59c0.452-0.398,1.216-0.598,2.293-0.598h4.9v-26.842c0-3.162-1.139-5.804-3.414-7.924
			c-2.276-2.118-5.447-3.178-9.512-3.178c-3.197,0-5.925,0.781-8.183,2.344c-1.633,1.113-4.326,3.736-8.079,7.871v27.729h4.952
			c1.042,0,1.789,0.199,2.241,0.598c0.451,0.401,0.677,0.932,0.677,1.59c0,0.626-0.227,1.146-0.677,1.564
			c-0.452,0.417-1.199,0.625-2.241,0.625H3.556c-1.042,0-1.791-0.208-2.241-0.625c-0.452-0.418-0.678-0.938-0.678-1.564
			c0-0.658,0.226-1.188,0.678-1.59c0.451-0.398,1.199-0.598,2.241-0.598h4.951v-56.604h-5.89c-1.042,0-1.79-0.209-2.241-0.625
			s-0.677-0.955-0.677-1.615c0-0.626,0.226-1.147,0.677-1.564s1.199-0.625,2.241-0.625H12.885z"/>
		<path fill="#005FA3" d="M115.04,299.139H70.426c0.763,5.664,3.135,10.225,7.114,13.682c3.979,3.457,8.904,5.186,14.776,5.186
			c3.266,0,6.688-0.538,10.268-1.615c3.578-1.076,6.497-2.502,8.756-4.273c0.659-0.521,1.233-0.782,1.72-0.782
			c0.556,0,1.043,0.218,1.459,0.651c0.417,0.435,0.626,0.947,0.626,1.537c0,0.592-0.279,1.164-0.834,1.721
			c-1.667,1.738-4.63,3.361-8.886,4.873c-4.257,1.511-8.626,2.268-13.108,2.268c-7.506,0-13.769-2.458-18.789-7.375
			c-5.022-4.917-7.531-10.867-7.531-17.852c0-6.357,2.353-11.813,7.062-16.366c4.708-4.551,10.537-6.827,17.486-6.827
			c7.158,0,13.047,2.338,17.669,7.01C112.833,285.649,115.109,291.703,115.04,299.139z M110.61,294.709
			c-0.869-4.83-3.153-8.758-6.854-11.779c-3.7-3.022-8.104-4.535-13.212-4.535c-5.107,0-9.503,1.494-13.186,4.482
			c-3.683,2.99-5.977,6.933-6.88,11.832H110.61z"/>
		<path fill="#005FA3" d="M170.391,320.664v-6.41c-5.976,5.42-12.439,8.131-19.388,8.131c-4.274,0-7.523-1.164-9.747-3.493
			c-2.884-3.057-4.326-6.618-4.326-10.685v-28.248h-5.89c-1.042,0-1.79-0.209-2.241-0.625c-0.452-0.418-0.678-0.957-0.678-1.617
			c0-0.625,0.226-1.146,0.678-1.563c0.451-0.417,1.199-0.626,2.241-0.626h10.268v32.68c0,2.85,0.903,5.195,2.71,7.037
			c1.806,1.842,4.066,2.762,6.776,2.762c7.123,0,13.655-3.266,19.597-9.799v-28.248h-8.078c-1.043,0-1.791-0.209-2.242-0.625
			c-0.452-0.418-0.677-0.957-0.677-1.617c0-0.625,0.225-1.146,0.677-1.563c0.451-0.417,1.199-0.626,2.242-0.626h12.456v40.76h3.702
			c1.043,0,1.788,0.199,2.241,0.598c0.45,0.401,0.676,0.932,0.676,1.59c0,0.626-0.226,1.146-0.676,1.564
			c-0.453,0.417-1.198,0.625-2.241,0.625H170.391z"/>
		<path fill="#005FA3" d="M214.225,275.527v11.051c5.698-5.143,9.964-8.451,12.796-9.929c2.831-1.476,5.447-2.215,7.844-2.215
			c2.606,0,5.03,0.877,7.271,2.632c2.242,1.755,3.362,3.084,3.362,3.986c0,0.661-0.218,1.208-0.651,1.643
			c-0.435,0.436-0.982,0.651-1.642,0.651c-0.349,0-0.644-0.06-0.886-0.183c-0.244-0.121-0.696-0.512-1.355-1.173
			c-1.217-1.216-2.276-2.05-3.179-2.501c-0.904-0.451-1.791-0.678-2.659-0.678c-1.911,0-4.214,0.764-6.905,2.293
			c-2.693,1.529-7.358,5.264-13.995,11.205v23.977h19.389c1.077,0,1.841,0.199,2.294,0.598c0.451,0.401,0.678,0.932,0.678,1.59
			c0,0.626-0.227,1.146-0.678,1.564c-0.453,0.417-1.217,0.625-2.294,0.625h-34.347c-1.042,0-1.79-0.199-2.241-0.599
			s-0.678-0.913-0.678-1.538c0-0.59,0.217-1.085,0.652-1.485c0.434-0.399,1.188-0.599,2.267-0.599h10.581v-36.484h-8.08
			c-1.041,0-1.789-0.209-2.24-0.625c-0.452-0.418-0.678-0.957-0.678-1.617c0-0.625,0.217-1.146,0.651-1.563s1.19-0.626,2.267-0.626
			H214.225z"/>
		<path fill="#005FA3" d="M283.234,275.527v40.76h17.198c1.077,0,1.842,0.199,2.294,0.598c0.451,0.401,0.678,0.932,0.678,1.59
			c0,0.626-0.227,1.146-0.678,1.564c-0.452,0.417-1.217,0.625-2.294,0.625h-38.776c-1.042,0-1.79-0.208-2.241-0.625
			c-0.451-0.418-0.678-0.938-0.678-1.564c0-0.658,0.227-1.188,0.678-1.59c0.451-0.398,1.199-0.598,2.241-0.598h17.199v-36.328
			h-12.769c-1.043,0-1.798-0.209-2.268-0.625c-0.469-0.418-0.704-0.939-0.704-1.564c0-0.66,0.227-1.199,0.678-1.616
			s1.216-0.626,2.294-0.626H283.234z M283.078,253.065v11.309h-6.463v-11.309H283.078z"/>
		<path fill="#005FA3" d="M352.923,277.094c0-1.008,0.208-1.737,0.625-2.189s0.938-0.678,1.564-0.678
			c0.66,0,1.199,0.226,1.616,0.678s0.625,1.217,0.625,2.293v7.505c0,1.042-0.208,1.79-0.625,2.241
			c-0.417,0.453-0.956,0.678-1.616,0.678c-0.592,0-1.086-0.19-1.485-0.573c-0.4-0.382-0.635-1.007-0.704-1.877
			c-0.209-2.084-1.286-3.804-3.231-5.159c-2.85-1.945-6.619-2.918-11.31-2.918c-4.899,0-8.704,0.99-11.415,2.97
			c-2.051,1.495-3.074,3.162-3.074,5.003c0,2.086,1.216,3.824,3.647,5.213c1.669,0.974,4.83,1.72,9.486,2.241
			c6.08,0.66,10.302,1.407,12.665,2.241c3.37,1.216,5.881,2.902,7.531,5.057c1.65,2.153,2.476,4.481,2.476,6.982
			c0,3.719-1.79,7.029-5.368,9.93c-3.579,2.9-8.825,4.352-15.74,4.352c-6.914,0-12.579-1.754-16.991-5.264
			c0,1.182-0.07,1.945-0.209,2.293c-0.138,0.348-0.39,0.643-0.755,0.887s-0.774,0.364-1.225,0.364c-0.625,0-1.146-0.226-1.563-0.678
			c-0.417-0.451-0.626-1.199-0.626-2.24v-9.018c0-1.043,0.2-1.789,0.599-2.241c0.399-0.451,0.93-0.678,1.591-0.678
			c0.625,0,1.154,0.218,1.59,0.651c0.434,0.435,0.65,1.017,0.65,1.746c0,1.6,0.399,2.937,1.199,4.015
			c1.216,1.666,3.153,3.049,5.812,4.143s5.916,1.641,9.772,1.641c5.697,0,9.937-1.059,12.718-3.178
			c2.779-2.119,4.169-4.361,4.169-6.725c0-2.709-1.407-4.881-4.221-6.514c-2.85-1.635-6.994-2.728-12.432-3.285
			c-5.438-0.555-9.339-1.283-11.701-2.188s-4.205-2.258-5.524-4.066c-1.321-1.806-1.979-3.752-1.979-5.838
			c0-3.752,1.841-6.73,5.524-8.938c3.683-2.206,8.078-3.31,13.186-3.31C344.219,272.663,349.135,274.141,352.923,277.094z"/>
	</g>
</g>
</svg>
