<?xml version="1.0" encoding="utf-8"?>
<!-- Generator: Adobe Illustrator 15.1.0, SVG Export Plug-In . SVG Version: 6.00 Build 0)  -->
<!DOCTYPE svg PUBLIC "-//W3C//DTD SVG 1.1//EN" "http://www.w3.org/Graphics/SVG/1.1/DTD/svg11.dtd">
<svg version="1.1" id="レイヤー_1" xmlns="http://www.w3.org/2000/svg" xmlns:xlink="http://www.w3.org/1999/xlink" x="0px"
	 y="0px" width="360px" height="317px" viewBox="0 0 360 317" enable-background="new 0 0 360 317" xml:space="preserve">
<g>
	<g>
		<polygon fill="#EC9F1E" points="183.228,62.331 183.228,3.505 121.549,62.331 		"/>
		<circle fill="#008BA5" cx="121.549" cy="82.554" r="2.706"/>
		<circle fill="#008BA5" cx="121.549" cy="185.684" r="2.706"/>
		<circle fill="#008BA5" cx="229.913" cy="82.554" r="2.705"/>
		<circle fill="#EC9F1E" cx="183.228" cy="62.33" r="2.705"/>
		<circle fill="#EC9F1E" cx="183.228" cy="3.505" r="2.705"/>
		<circle fill="#EC9F1E" cx="121.549" cy="62.33" r="2.705"/>
		<circle fill="#EC9F1E" cx="238.75" cy="195.463" r="2.705"/>
		<circle fill="#EC9F1E" cx="238.75" cy="92.334" r="2.705"/>
		<circle fill="#EC9F1E" cx="130.386" cy="195.463" r="2.705"/>
		<g>
			<polygon fill="#008BA5" points="121.549,106.193 121.549,186.075 156.919,152.342 156.919,106.193 			"/>
			<polygon fill="#008BA5" points="121.549,82.554 121.549,95.039 217.005,95.039 230.095,82.554 			"/>
			<polygon fill="#008BA5" points="168.073,141.706 205.311,106.193 168.073,106.193 			"/>
		</g>
		<path fill="#EC9F1E" d="M238.75,91.942l-59.466,56.714h37.331v31.93h-0.078l14.878,14.877h7.336V91.942z M156.919,195.463v-25.479
			l-26.714,25.479H156.919z M168.42,180.586v14.877h46.729l-14.876-14.877H168.42z M205.115,160.155H168.42v8.931h36.695V160.155z"
			/>
	</g>
	<g>
		<g>
			<rect x="2.799" y="238.688" fill="#231815" width="1.983" height="32.479"/>
		</g>
		<g>
			<rect x="19.14" y="238.688" fill="#231815" width="1.984" height="32.479"/>
		</g>
		<g>
			
				<rect x="28.062" y="229.552" transform="matrix(0.8076 0.5898 -0.5898 0.8076 168.9821 36.1742)" fill="#231815" width="1.984" height="95"/>
		</g>
		
			<rect x="113.911" y="265.954" transform="matrix(0.6984 0.7157 -0.7157 0.6984 237.1418 -28.8481)" fill="#231815" width="77.777" height="1.983"/>
		
			<rect x="114.921" y="295.227" transform="matrix(0.6984 0.7157 -0.7157 0.6984 254.5112 -11.4927)" fill="#231815" width="51.941" height="1.984"/>
		<polygon fill="#231815" points="74.535,247.548 80.443,239.264 78.828,238.112 58.761,266.251 60.376,267.402 73.121,249.531 
			111.021,249.531 62.128,314.82 63.716,316.009 114.984,247.548 		"/>
		<rect x="180.001" y="238.12" fill="#231815" width="57.205" height="1.983"/>
		<polygon fill="#231815" points="360.048,239.281 358.488,238.122 301.252,238.12 301.252,240.104 357.009,240.104 
			301.242,314.822 302.833,316.008 330.646,278.711 358.458,316.008 360.048,314.822 331.883,277.052 		"/>
		<g>
			<rect x="358.262" y="262.724" fill="#231815" width="1.982" height="23.48"/>
		</g>
		<g>
			<rect x="346.278" y="262.724" fill="#231815" width="1.983" height="23.48"/>
		</g>
		<polygon fill="#231815" points="290.063,239.382 288.645,237.994 236.508,291.239 237.925,292.627 269.889,259.984 
			269.889,315.415 271.872,315.415 271.872,257.959 		"/>
	</g>
</g>
<polygon fill="#231815" points="239.564,256.004 180.001,256.004 180.001,257.986 234.847,257.986 179.98,314.019 123.463,256.302 
	122.045,257.688 179.25,316.108 179.254,316.104 179.98,316.831 180.706,316.104 180.71,316.108 "/>
</svg>
