<svg xmlns="http://www.w3.org/2000/svg" viewBox="0 0 48.49 48.49"><defs><style>.cls-1{fill:#e9d900;}</style></defs><g id="レイヤー_2" data-name="レイヤー 2"><path class="cls-1" d="M24.65,2.06c.19-1.74.51-1.74.7,0l1.89,17.19a4.18,4.18,0,0,0,3.51,3.51l17.19,1.89c1.74.19,1.74.51,0,.7L30.75,27.24a4.17,4.17,0,0,0-3.51,3.51L25.35,47.94c-.19,1.74-.51,1.74-.7,0L22.76,30.75a4.17,4.17,0,0,0-3.51-3.51L2.06,25.35c-1.74-.19-1.74-.51,0-.7l17.19-1.89a4.18,4.18,0,0,0,3.51-3.51Z" transform="translate(-0.76 -0.76)"/></g></svg>